<svg width="141" height="141" viewBox="0 0 141 141" fill="none" xmlns="http://www.w3.org/2000/svg">
<path opacity="0.5" d="M57.4644 22.8538C60.7779 20.0338 62.4346 18.6238 64.1619 17.7954C66.1402 16.8494 68.3052 16.3584 70.4981 16.3584C72.6909 16.3584 74.856 16.8494 76.8343 17.7954C78.5674 18.6179 80.2241 20.0279 83.5318 22.8538C84.8536 23.9818 85.5116 24.5399 86.2166 25.0099C87.8311 26.0919 89.6443 26.8428 91.5511 27.2189C92.3795 27.3834 93.2431 27.4539 94.9704 27.5949C99.312 27.9357 101.48 28.1119 103.289 28.7523C105.356 29.4817 107.234 30.6643 108.784 32.2136C110.334 33.7629 111.518 35.6395 112.249 37.7058C112.889 39.5212 113.059 41.689 113.406 46.0248C113.541 47.752 113.612 48.6157 113.776 49.4499C114.152 51.3534 114.904 53.1688 115.985 54.7785C116.455 55.4835 117.019 56.1415 118.141 57.4634C120.961 60.7769 122.377 62.4337 123.206 64.1609C124.152 66.1392 124.643 68.3042 124.643 70.4971C124.643 72.69 124.152 74.855 123.206 76.8333C122.383 78.5605 120.967 80.2173 118.141 83.5308C117.373 84.3849 116.653 85.2812 115.985 86.2157C114.904 87.8282 114.153 89.6394 113.776 91.5443C113.612 92.3785 113.541 93.2422 113.406 94.9694C113.059 99.3052 112.889 101.479 112.249 103.288C111.518 105.355 110.334 107.231 108.784 108.781C107.234 110.33 105.356 111.513 103.289 112.242C101.48 112.888 99.312 113.059 94.9704 113.399C93.2431 113.54 92.3854 113.611 91.5511 113.775C89.6443 114.151 87.8311 114.902 86.2166 115.984C85.2842 116.653 84.3898 117.372 83.5376 118.14C80.2241 120.96 78.5674 122.37 76.8401 123.199C74.8618 124.145 72.6968 124.636 70.5039 124.636C68.3111 124.636 66.1461 124.145 64.1678 123.199C62.4346 122.376 60.7779 120.966 57.4703 118.14C56.616 117.372 55.7197 116.653 54.7854 115.984C53.1709 114.902 51.3577 114.151 49.4509 113.775C48.319 113.587 47.1775 113.461 46.0316 113.399C41.69 113.059 39.5221 112.882 37.7126 112.242C35.6458 111.513 33.7685 110.33 32.2182 108.781C30.6679 107.231 29.484 105.355 28.7533 103.288C28.1129 101.479 27.9425 99.3052 27.5959 94.9694C27.5372 93.8216 27.4136 92.6781 27.2258 91.5443C26.8489 89.6395 26.0981 87.8284 25.0168 86.2157C24.5468 85.5107 23.9828 84.8527 22.8606 83.5308C20.0406 80.2173 18.6248 78.5605 17.7964 76.8333C16.8504 74.855 16.3594 72.69 16.3594 70.4971C16.3594 68.3042 16.8504 66.1392 17.7964 64.1609C18.6248 62.4337 20.0348 60.7769 22.8606 57.4634C23.9828 56.1415 24.5468 55.4835 25.0168 54.7785C26.0981 53.1658 26.8489 51.3547 27.2258 49.4499C27.3903 48.6157 27.4608 47.752 27.5959 46.0248C27.9425 41.689 28.1129 39.5212 28.7533 37.7058C29.4846 35.6389 30.6694 33.7619 32.2208 32.2126C33.7721 30.6633 35.6506 29.4809 37.7185 28.7523C39.528 28.1119 41.6959 27.9357 46.0375 27.5949C47.7648 27.4539 48.6225 27.3834 49.4568 27.2189C51.3636 26.8428 53.1768 26.0919 54.7913 25.0099C55.4963 24.5399 56.1484 23.9818 57.4644 22.8538Z" stroke="white" stroke-width="6"/>
<path d="M49.9375 73.4375L61.6875 85.1875L91.0625 55.8125" stroke="white" stroke-width="6" stroke-linecap="round" stroke-linejoin="round"/>
</svg>
