<svg width="28" height="28" viewBox="0 0 28 28" fill="none" xmlns="http://www.w3.org/2000/svg">
<path fill-rule="evenodd" clip-rule="evenodd" d="M9.91536 14.5837H8.7487V15.7503H9.91536V14.5837ZM8.7487 13.417C8.43928 13.417 8.14253 13.5399 7.92374 13.7587C7.70495 13.9775 7.58203 14.2742 7.58203 14.5837V15.7503C7.58203 16.0597 7.70495 16.3565 7.92374 16.5753C8.14253 16.7941 8.43928 16.917 8.7487 16.917H9.91536C10.2248 16.917 10.5215 16.7941 10.7403 16.5753C10.9591 16.3565 11.082 16.0597 11.082 15.7503V14.5837C11.082 14.2742 10.9591 13.9775 10.7403 13.7587C10.5215 13.5399 10.2248 13.417 9.91536 13.417H8.7487ZM14.582 14.5837H13.4154V15.7503H14.582V14.5837ZM13.4154 13.417C13.1059 13.417 12.8092 13.5399 12.5904 13.7587C12.3716 13.9775 12.2487 14.2742 12.2487 14.5837V15.7503C12.2487 16.0597 12.3716 16.3565 12.5904 16.5753C12.8092 16.7941 13.1059 16.917 13.4154 16.917H14.582C14.8915 16.917 15.1882 16.7941 15.407 16.5753C15.6258 16.3565 15.7487 16.0597 15.7487 15.7503V14.5837C15.7487 14.2742 15.6258 13.9775 15.407 13.7587C15.1882 13.5399 14.8915 13.417 14.582 13.417H13.4154ZM19.2487 14.5837H18.082V15.7503H19.2487V14.5837ZM18.082 13.417C17.7726 13.417 17.4759 13.5399 17.2571 13.7587C17.0383 13.9775 16.9154 14.2742 16.9154 14.5837V15.7503C16.9154 16.0597 17.0383 16.3565 17.2571 16.5753C17.4759 16.7941 17.7726 16.917 18.082 16.917H19.2487C19.5581 16.917 19.8549 16.7941 20.0737 16.5753C20.2924 16.3565 20.4154 16.0597 20.4154 15.7503V14.5837C20.4154 14.2742 20.2924 13.9775 20.0737 13.7587C19.8549 13.5399 19.5581 13.417 19.2487 13.417H18.082ZM9.91536 19.2503H8.7487V20.417H9.91536V19.2503ZM8.7487 18.0837C8.43928 18.0837 8.14253 18.2066 7.92374 18.4254C7.70495 18.6442 7.58203 18.9409 7.58203 19.2503V20.417C7.58203 20.7264 7.70495 21.0232 7.92374 21.242C8.14253 21.4607 8.43928 21.5837 8.7487 21.5837H9.91536C10.2248 21.5837 10.5215 21.4607 10.7403 21.242C10.9591 21.0232 11.082 20.7264 11.082 20.417V19.2503C11.082 18.9409 10.9591 18.6442 10.7403 18.4254C10.5215 18.2066 10.2248 18.0837 9.91536 18.0837H8.7487ZM14.582 19.2503H13.4154V20.417H14.582V19.2503ZM13.4154 18.0837C13.1059 18.0837 12.8092 18.2066 12.5904 18.4254C12.3716 18.6442 12.2487 18.9409 12.2487 19.2503V20.417C12.2487 20.7264 12.3716 21.0232 12.5904 21.242C12.8092 21.4607 13.1059 21.5837 13.4154 21.5837H14.582C14.8915 21.5837 15.1882 21.4607 15.407 21.242C15.6258 21.0232 15.7487 20.7264 15.7487 20.417V19.2503C15.7487 18.9409 15.6258 18.6442 15.407 18.4254C15.1882 18.2066 14.8915 18.0837 14.582 18.0837H13.4154ZM19.2487 19.2503H18.082V20.417H19.2487V19.2503ZM18.082 18.0837C17.7726 18.0837 17.4759 18.2066 17.2571 18.4254C17.0383 18.6442 16.9154 18.9409 16.9154 19.2503V20.417C16.9154 20.7264 17.0383 21.0232 17.2571 21.242C17.4759 21.4607 17.7726 21.5837 18.082 21.5837H19.2487C19.5581 21.5837 19.8549 21.4607 20.0737 21.242C20.2924 21.0232 20.4154 20.7264 20.4154 20.417V19.2503C20.4154 18.9409 20.2924 18.6442 20.0737 18.4254C19.8549 18.2066 19.5581 18.0837 19.2487 18.0837H18.082Z" fill="#1F2587"/>
<path fill-rule="evenodd" clip-rule="evenodd" d="M5.83203 6.41667C5.67732 6.41667 5.52895 6.47812 5.41955 6.58752C5.31016 6.69692 5.2487 6.84529 5.2487 7V22.75C5.2487 22.9047 5.31016 23.0531 5.41955 23.1625C5.52895 23.2719 5.67732 23.3333 5.83203 23.3333H22.1654C22.4862 23.3333 22.7487 23.0714 22.7487 22.7488V7.00117C22.7487 6.678 22.4862 6.41667 22.1654 6.41667H20.4154V5.25H22.1654C23.1325 5.25 23.9154 6.03575 23.9154 7.00117V22.7488C23.9154 23.2131 23.731 23.6583 23.4029 23.9867C23.0747 24.3151 22.6296 24.4997 22.1654 24.5H5.83203C5.3679 24.5 4.92278 24.3156 4.59459 23.9874C4.26641 23.6592 4.08203 23.2141 4.08203 22.75V7C4.08203 6.53587 4.26641 6.09075 4.59459 5.76256C4.92278 5.43437 5.3679 5.25 5.83203 5.25H8.7487V6.41667H5.83203ZM18.082 6.41667H11.082V5.25H18.082V6.41667Z" fill="#1F2587"/>
<path fill-rule="evenodd" clip-rule="evenodd" d="M22.75 11.6667H5.25V10.5H22.75V11.6667Z" fill="#1F2587"/>
<path d="M8.75 4.08333C8.75 3.92862 8.81146 3.78025 8.92085 3.67085C9.03025 3.56146 9.17862 3.5 9.33333 3.5C9.48804 3.5 9.63642 3.56146 9.74581 3.67085C9.85521 3.78025 9.91667 3.92862 9.91667 4.08333V8.16667C9.91667 8.32138 9.85521 8.46975 9.74581 8.57915C9.63642 8.68854 9.48804 8.75 9.33333 8.75C9.17862 8.75 9.03025 8.68854 8.92085 8.57915C8.81146 8.46975 8.75 8.32138 8.75 8.16667V4.08333ZM18.0833 4.08333C18.0833 3.92862 18.1448 3.78025 18.2542 3.67085C18.3636 3.56146 18.512 3.5 18.6667 3.5C18.8214 3.5 18.9697 3.56146 19.0791 3.67085C19.1885 3.78025 19.25 3.92862 19.25 4.08333V8.16667C19.25 8.32138 19.1885 8.46975 19.0791 8.57915C18.9697 8.68854 18.8214 8.75 18.6667 8.75C18.512 8.75 18.3636 8.68854 18.2542 8.57915C18.1448 8.46975 18.0833 8.32138 18.0833 8.16667V4.08333Z" fill="#1F2587"/>
</svg>
