<svg width="240" height="240" viewBox="0 0 240 240" fill="none" xmlns="http://www.w3.org/2000/svg">
<path d="M222.269 154.913C228.171 145.177 232.217 134.539 233.35 123.652C236.936 89.2006 216.017 51.0829 183.072 35.9129C158.124 24.4246 128.496 23.7896 101.819 29.4051C80.6521 33.8605 55.9869 43.2718 40.359 58.8483C26.3589 72.8024 11.596 84.415 8.60367 105.479C6.07887 123.256 12.6414 142.085 25.6691 154.441C35.6642 163.921 48.8944 169.55 58.4963 179.428C67.1406 188.32 72.5766 200.387 82.8198 207.378C95.9349 216.328 113.396 214.68 128.956 211.519C149.504 207.344 169.897 201.033 187.658 189.888C200.959 181.543 213.611 169.198 222.269 154.913Z" fill="url(#paint0_linear_8_3221)"/>
<path d="M32.4482 16.7453L120.287 21.5875C122.349 21.7013 123.964 23.4067 123.964 25.4722V193.504C123.964 195.534 122.403 197.222 120.379 197.382L32.5399 204.309C30.2777 204.487 28.3438 202.699 28.3438 200.43V20.6299C28.3438 18.397 30.2186 16.6224 32.4482 16.7453Z" fill="url(#paint1_linear_8_3221)"/>
<path d="M32.5394 204.308L120.378 197.382C122.402 197.222 123.963 195.533 123.963 193.503V150.628C119.961 148.666 115.566 147.322 111.43 145.929C102.369 142.879 91.7316 137.478 83.2634 132.409C74.7953 127.34 69.1121 109.949 60.7663 99.9698C55.5223 93.6991 39.5177 90.0813 28.3438 88.2578V200.43C28.3433 202.699 30.2772 204.486 32.5394 204.308Z" fill="url(#paint2_linear_8_3221)"/>
<path d="M123.964 45.2807L104.379 44.2012C104.379 44.206 104.379 44.2103 104.379 44.2151V64.2138L97 74.6284L109.997 67.8666L123.965 69.4252V45.2807H123.964Z" fill="url(#paint3_linear_8_3221)"/>
<mask id="mask0_8_3221" style="mask-type:luminance" maskUnits="userSpaceOnUse" x="28" y="43" width="116" height="162">
<path d="M143.211 105.038C143.035 103.864 139.781 94.5712 139.781 94.5712L134.691 89.0219L128.689 93.7048L126.024 100.527L123.963 104.246V52.144C123.963 50.0786 122.349 48.3731 120.286 48.2594L32.4482 43.4172C30.2186 43.2943 28.3438 45.0688 28.3438 47.3018V200.43C28.3438 202.699 30.2777 204.487 32.5399 204.308L120.379 197.382C122.403 197.222 123.964 195.533 123.964 193.504V120.946L127.14 115.409C127.14 115.409 139.434 114.068 139.346 113.577C139.258 113.086 143.386 106.213 143.211 105.038Z" fill="white"/>
</mask>
<g mask="url(#mask0_8_3221)">
<path d="M73.6795 60.21C73.6795 60.21 69.6096 57.9276 63.8126 57.6641C58.0157 57.4006 48.1786 64.7787 46.1582 67.5012C44.1379 70.2238 44.665 75.9329 44.9285 82.3447C45.192 88.7566 44.0501 109.836 42.4694 116.16C40.8883 122.484 36.6725 144.003 35.6184 149.536C34.5643 155.069 38.7802 168.068 38.7802 168.068L60.1234 161.217L64.3392 92.5327L73.6795 60.21Z" fill="url(#paint4_linear_8_3221)"/>
</g>
<mask id="mask1_8_3221" style="mask-type:luminance" maskUnits="userSpaceOnUse" x="28" y="43" width="116" height="162">
<path d="M143.211 105.038C143.035 103.864 139.781 94.5712 139.781 94.5712L134.691 89.0219L128.689 93.7048L126.024 100.527L123.963 104.246V52.144C123.963 50.0786 122.349 48.3731 120.286 48.2594L32.4482 43.4172C30.2186 43.2943 28.3438 45.0688 28.3438 47.3018V200.43C28.3438 202.699 30.2777 204.487 32.5399 204.308L120.379 197.382C122.403 197.222 123.964 195.533 123.964 193.504V120.946L127.14 115.409C127.14 115.409 139.434 114.068 139.346 113.577C139.258 113.086 143.386 106.213 143.211 105.038Z" fill="white"/>
</mask>
<g mask="url(#mask1_8_3221)">
<path d="M83.3983 207.769L46.6836 209.35L50.3436 166.097L78.2686 166.982L83.3983 207.769Z" fill="url(#paint5_linear_8_3221)"/>
</g>
<mask id="mask2_8_3221" style="mask-type:luminance" maskUnits="userSpaceOnUse" x="28" y="43" width="116" height="162">
<path d="M143.211 105.038C143.035 103.864 139.781 94.5712 139.781 94.5712L134.691 89.0219L128.689 93.7048L126.024 100.527L123.963 104.246V52.144C123.963 50.0786 122.349 48.3731 120.286 48.2594L32.4482 43.4172C30.2186 43.2943 28.3438 45.0688 28.3438 47.3018V200.43C28.3438 202.699 30.2777 204.487 32.5399 204.308L120.379 197.382C122.403 197.222 123.964 195.533 123.964 193.504V120.946L127.14 115.409C127.14 115.409 139.434 114.068 139.346 113.577C139.258 113.086 143.386 106.213 143.211 105.038Z" fill="white"/>
</mask>
<g mask="url(#mask2_8_3221)">
<path d="M69.8432 99.9695C69.8432 99.9695 76.0477 114.668 77.3662 118.532C78.6848 122.396 79.8325 153.937 79.8325 153.937L82.1979 176.032L78.4506 185.986L67.9693 171.114L51.0469 187.626L51.4275 98.7695L69.8432 99.9695Z" fill="url(#paint6_linear_8_3221)"/>
<path d="M82.1977 130.959C81.4984 131.19 68.8456 135.629 68.8456 135.629L57.4883 135.043L57.8387 153.313L70.7204 152.566L74.2336 149.097L73.6777 152.566L81.0246 152.344L82.1977 130.959Z" fill="url(#paint7_linear_8_3221)"/>
<path d="M63.871 115.194C63.871 115.194 64.9837 131.648 64.9837 135.513C64.9837 139.377 63.7539 153.664 63.7539 153.664L67.7355 161.862L72.1856 153.196C72.1856 153.196 71.6917 139.843 71.4243 136.098C71.0729 131.179 68.3211 114.96 68.3211 114.96C68.3211 114.96 66.3013 114.053 63.871 115.194Z" fill="url(#paint8_linear_8_3221)"/>
<path d="M60.9141 106.411C61.1776 106.323 63.5507 105.885 63.5507 105.885L68.3795 106.323L68.3209 114.96C68.3209 114.96 65.3934 114.579 63.8123 115.37L60.9141 106.411Z" fill="url(#paint9_linear_8_3221)"/>
<path d="M64.6479 105.709L59.5978 113.174C59.5978 113.174 53.4495 102.459 51.4297 98.7697L54.5895 98.2432C54.5895 98.2432 60.0793 104.214 64.6479 105.709Z" fill="url(#paint10_linear_8_3221)"/>
<path d="M64.6445 105.708C64.6445 105.708 68.0847 108.694 70.7194 111.681C70.7194 111.681 70.6023 102.488 69.841 99.9695L67.9364 99.5586C67.9364 99.5586 67.5999 102.897 64.6445 105.708Z" fill="url(#paint11_linear_8_3221)"/>
</g>
<mask id="mask3_8_3221" style="mask-type:luminance" maskUnits="userSpaceOnUse" x="28" y="43" width="116" height="162">
<path d="M143.211 105.038C143.035 103.864 139.781 94.5712 139.781 94.5712L134.691 89.0219L128.689 93.7048L126.024 100.527L123.963 104.246V52.144C123.963 50.0786 122.349 48.3731 120.286 48.2594L32.4482 43.4172C30.2186 43.2943 28.3438 45.0688 28.3438 47.3018V200.43C28.3438 202.699 30.2777 204.487 32.5399 204.308L120.379 197.382C122.403 197.222 123.964 195.533 123.964 193.504V120.946L127.14 115.409C127.14 115.409 139.434 114.068 139.346 113.577C139.258 113.086 143.386 106.213 143.211 105.038Z" fill="white"/>
</mask>
<g mask="url(#mask3_8_3221)">
<path d="M68.6403 94.1133C68.1819 95.4112 67.9914 98.5653 67.9458 99.3684C67.9415 99.4908 67.9367 99.5589 67.9367 99.5589C67.6823 103.366 64.6448 105.708 64.6448 105.708C60.0752 104.301 54.5859 98.2428 54.5859 98.2428C55.9295 95.933 56.6461 93.0012 57.0003 91.0725C57.2274 89.8428 57.309 89.0215 57.309 89.0215C57.309 89.0215 69.1669 92.6205 68.6403 94.1133Z" fill="url(#paint12_linear_8_3221)"/>
<path d="M68.64 94.1128C68.1816 95.4108 67.991 98.5648 67.9454 99.3679C66.6158 100.139 65.1365 100.452 63.6797 99.6492C61.5106 98.4511 58.7424 94.0994 57 91.0725C57.227 89.8428 57.3086 89.0215 57.3086 89.0215C57.3086 89.0215 69.1666 92.62 68.64 94.1128Z" fill="url(#paint13_linear_8_3221)"/>
<path d="M77.2204 81.6221C77.2204 81.6221 78.2159 90.8352 74.9951 97.9785C74.9951 97.9785 74.5266 87.2045 73.2383 83.3985L77.2204 81.6221Z" fill="url(#paint14_linear_8_3221)"/>
<path d="M79.1819 65.2155C78.6962 64.1129 76.6908 62.4065 74.4444 61.4715C73.8362 61.2219 73.2098 61.027 72.593 60.9132C72.3813 60.8748 72.1192 60.8681 71.8255 60.884C67.5468 65.8726 57.2911 78.0881 53.4453 82.6736C53.4496 82.7604 53.4511 82.8516 53.4564 82.9366C53.5519 84.4841 53.8284 85.7273 54.3232 86.3854C56.1703 88.8449 64.6879 97.4537 66.5349 97.0995C68.3772 96.75 76.7954 91.8992 77.5984 88.0553C77.7391 87.3838 78.1428 83.0225 77.9752 80.0638C77.9479 79.5464 77.9028 79.0745 77.8346 78.6708C77.4808 76.5334 78.2388 72.7169 78.5877 71.1785C78.6784 70.7566 78.7423 70.5022 78.7423 70.5022C78.7423 70.5022 79.7944 66.6224 79.1819 65.2155Z" fill="url(#paint15_linear_8_3221)"/>
<path d="M71.5189 77.5803C71.5189 77.5803 72.8586 76.7019 74.2419 77.1632C74.2419 77.1632 72.3973 77.1632 71.4531 77.8439L71.5189 77.5803Z" fill="#00539C"/>
<path d="M63.7678 77.7216C63.7678 77.7216 65.239 76.7568 66.7587 77.2632C66.7587 77.2632 64.7326 77.2632 63.6953 78.011L63.7678 77.7216Z" fill="#00539C"/>
<path d="M74.4444 61.4715C73.8362 61.2219 73.2098 61.027 72.593 60.9132C72.3813 60.8748 72.1192 60.8681 71.8255 60.884C67.5468 65.8726 57.2911 78.0881 53.4453 82.6736C53.4496 82.7604 53.4511 82.8516 53.4564 82.9366C54.0919 82.8276 54.8992 82.5598 55.9068 82.1105C66.2714 77.4862 75.7557 65.3062 75.7557 65.3062L74.4444 61.4715Z" fill="url(#paint16_linear_8_3221)"/>
<path d="M54.5002 85.4184C54.5002 85.4184 51.0749 84.1008 50.2843 81.8175C49.4938 79.5336 49.4938 77.5138 51.5141 77.8651C53.5344 78.2165 55.4664 80.2368 55.4664 80.2368L54.5002 85.4184Z" fill="url(#paint17_linear_8_3221)"/>
<path d="M82.779 71.1921C82.7699 71.2962 82.7425 71.4191 82.7065 71.5597C81.6356 74.4186 77.9732 80.0639 77.9732 80.0639C77.9459 79.5465 77.9007 79.0746 77.8326 78.6709C77.4788 76.5383 78.2319 72.7309 78.5857 71.1877V71.1834C78.1547 67.4725 75.7542 65.3068 75.7542 65.3068L73.6758 60.2106C73.6758 60.2106 77.6871 58.9809 79.1804 60.2106C80.6732 61.4399 82.9561 69.345 82.779 71.1921Z" fill="url(#paint18_linear_8_3221)"/>
<path d="M57.8946 78.3633C57.8946 78.3633 56.2549 88.3948 58.1288 97.1102C58.1288 97.1102 51.8701 89.6678 53.4291 80.6423L57.8946 78.3633Z" fill="url(#paint19_linear_8_3221)"/>
<path d="M75.7556 65.3053C75.7556 65.3053 60.4729 80.7637 49.0547 83.9255C49.0547 83.9255 53.3584 78.4799 57.0472 71.3653C60.736 64.2508 66.7086 60.2106 70.8366 59.7714C74.9651 59.3332 75.8435 62.4949 75.7556 65.3053Z" fill="url(#paint20_linear_8_3221)"/>
<path d="M65.668 88.8535C65.668 88.8535 68.7712 90.0838 71.6445 88.987C71.6445 88.987 68.5408 93.0367 65.668 88.8535Z" fill="#DD2929"/>
<path d="M70.5747 85.8513C70.4494 85.8513 70.3477 85.75 70.3477 85.6242C70.3477 85.4989 70.4489 85.3972 70.5747 85.3972C70.9486 85.3972 71.3043 85.2124 71.5025 84.9148C71.6566 84.6834 71.6902 84.4185 71.5947 84.189C71.3811 83.6769 70.6592 83.8463 70.6289 83.8535C70.5579 83.8717 70.4825 83.853 70.4273 83.805C70.3717 83.757 70.3424 83.686 70.3491 83.613L70.4955 81.9733C70.507 81.849 70.6145 81.7569 70.7417 81.7674C70.8665 81.7785 70.9587 81.8889 70.9477 82.0137L70.8262 83.3692C71.2453 83.3505 71.7867 83.4685 72.0137 84.0138C72.1688 84.3858 72.1203 84.8058 71.8803 85.1658C71.5985 85.5892 71.0984 85.8513 70.5747 85.8513Z" fill="#FF6667"/>
<path d="M73.9965 78.444C73.972 79.1529 73.7162 79.7193 73.4253 79.7093C73.1344 79.6992 72.9184 79.1165 72.9434 78.4075C72.9678 77.6985 73.2237 77.1317 73.5146 77.1417C73.8055 77.1518 74.0214 77.7345 73.9965 78.444Z" fill="#00539C"/>
<path d="M66.4949 78.6708C66.468 79.4498 66.1867 80.0719 65.8675 80.0609C65.5478 80.0498 65.3107 79.4095 65.3381 78.6305C65.365 77.8514 65.6462 77.2293 65.9654 77.2404C66.2846 77.2514 66.5218 77.8917 66.4949 78.6708Z" fill="#00539C"/>
<path d="M71.2773 74.0593C71.2773 74.0593 73.2977 72.5953 75.4932 73.6786C75.4932 73.6786 73.7657 72.1561 71.3359 73.6786L71.2773 74.0593Z" fill="url(#paint21_linear_8_3221)"/>
</g>
<mask id="mask4_8_3221" style="mask-type:luminance" maskUnits="userSpaceOnUse" x="28" y="43" width="116" height="162">
<path d="M143.211 105.038C143.035 103.864 139.781 94.5712 139.781 94.5712L134.691 89.0219L128.689 93.7048L126.024 100.527L123.963 104.246V52.144C123.963 50.0786 122.349 48.3731 120.286 48.2594L32.4482 43.4172C30.2186 43.2943 28.3438 45.0688 28.3438 47.3018V200.43C28.3438 202.699 30.2777 204.487 32.5399 204.308L120.379 197.382C122.403 197.222 123.964 195.533 123.964 193.504V120.946L127.14 115.409C127.14 115.409 139.434 114.068 139.346 113.577C139.258 113.086 143.386 106.213 143.211 105.038Z" fill="white"/>
</mask>
<g mask="url(#mask4_8_3221)">
<path d="M114.753 144.062C114.753 144.062 120.374 143.359 116.744 129.306L112.177 123.802C112.177 123.802 109.366 131.531 108.546 134.107C107.726 136.684 108.897 143.359 114.753 144.062Z" fill="url(#paint22_linear_8_3221)"/>
<path d="M137.54 108.449C136.319 109.451 133.991 110.672 133.991 110.672C133.991 110.672 129.884 113.109 129.553 113.336C129.217 113.558 127.139 115.369 127.139 115.369C127.134 115.378 127.125 115.396 127.116 115.414C126.494 116.526 114.632 137.759 109.305 143.196L109.654 138.799L109.895 135.767C109.895 135.767 109.895 135.767 109.895 135.763L112.794 123.542C112.794 123.542 119.007 115.887 120.727 112.669C120.727 112.669 119.12 106.125 119.451 104.569C119.787 103.017 120.005 99.2455 119.233 97.3577C119.233 97.3577 121.225 97.1307 122.006 99.1323C122.777 101.129 123.227 105.122 123.227 105.122C123.227 105.122 127.329 100.244 128.436 98.7963C129.553 97.3577 130.551 94.6894 130.877 94.5852C131.213 94.4719 131.989 95.1387 131.989 95.1387C131.989 95.1387 130.659 98.6873 130.323 99.4635C129.992 100.244 127.773 104.238 127.773 104.238C127.773 104.238 132.325 100.017 133.323 98.7967C134.317 97.5761 135.764 96.1375 136.318 96.3598C136.872 96.5777 136.985 96.691 135.982 98.5788C134.984 100.462 133.432 102.572 132.878 103.348C132.347 104.093 130.895 105.549 130.777 105.671C130.999 105.594 134.575 104.323 135.542 103.57C136.536 102.79 138.868 100.797 139.422 100.797C139.975 100.797 139.871 101.351 139.204 102.458C138.537 103.57 136.095 105.567 136.095 105.567L131.989 108.117C131.989 108.117 135.542 107.563 136.318 107.232C137.094 106.896 138.868 106.124 139.313 106.342C139.759 106.566 138.756 107.45 137.54 108.449Z" fill="url(#paint23_linear_8_3221)"/>
<path opacity="0.45" d="M127.139 115.355C127.139 115.355 127.139 115.36 127.139 115.369C127.134 115.378 127.125 115.396 127.116 115.415C126.494 116.526 114.632 137.759 109.305 143.196L109.654 138.799L110.262 136.235C110.262 136.235 110.262 136.235 110.262 136.23C110.593 135.881 127.139 115.355 127.139 115.355Z" fill="url(#paint24_linear_8_3221)"/>
<path d="M114.75 144.062C114.75 144.062 114.21 144.366 113.33 144.865C109.709 146.898 100.311 152.14 99.1764 152.376C97.7743 152.666 93.2042 152.553 92.2697 152.494C91.3303 152.435 77.3647 133.287 77.3647 133.287L74.9162 114.008L74.7031 102.953C74.7031 102.953 86.2975 121.409 97.1887 138.24C97.1887 138.24 108.193 127.199 112.178 123.8C112.178 123.8 107.209 142.42 114.75 144.062Z" fill="url(#paint25_linear_8_3221)"/>
<path d="M113.332 144.866C109.711 146.898 100.312 152.14 99.1781 152.376C97.776 152.667 93.206 152.553 92.2714 152.494C91.332 152.435 77.3664 133.287 77.3664 133.287L74.918 114.008L80.1639 115.056L93.0745 140.079L90.5151 145.583L95.7836 141.367L94.7309 149.45L97.8893 141.136L106.089 142.248L108.78 139.611C108.78 139.611 109.679 143.268 113.332 144.866Z" fill="url(#paint26_linear_8_3221)"/>
</g>
<mask id="mask5_8_3221" style="mask-type:luminance" maskUnits="userSpaceOnUse" x="28" y="43" width="116" height="162">
<path d="M143.211 105.038C143.035 103.864 139.781 94.5712 139.781 94.5712L134.691 89.0219L128.689 93.7048L126.024 100.527L123.963 104.246V52.144C123.963 50.0786 122.349 48.3731 120.286 48.2594L32.4482 43.4172C30.2186 43.2943 28.3438 45.0688 28.3438 47.3018V200.43C28.3438 202.699 30.2777 204.487 32.5399 204.308L120.379 197.382C122.403 197.222 123.964 195.533 123.964 193.504V120.946L127.14 115.409C127.14 115.409 139.434 114.068 139.346 113.577C139.258 113.086 143.386 106.213 143.211 105.038Z" fill="white"/>
</mask>
<g mask="url(#mask5_8_3221)">
<path d="M79.7979 212.514C79.7979 212.514 80.9417 201.886 80.3288 193.187C79.843 186.266 77.96 163.105 77.2112 153.938C77.0206 151.582 76.9025 150.153 76.9025 150.153L77.252 141.985L76.267 132.918L73.6803 109.134L72.1875 100.789C72.1875 100.789 74.2659 101.229 76.9025 106.588C79.5344 111.943 85.1571 130.272 84.8941 131.765C84.7352 132.663 83.3691 139.933 82.303 145.583L82.0078 147.144L81.8715 147.875L81.799 148.261L81.595 149.341L81.1774 151.56L81.1184 151.873L81.0277 152.344C81.0277 152.344 83.4013 167.365 83.4013 169.739C83.4013 172.107 88.1437 211.633 88.1437 211.633L79.7979 212.514Z" fill="url(#paint27_linear_8_3221)"/>
<path d="M83.3999 130.562L82.3016 145.583L82.0064 147.144L81.8701 147.875L81.7976 148.261L81.5936 149.341L81.176 151.56L81.117 151.873L81.0263 152.344L77.2098 153.937C77.0192 151.582 76.9011 150.152 76.9011 150.152L77.2506 141.984L76.2656 132.917L83.3999 130.562Z" fill="url(#paint28_linear_8_3221)"/>
<path d="M69.8438 99.9697L72.1862 100.79L78.2366 112.383L75.3038 113.613C75.3038 113.613 80.2377 130.301 80.3255 130.828C80.4134 131.355 76.9002 150.151 76.9002 150.151C76.9002 150.151 76.1097 130.916 76.0218 128.105C75.9335 125.295 69.8438 99.9697 69.8438 99.9697Z" fill="url(#paint29_linear_8_3221)"/>
<path d="M58.1046 156.034L56.666 212.804L25.168 214.561C25.168 214.561 26.584 208.108 28.5126 199.381C32.1836 182.767 38.5403 154.295 39.6932 150.151C39.6932 150.151 36.7307 137.379 35.1745 126.624C34.6028 122.698 34.1128 119.526 33.831 118.179C32.7784 113.146 46.6825 99.21 46.6825 99.21L57.8416 114.317L58.1046 156.034Z" fill="url(#paint30_linear_8_3221)"/>
<path d="M42.3804 150.151L58.0922 154.131L57.9708 134.86L49.0557 138.24L43.1748 139.224C46.8544 133.227 48.2887 122.843 48.2887 122.843L45.3074 118.532L35.1736 126.623C36.7303 137.378 39.6924 150.151 39.6924 150.151C38.5399 154.294 32.1828 182.767 28.5117 199.381L43.9274 156.034C43.9274 156.034 42.3679 150.429 42.3804 150.151Z" fill="url(#paint31_linear_8_3221)"/>
<path d="M51.4265 98.7695L46.6836 99.2087L50.2846 113.262L55.1153 114.052L51.0751 131.97L58.1018 156.036C58.1018 156.036 60.4735 126.525 60.4735 120.991C60.4735 115.458 59.5951 113.174 59.5951 113.174C59.5951 113.174 56.5202 104.742 51.4265 98.7695Z" fill="url(#paint32_linear_8_3221)"/>
</g>
<path d="M73.4425 162.085L64.1958 184.183L62.8792 187.332L57.1734 200.968L35.5849 191.937L28.6484 189.035L39.4264 163.283L44.9176 150.151L73.4425 162.085Z" fill="url(#paint33_linear_8_3221)"/>
<path d="M62.152 189.289L61.0403 191.948C56.7611 192.66 46.1055 194.462 37.9873 195.837L32.1289 193.386L41.2321 171.636L60.4729 184.229L62.152 189.289Z" fill="url(#paint34_linear_8_3221)"/>
<path d="M67.9219 164.135L47.3281 155.518L45.4014 160.122L65.9951 168.739L67.9219 164.135Z" fill="white"/>
<path d="M47.1836 191.959C47.1836 191.959 48.794 193.364 49.7598 189.763C50.726 186.162 52.3364 177.173 50.3454 173.807C50.3454 173.807 45.9831 175.358 45.1926 178.608C44.4025 181.858 44.5196 189.061 47.1836 191.959Z" fill="url(#paint35_linear_8_3221)"/>
<path d="M63.4026 180.277C64.6324 180.803 66.0393 182.296 66.0393 182.296C66.0393 182.296 66.2164 183.879 65.9529 184.32C65.6898 184.755 65.0725 185.019 65.0725 185.019C65.0725 185.019 65.5127 185.459 65.4263 186.076C65.3356 186.688 64.6324 187.655 64.6324 187.655C64.6324 187.655 64.0199 189.411 63.5797 189.765C63.1396 190.115 62.7037 190.115 62.7037 190.115C62.7037 190.115 62.0005 191.258 61.2061 191.607C60.4165 191.961 54.6215 189.062 54.6215 189.062C54.6215 189.062 54.6215 189.062 54.6172 189.057C54.6172 189.053 54.6129 189.048 54.6081 189.039C54.3042 188.64 50.1383 183.081 50.0519 182.826C49.9655 182.563 41.7109 177.467 41.7109 177.467L50.3466 173.81C50.3466 173.81 52.425 175.534 53.5689 175.797C54.7079 176.06 59.0145 175.711 60.3306 175.797C61.6468 175.888 67.0924 176.587 68.8482 176.06C68.8482 176.06 67.1826 178.257 65.9529 178.52C64.7231 178.783 62.7901 178.96 62.5266 179.046C62.2636 179.138 62.1729 179.75 63.4026 180.277Z" fill="url(#paint36_linear_8_3221)"/>
<path d="M54.6081 189.039C54.3042 188.64 50.1383 183.081 50.0519 182.826C49.9655 182.563 41.7109 177.467 41.7109 177.467L50.3466 173.81C50.3466 173.81 50.1105 180.058 50.1561 180.585C50.2017 181.093 54.3493 188.571 54.6081 189.039Z" fill="url(#paint37_linear_8_3221)"/>
<path d="M46.6846 99.209C46.6846 99.209 42.3809 100.263 33.1294 113.965C23.8779 127.666 16.1484 144.881 16.1484 144.881C16.1484 144.881 16.3827 153.547 16.8512 156.358C17.3196 159.169 42.498 190.085 47.1824 191.959C47.1824 191.959 44.84 180.834 50.3441 173.808C50.3441 173.808 40.1556 163.853 37.2281 160.457C34.3006 157.061 31.0212 150.269 31.0212 150.269C31.0212 150.269 44.3715 130.829 46.2454 127.784C46.2454 127.784 54.619 112.559 46.6846 99.209Z" fill="url(#paint38_linear_8_3221)"/>
<path d="M117.685 184.171L90.4453 185.167V181.302L117.685 180.482V184.171Z" fill="url(#paint39_linear_8_3221)"/>
<path d="M117.684 190.326L83.957 192.427V187.951L117.684 186.637V190.326Z" fill="url(#paint40_linear_8_3221)"/>
<path d="M95.7266 162.597V158.82L117.684 158.94V162.716L95.7266 162.597Z" fill="url(#paint41_linear_8_3221)"/>
<path d="M117.684 165.196L107.301 165.364V169.14L117.684 168.973V165.196Z" fill="url(#paint42_linear_8_3221)"/>
<path d="M156.544 38.8659V63.0271C156.544 64.6961 155.188 66.0526 153.518 66.0526H109.494L94.5547 73.8247L103.036 61.8535V38.8659C103.036 37.1964 104.387 35.8457 106.056 35.8457H153.518C155.188 35.8457 156.544 37.1969 156.544 38.8659Z" fill="url(#paint43_linear_8_3221)"/>
<path opacity="0.91" d="M153.517 35.8457C153.517 35.8457 106.973 37.0769 105.356 37.8852C103.739 38.6935 103.035 61.8535 103.035 61.8535V38.8659C103.035 37.1964 104.386 35.8457 106.055 35.8457H153.517Z" fill="url(#paint44_linear_8_3221)"/>
<path d="M116.058 47.0067C111.996 42.4198 108.439 46.1019 109.044 49.7465C109.65 53.3912 116.058 57.8173 116.058 57.8173C116.058 57.8173 122.466 53.3917 123.072 49.7465C123.677 46.1014 120.12 42.4193 116.058 47.0067Z" fill="url(#paint45_linear_8_3221)"/>
<path d="M115.805 53.4384C115.706 53.4384 115.613 53.388 115.559 53.3045L114.07 51.0077L113.579 51.7646C113.525 51.8481 113.432 51.8985 113.333 51.8985H107.719C107.557 51.8985 107.426 51.7675 107.426 51.6053C107.426 51.443 107.557 51.312 107.719 51.312H113.174L113.824 50.3093C113.878 50.2257 113.971 50.1753 114.07 50.1753C114.169 50.1753 114.262 50.2257 114.316 50.3093L115.805 52.6061L117.719 49.6526C117.827 49.4856 118.103 49.4856 118.211 49.6526L119.218 51.2064H123.84C124.002 51.2064 124.133 51.3374 124.133 51.4997C124.133 51.6619 124.002 51.7929 123.84 51.7929H119.059C118.959 51.7929 118.867 51.7425 118.812 51.659L117.965 50.351L116.05 53.3045C115.998 53.388 115.905 53.4384 115.805 53.4384Z" fill="white"/>
<path d="M149.146 45.5234H129.621V48.8887H149.146V45.5234Z" fill="url(#paint46_linear_8_3221)"/>
<path d="M143.419 49.7998H129.621V53.1651H143.419V49.7998Z" fill="url(#paint47_linear_8_3221)"/>
<path d="M147.525 54.0762H129.621V57.4414H147.525V54.0762Z" fill="url(#paint48_linear_8_3221)"/>
<path d="M25.0762 36.4873C28.0307 36.4873 30.4258 33.6998 30.4258 30.2612C30.4258 26.8227 28.0307 24.0352 25.0762 24.0352C22.1217 24.0352 19.7266 26.8227 19.7266 30.2612C19.7266 33.6998 22.1217 36.4873 25.0762 36.4873Z" fill="url(#paint49_linear_8_3221)"/>
<path d="M58.3875 29.3443V32.9395L37.8555 31.9267V27.9307L58.3875 29.3443Z" fill="url(#paint50_linear_8_3221)"/>
<path d="M58.3875 40.1277V43.7224L37.8555 43.9115V39.916L58.3875 40.1277Z" fill="url(#paint51_linear_8_3221)"/>
<path d="M23.546 46.6128C23.2566 46.6191 22.9676 46.512 22.7458 46.2908L19.1492 42.6999C18.6898 42.242 18.6898 41.4965 19.1492 41.0386C19.6066 40.5826 20.3434 40.5874 20.7956 41.0458L23.5455 43.8322L29.5388 37.6594C29.9545 37.2312 30.6246 37.2466 31.0364 37.6901C31.4463 38.1317 31.4463 38.8344 31.0364 39.2631L24.3399 46.26C24.1215 46.4885 23.8345 46.6071 23.546 46.6128Z" fill="url(#paint52_linear_8_3221)"/>
<path d="M23.546 33.7899C23.2566 33.7788 22.9676 33.6555 22.7458 33.4212L19.1492 29.6201C18.6898 29.1353 18.6898 28.3899 19.1492 27.9588C19.6066 27.5297 20.3434 27.5777 20.7956 28.0625L23.5455 31.0097L29.5388 25.1878C29.9545 24.7841 30.6246 24.8384 31.0364 25.3064C31.4463 25.772 31.4463 26.4747 31.0364 26.8793L24.3399 33.4836C24.1215 33.6992 23.8345 33.8004 23.546 33.7899Z" fill="url(#paint53_linear_8_3221)"/>
<path d="M58.3875 51.1123V54.707L37.8555 56.1206V52.1251L58.3875 51.1123Z" fill="url(#paint54_linear_8_3221)"/>
<path d="M23.546 59.674C23.2566 59.6975 22.9676 59.6078 22.7458 59.3999L19.1492 56.0241C18.6898 55.5935 18.6898 54.8481 19.1492 54.3628C19.6066 53.8794 20.3434 53.8406 20.7956 54.2721L23.5455 56.8938L29.5388 50.3639C29.9545 49.9108 30.6246 49.8863 31.0364 50.3054C31.4463 50.723 31.4463 51.4252 31.0364 51.8783L24.3399 59.2737C24.1215 59.5156 23.8345 59.6505 23.546 59.674Z" fill="url(#paint55_linear_8_3221)"/>
<path d="M113.959 84.2889C113.959 84.2889 109.278 82.7337 105.754 82.3075C102.058 81.8601 96.5462 82.3027 96.5462 82.3027C96.5462 85.728 94.0214 88.416 90.5625 88.5446V104.81C90.5625 109.363 94.2791 118.279 105.754 118.774C115.712 115.934 118.396 107.883 118.396 104.094V90.5577C115.906 90.0499 113.959 87.3417 113.959 84.2889Z" fill="url(#paint56_linear_8_3221)"/>
<path d="M112.743 100.541C112.743 105.29 109.348 109.345 104.931 109.61C100.239 109.892 96.2148 105.839 96.2148 100.541C96.2148 95.2418 100.239 91.1882 104.931 91.471C109.348 91.7364 112.743 95.791 112.743 100.541Z" fill="url(#paint57_linear_8_3221)"/>
<path d="M105.249 105.61C104.88 105.656 104.51 105.543 104.224 105.26L99.4393 100.513C98.8067 99.8865 98.8067 98.8012 99.4393 98.1047C100.064 97.4164 101.061 97.3804 101.667 98.0092L105.249 101.729L112.51 92.9922C112.988 92.4172 113.752 92.4277 114.217 93.0047C114.677 93.5759 114.677 94.4956 114.217 95.0706L106.253 105.022C105.978 105.366 105.615 105.566 105.249 105.61Z" fill="url(#paint58_linear_8_3221)"/>
<mask id="mask6_8_3221" style="mask-type:luminance" maskUnits="userSpaceOnUse" x="0" y="0" width="240" height="240">
<path d="M240 0H0V240H240V0Z" fill="white"/>
</mask>
<g mask="url(#mask6_8_3221)">
<path d="M200.658 172.392V240.164H196.067L175.419 240.866L171.324 202.079C169.418 211.9 167.803 240.966 167.803 240.966L162.498 240.767L142.641 240.966L149.678 185.057L150.418 180.365L156.326 178.972L170.294 175.673V174.811L193.982 163.498L200.363 172.002L200.658 172.392Z" fill="url(#paint59_linear_8_3221)"/>
<path d="M170.033 182.181C166.371 184.091 153.496 184.867 149.68 185.058L150.419 180.366L156.328 178.973L170.033 182.181Z" fill="url(#paint60_linear_8_3221)"/>
<path d="M200.658 172.392V240.163H196.067C196.848 232.571 198.607 205.369 198.607 205.369L195.816 178.432C195.816 178.432 198.022 178.786 199.66 177.379L198.725 176.444L200.363 172.002L200.658 172.392Z" fill="url(#paint61_linear_8_3221)"/>
<path d="M171.322 202.079C169.416 211.9 168.034 241.575 168.034 241.575L162.102 241.251L167.923 200.686L168.74 187.921L171.322 202.079Z" fill="url(#paint62_linear_8_3221)"/>
<path d="M203.097 113.528L201.772 140.489L202.589 169.064C202.589 169.064 199.194 167.894 195.8 167.894C195.569 167.894 195.328 167.907 195.074 167.934C191.661 168.28 186.778 170.821 186.778 170.821C186.778 170.821 172.493 182.066 170.033 182.179C167.573 182.297 146.844 182.765 146.844 182.765L152.28 157.148L155.979 139.709V96.5757L162.722 94.1335L171.149 91.0793L172.143 90.7207L173.772 90.7524L174.358 90.7658L188.271 91.0428L203.995 95.1679L203.097 113.528Z" fill="url(#paint63_linear_8_3221)"/>
<path d="M177.077 115.684L173.632 116.111L164.647 127.964L152.281 157.148L155.98 139.708V118.68L163.127 106.772H164.302L162.723 94.1333L162.601 93.1575C162.533 92.6084 162.923 92.1048 163.472 92.0367L171.15 91.0791L173.773 90.7522L173.964 90.7297C174.1 90.7114 174.236 90.7248 174.359 90.7661C174.736 90.866 175.035 91.188 175.085 91.6013L177.949 114.564C178.016 115.113 177.626 115.612 177.077 115.684Z" fill="url(#paint64_linear_8_3221)"/>
<path d="M201.771 140.489L202.588 169.064C202.588 169.064 199.194 167.894 195.8 167.894C195.568 167.894 195.328 167.907 195.073 167.935L195.818 156.649L198.241 152.914L195.949 153.354C195.949 153.354 194.86 136.632 194.466 135.928C194.066 135.225 195.949 112.83 195.949 112.83L203.097 113.529L201.771 140.489Z" fill="url(#paint65_linear_8_3221)"/>
<path d="M225.335 146.289C225.335 146.625 225.312 146.96 225.262 147.296C224.872 150.174 222.966 152.788 222.966 152.788C222.966 152.788 207.038 170.472 198.724 176.444C198.724 176.444 196.641 175.722 194.34 172.541C193.591 171.511 192.824 170.218 192.094 168.606C192.094 168.606 199.318 160.27 202.24 156.998C205.163 153.722 210.386 146.933 210.386 146.933L206.688 140.054C206.688 140.054 212.097 129.952 221.395 132.471C221.395 132.471 225.335 145.69 225.335 146.289Z" fill="url(#paint66_linear_8_3221)"/>
<path opacity="0.5" d="M225.262 147.296C224.872 150.173 222.966 152.787 222.966 152.787C222.966 152.787 207.037 170.472 198.724 176.443C198.724 176.443 196.641 175.722 194.34 172.541L199.159 173.435L221.395 152.442C221.395 152.442 222.525 149.456 223.664 148.313C224.041 147.936 224.631 147.591 225.262 147.296Z" fill="url(#paint67_linear_8_3221)"/>
<path d="M203.992 95.1689C203.992 95.1689 209.379 100.91 211.604 104.656C213.828 108.403 221.394 132.469 221.394 132.469C221.394 132.469 211.205 134.343 206.685 140.052L197.141 122.474C197.141 122.474 195.103 110.261 196.076 106.939C197.061 103.573 203.992 95.1689 203.992 95.1689Z" fill="url(#paint68_linear_8_3221)"/>
<path d="M164.422 52.29C164.422 52.29 163.861 64.0083 166.102 68.5654L170.253 54.1942L164.422 52.29Z" fill="url(#paint69_linear_8_3221)"/>
<path d="M193.821 53.5215C193.821 53.5215 196.341 53.8013 198.525 56.8258C200.709 59.8503 198.805 69.818 196.173 75.0821C193.541 80.3463 184.973 84.2664 184.973 84.2664V78.3581L187.549 65.8272L193.821 53.5215Z" fill="url(#paint70_linear_8_3221)"/>
<path d="M188.272 91.0427C188.272 91.0427 184.85 99.6467 182.432 100.79C181.161 101.393 178.679 101.652 176.315 101.462C174.2 101.289 172.176 100.754 171.205 99.7782C169.848 98.4078 170.293 94.9317 170.747 92.7486C170.901 91.9864 171.06 91.3825 171.142 91.0787C171.182 90.9424 171.205 90.8656 171.205 90.8656L172.376 82.1118L182.777 79.2889L185.2 78.6309C185.191 79.4704 185.228 80.2825 185.3 81.063C185.305 81.1129 185.309 81.1629 185.314 81.2128C185.867 87.0496 188.272 91.0427 188.272 91.0427Z" fill="url(#paint71_linear_8_3221)"/>
<path d="M185.3 81.0636L182.777 79.2891L172.376 82.1119L171.205 90.8657C171.205 90.8657 171.182 90.9459 171.145 91.0783L171.142 91.0788C171.06 91.3827 170.901 91.9865 170.747 92.7487C170.293 94.9318 169.848 98.4075 171.205 99.7783C172.176 100.754 174.2 101.289 176.315 101.462L175.105 91.7633C179.375 89.6407 184.665 82.1479 185.313 81.2134C185.359 81.15 185.381 81.1179 185.381 81.1179L185.3 81.0636Z" fill="url(#paint72_linear_8_3221)"/>
<path d="M190.504 68.1361C190.504 68.1361 192.441 65.5734 194.441 66.9486C196.442 68.3238 195.504 73.5111 189.004 75.6985L190.504 68.1361Z" fill="url(#paint73_linear_8_3221)"/>
<path d="M166.831 57.9149C166.831 57.9149 165.235 68.0276 165.235 68.4351C165.235 68.8431 163.219 75.2041 163.219 75.2041C163.219 75.2041 163.555 78.7109 165.025 81.2391C166.495 83.7673 169.603 86.9477 170.611 87.5185C171.619 88.0892 180.02 86.4116 184.304 82.1535C188.588 77.8954 189.764 75.7748 190.772 70.5557C191.78 65.3362 192.368 58.8121 190.856 56.6103C189.344 54.4085 176.323 50.4125 172.459 51.4724C168.595 52.5322 167.424 54.1273 166.831 57.9149Z" fill="url(#paint74_linear_8_3221)"/>
<path d="M170.877 81.2958C169.088 81.2958 167.951 80.4789 167.931 80.4645C167.835 80.3934 167.815 80.2576 167.886 80.1616C167.957 80.0656 168.094 80.0449 168.189 80.1155C168.307 80.2029 171.14 82.2169 174.986 79.3326C175.082 79.2606 175.218 79.2798 175.29 79.3758C175.362 79.4718 175.343 79.6077 175.247 79.6797C173.589 80.9233 172.084 81.2958 170.877 81.2958Z" fill="#DD2929"/>
<path d="M170.062 76.6995C170.04 76.6995 170.017 76.6961 169.995 76.6889C169.96 76.6774 169.128 76.4024 168.882 75.8019C168.771 75.5317 168.793 75.2465 168.945 74.9537C169.132 74.5961 169.384 74.3705 169.694 74.2827C169.906 74.2232 170.107 74.2409 170.265 74.2789V72.7443C170.265 72.6243 170.362 72.5273 170.482 72.5273C170.602 72.5273 170.699 72.6243 170.699 72.7443V74.5923C170.699 74.6705 170.657 74.7425 170.589 74.7809C170.522 74.8193 170.438 74.8184 170.37 74.7781C170.368 74.7771 170.093 74.6201 169.809 74.7013C169.619 74.756 169.459 74.9081 169.33 75.1544C169.238 75.3305 169.223 75.488 169.283 75.6363C169.423 75.9795 169.941 76.2137 170.129 76.2752C170.243 76.3126 170.305 76.435 170.268 76.5488C170.238 76.6409 170.153 76.6995 170.062 76.6995Z" fill="#FF6667"/>
<path d="M178.975 68.6456C178.875 69.7895 178.386 70.6808 177.883 70.6367C177.38 70.5925 177.055 69.6296 177.155 68.4858C177.255 67.3419 177.744 66.4506 178.247 66.4947C178.749 66.5384 179.075 67.5018 178.975 68.6456Z" fill="#00539C"/>
<path d="M170.066 67.4854C169.976 68.5063 169.54 69.3017 169.092 69.2623C168.643 69.223 168.353 68.3633 168.442 67.3428C168.532 66.3223 168.968 65.5265 169.416 65.5659C169.865 65.6052 170.156 66.4649 170.066 67.4854Z" fill="#00539C"/>
<path d="M176.488 66.402C176.488 66.402 179.303 66.15 182.137 67.3471L182.327 67.7042C182.327 67.7042 179.197 66.4231 176.488 66.654V66.402Z" fill="#00539C"/>
<path d="M168.656 65.6251C168.656 65.6251 170.189 65.436 171.848 66.2554L171.785 66.0034C171.785 66.0034 170.378 65.2262 168.677 65.4365L168.656 65.6251Z" fill="#00539C"/>
<path d="M177.958 61.2571C177.958 61.2571 180.96 61.0262 182.976 62.1811C182.976 62.1811 179.427 61.1942 177.621 61.656L177.958 61.2571Z" fill="#00539C"/>
<path d="M172.122 60.7199C172.122 60.7199 169.478 60.3369 167.625 61.1097C167.625 61.1097 170.825 60.5716 172.395 61.0559L172.122 60.7199Z" fill="#00539C"/>
<path d="M193.822 53.522C189.229 42.77 177.077 42.9937 171.869 44.7298C166.661 46.466 160.725 44.8417 160.725 44.8417C159.213 53.4658 166.493 56.042 172.765 56.3218C179.038 56.6017 189.342 60.4657 189.342 60.4657C189.342 60.4657 189.667 61.7674 190.046 63.2434C189.909 65.7212 189.613 70.4362 189.286 71.498C189.286 71.498 191.265 68.7562 192.207 65.3996L192.207 65.3986C194.086 60.5453 193.822 53.522 193.822 53.522Z" fill="url(#paint75_linear_8_3221)"/>
<path d="M157.246 101.718C157.246 101.718 158.602 96.5723 158.736 94.9955C158.87 93.4187 159.027 92.9229 159.027 92.9229C159.027 92.9229 159.934 94.8798 160.112 95.7318C160.29 96.5838 159.508 100.554 159.508 100.554L157.246 101.718Z" fill="url(#paint76_linear_8_3221)"/>
<path d="M151.648 130.388C151.648 130.388 146.814 146.675 145.843 148.545C145.838 148.549 145.791 146.931 145.791 146.931C144.824 148.773 141.663 153.546 139.993 152.843C138.323 152.14 133.844 147.924 133.935 146.957C134.021 145.991 134.135 142.657 134.666 140.724C135.192 138.791 140.638 124.562 140.638 124.562L144.973 125.559L147.206 127.175L151.648 130.388Z" fill="url(#paint77_linear_8_3221)"/>
<path d="M155.978 96.5742C155.978 96.5742 146.27 110.977 140.637 124.563C140.637 124.563 147.312 127.842 151.645 132.059L160.194 110.833L155.978 96.5742Z" fill="url(#paint78_linear_8_3221)"/>
<path d="M172.807 111.465L162.317 112.774C161.767 112.843 161.266 112.452 161.197 111.902L158.332 88.9405C158.263 88.3905 158.654 87.8889 159.204 87.8207L169.694 86.5117C170.244 86.4431 170.745 86.8333 170.814 87.3834L173.679 110.345C173.748 110.895 173.357 111.396 172.807 111.465Z" fill="url(#paint79_linear_8_3221)"/>
<path d="M175.243 99.7328C174.716 100.141 173.486 99.6148 173.137 99.6738C172.783 99.7328 169.856 99.7328 169.507 99.969C169.153 100.2 164.706 103.014 164.706 103.014C164.706 103.014 169.33 102.311 169.915 102.311C170.501 102.311 175.13 103.6 175.13 103.6C175.13 103.6 174.131 104.535 173.723 104.535C173.314 104.535 170.678 104.303 169.974 104.476C169.271 104.653 164.824 106.35 164.824 106.35C164.824 106.35 168.041 107.112 168.219 107.171C168.396 107.23 172.085 107.112 172.085 107.112C172.085 107.112 173.605 107.521 173.546 107.698C173.487 107.875 173.256 108.46 172.67 108.692C172.084 108.928 169.094 108.519 168.454 108.692C167.81 108.869 165.468 110.157 165.468 110.157L163.449 113.452L162.128 116.661C162.128 116.661 157.186 128.396 155.253 132.848C154.999 133.433 154.795 133.891 154.663 134.182C153.543 136.641 147.992 145.622 147.82 145.904C147.816 145.908 147.816 145.908 147.816 145.908C146.849 147.75 141.667 153.55 139.997 152.846C139.348 152.574 138.272 151.771 137.211 150.831C135.536 149.356 133.884 147.55 133.939 146.961C133.939 146.961 134.991 141.134 138.155 136.891C140.732 133.424 146.641 126.885 149.786 123.018C150.489 122.147 151.061 121.412 151.415 120.876C153.348 117.977 155.631 113.674 155.808 113.452C155.985 113.234 156.334 105.593 156.684 104.009C157.037 102.429 157.741 99.8836 157.741 99.8836C157.741 99.8836 158.222 99.5207 158.862 99.0666C159.502 98.6125 160.305 98.0725 160.949 97.7231C160.949 97.7231 165.583 94.6962 165.759 94.6962C165.937 94.6962 172.376 94.4648 172.376 94.4648C172.376 94.4648 172.026 95.109 171.382 95.3994C170.738 95.6946 167.048 96.2207 166.345 96.6882C165.642 97.1557 163.536 99.0296 163.536 99.0296L167.398 97.918L172.027 97.5685L174.836 98.4445C174.834 98.444 175.769 99.3244 175.243 99.7328Z" fill="url(#paint80_linear_8_3221)"/>
<path opacity="0.5" d="M159.376 120.295C159.376 120.295 157.484 126.231 155.251 132.847C154.997 133.433 154.793 133.89 154.661 134.181C153.541 136.641 147.99 145.622 147.818 145.903C147.814 145.907 147.814 145.907 147.814 145.907C146.847 147.749 141.665 153.549 139.995 152.846C139.346 152.573 138.27 151.77 137.209 150.831C137.013 149.741 136.863 147.894 137.68 146.556C138.91 144.536 144.093 142.34 146.375 139.617C148.657 136.895 159.376 120.295 159.376 120.295Z" fill="url(#paint81_linear_8_3221)"/>
</g>
<defs>
<linearGradient id="paint0_linear_8_3221" x1="59.0896" y1="181.062" x2="215.802" y2="24.349" gradientUnits="userSpaceOnUse">
<stop offset="0.2485" stop-color="#646CD9"/>
<stop offset="0.9685" stop-color="#8A4BCC"/>
</linearGradient>
<linearGradient id="paint1_linear_8_3221" x1="50.7632" y1="17.3332" x2="101.427" y2="208.131" gradientUnits="userSpaceOnUse">
<stop stop-color="#7BC6FF"/>
<stop offset="0.992" stop-color="#7691FF"/>
</linearGradient>
<linearGradient id="paint2_linear_8_3221" x1="57.9972" y1="188.926" x2="77.4373" y2="137.866" gradientUnits="userSpaceOnUse">
<stop stop-color="#7BC6FF" stop-opacity="0"/>
<stop offset="1" stop-color="#7691FF"/>
</linearGradient>
<linearGradient id="paint3_linear_8_3221" x1="98.2051" y1="71.9558" x2="115.94" y2="55.1363" gradientUnits="userSpaceOnUse">
<stop stop-color="#7BC6FF" stop-opacity="0"/>
<stop offset="1" stop-color="#7691FF"/>
</linearGradient>
<linearGradient id="paint4_linear_8_3221" x1="59.3381" y1="58.4816" x2="53.0142" y2="120.842" gradientUnits="userSpaceOnUse">
<stop stop-color="#432B99"/>
<stop offset="1" stop-color="#090051"/>
</linearGradient>
<linearGradient id="paint5_linear_8_3221" x1="65.0515" y1="208.717" x2="62.7679" y2="174.463" gradientUnits="userSpaceOnUse">
<stop stop-color="#3C3D42"/>
<stop offset="1" stop-color="#2B2934"/>
</linearGradient>
<linearGradient id="paint6_linear_8_3221" x1="66.7052" y1="183" x2="60.7327" y2="98.3302" gradientUnits="userSpaceOnUse">
<stop stop-color="#CB2371"/>
<stop offset="1" stop-color="#57236B"/>
</linearGradient>
<linearGradient id="paint7_linear_8_3221" x1="67.7964" y1="151.611" x2="71.4268" y2="131.937" gradientUnits="userSpaceOnUse">
<stop stop-color="#57236B" stop-opacity="0"/>
<stop offset="1" stop-color="#57236B"/>
</linearGradient>
<linearGradient id="paint8_linear_8_3221" x1="72.4734" y1="163.859" x2="61.7525" y2="114.64" gradientUnits="userSpaceOnUse">
<stop stop-color="#FFE8A0"/>
<stop offset="1" stop-color="#E0B06C"/>
</linearGradient>
<linearGradient id="paint9_linear_8_3221" x1="66.7345" y1="115.952" x2="64.4473" y2="105.452" gradientUnits="userSpaceOnUse">
<stop stop-color="#FFE8A0"/>
<stop offset="1" stop-color="#E0B06C"/>
</linearGradient>
<linearGradient id="paint10_linear_8_3221" x1="60.7193" y1="111.648" x2="56.4155" y2="96.5413" gradientUnits="userSpaceOnUse">
<stop stop-color="#CB2371"/>
<stop offset="1" stop-color="#57236B"/>
</linearGradient>
<linearGradient id="paint11_linear_8_3221" x1="69.5887" y1="111.072" x2="66.2667" y2="99.411" gradientUnits="userSpaceOnUse">
<stop stop-color="#CB2371"/>
<stop offset="1" stop-color="#57236B"/>
</linearGradient>
<linearGradient id="paint12_linear_8_3221" x1="54.5863" y1="97.3653" x2="68.6575" y2="97.3653" gradientUnits="userSpaceOnUse">
<stop stop-color="#FFDADB"/>
<stop offset="1" stop-color="#FFB8B9"/>
</linearGradient>
<linearGradient id="paint13_linear_8_3221" x1="59.6465" y1="87.8792" x2="67.1561" y2="99.0778" gradientUnits="userSpaceOnUse">
<stop stop-color="#FF6667"/>
<stop offset="1" stop-color="#FF6667" stop-opacity="0"/>
</linearGradient>
<linearGradient id="paint14_linear_8_3221" x1="73.2389" y1="89.8002" x2="77.3658" y2="89.8002" gradientUnits="userSpaceOnUse">
<stop stop-color="#432B99"/>
<stop offset="1" stop-color="#090051"/>
</linearGradient>
<linearGradient id="paint15_linear_8_3221" x1="53.4451" y1="78.9929" x2="79.3736" y2="78.9929" gradientUnits="userSpaceOnUse">
<stop stop-color="#FFDADB"/>
<stop offset="1" stop-color="#FFB8B9"/>
</linearGradient>
<linearGradient id="paint16_linear_8_3221" x1="70.1916" y1="61.9077" x2="60.0031" y2="83.9241" gradientUnits="userSpaceOnUse">
<stop stop-color="#FF6667"/>
<stop offset="1" stop-color="#FF6667" stop-opacity="0"/>
</linearGradient>
<linearGradient id="paint17_linear_8_3221" x1="49.7928" y1="81.6219" x2="55.4663" y2="81.6219" gradientUnits="userSpaceOnUse">
<stop stop-color="#FFDADB"/>
<stop offset="1" stop-color="#FFB8B9"/>
</linearGradient>
<linearGradient id="paint18_linear_8_3221" x1="73.6759" y1="69.8636" x2="82.7888" y2="69.8636" gradientUnits="userSpaceOnUse">
<stop stop-color="#432B99"/>
<stop offset="1" stop-color="#090051"/>
</linearGradient>
<linearGradient id="paint19_linear_8_3221" x1="53.1797" y1="87.7365" x2="58.1289" y2="87.7365" gradientUnits="userSpaceOnUse">
<stop stop-color="#432B99"/>
<stop offset="1" stop-color="#090051"/>
</linearGradient>
<linearGradient id="paint20_linear_8_3221" x1="49.0546" y1="71.8283" x2="75.7613" y2="71.8283" gradientUnits="userSpaceOnUse">
<stop stop-color="#432B99"/>
<stop offset="1" stop-color="#090051"/>
</linearGradient>
<linearGradient id="paint21_linear_8_3221" x1="71.2776" y1="73.5306" x2="75.4935" y2="73.5306" gradientUnits="userSpaceOnUse">
<stop stop-color="#432B99"/>
<stop offset="1" stop-color="#090051"/>
</linearGradient>
<linearGradient id="paint22_linear_8_3221" x1="111.601" y1="131.227" x2="116.52" y2="143.406" gradientUnits="userSpaceOnUse">
<stop stop-color="#B8BED6"/>
<stop offset="1" stop-color="#E6EBF2"/>
</linearGradient>
<linearGradient id="paint23_linear_8_3221" x1="135.246" y1="92.1657" x2="109.728" y2="134.477" gradientUnits="userSpaceOnUse">
<stop stop-color="#FFDADB"/>
<stop offset="1" stop-color="#FFB8B9"/>
</linearGradient>
<linearGradient id="paint24_linear_8_3221" x1="127.62" y1="113.288" x2="114.548" y2="133.018" gradientUnits="userSpaceOnUse">
<stop stop-color="#FF6667"/>
<stop offset="1" stop-color="#FF6667" stop-opacity="0"/>
</linearGradient>
<linearGradient id="paint25_linear_8_3221" x1="101.726" y1="155.051" x2="89.3122" y2="107.737" gradientUnits="userSpaceOnUse">
<stop stop-color="#C5CBE5"/>
<stop offset="1" stop-color="#E3EAF5"/>
</linearGradient>
<linearGradient id="paint26_linear_8_3221" x1="73.5717" y1="119.626" x2="99.8041" y2="145.39" gradientUnits="userSpaceOnUse">
<stop stop-color="#A1A7C4"/>
<stop offset="1" stop-color="#A1A7C4" stop-opacity="0"/>
</linearGradient>
<linearGradient id="paint27_linear_8_3221" x1="85.5064" y1="201.299" x2="74.0882" y2="95.3732" gradientUnits="userSpaceOnUse">
<stop stop-color="#C5CBE5"/>
<stop offset="1" stop-color="#E3EAF5"/>
</linearGradient>
<linearGradient id="paint28_linear_8_3221" x1="78.5059" y1="129.047" x2="81.308" y2="149.611" gradientUnits="userSpaceOnUse">
<stop stop-color="#A1A7C4"/>
<stop offset="1" stop-color="#A1A7C4" stop-opacity="0"/>
</linearGradient>
<linearGradient id="paint29_linear_8_3221" x1="73.7575" y1="99.7672" x2="77.3586" y2="142.19" gradientUnits="userSpaceOnUse">
<stop stop-color="#C5CBE5"/>
<stop offset="1" stop-color="#E3EAF5"/>
</linearGradient>
<linearGradient id="paint30_linear_8_3221" x1="40.7472" y1="215.805" x2="50.0433" y2="99.4783" gradientUnits="userSpaceOnUse">
<stop stop-color="#C5CBE5"/>
<stop offset="1" stop-color="#E3EAF5"/>
</linearGradient>
<linearGradient id="paint31_linear_8_3221" x1="35.7608" y1="112.223" x2="45.5308" y2="183.923" gradientUnits="userSpaceOnUse">
<stop stop-color="#A1A7C4"/>
<stop offset="1" stop-color="#A1A7C4" stop-opacity="0"/>
</linearGradient>
<linearGradient id="paint32_linear_8_3221" x1="51.3955" y1="92.9117" x2="58.6562" y2="146.196" gradientUnits="userSpaceOnUse">
<stop stop-color="#C5CBE5"/>
<stop offset="1" stop-color="#E3EAF5"/>
</linearGradient>
<linearGradient id="paint33_linear_8_3221" x1="49.5955" y1="150.83" x2="52.5211" y2="200.728" gradientUnits="userSpaceOnUse">
<stop stop-color="#432B99"/>
<stop offset="1" stop-color="#090051"/>
</linearGradient>
<linearGradient id="paint34_linear_8_3221" x1="41.8067" y1="195.106" x2="50.8534" y2="182.195" gradientUnits="userSpaceOnUse">
<stop stop-color="#090051" stop-opacity="0"/>
<stop offset="1" stop-color="#090051"/>
</linearGradient>
<linearGradient id="paint35_linear_8_3221" x1="48.156" y1="182.475" x2="48.8586" y2="190.907" gradientUnits="userSpaceOnUse">
<stop stop-color="#B8BED6"/>
<stop offset="1" stop-color="#E6EBF2"/>
</linearGradient>
<linearGradient id="paint36_linear_8_3221" x1="69.3535" y1="185.267" x2="43.6221" y2="177.276" gradientUnits="userSpaceOnUse">
<stop stop-color="#FFDADB"/>
<stop offset="1" stop-color="#FFB8B9"/>
</linearGradient>
<linearGradient id="paint37_linear_8_3221" x1="53.5186" y1="175.164" x2="49.429" y2="181.337" gradientUnits="userSpaceOnUse">
<stop stop-color="#FF6667"/>
<stop offset="1" stop-color="#FF6667" stop-opacity="0"/>
</linearGradient>
<linearGradient id="paint38_linear_8_3221" x1="32.364" y1="178.197" x2="36.2287" y2="95.6356" gradientUnits="userSpaceOnUse">
<stop stop-color="#C5CBE5"/>
<stop offset="1" stop-color="#E3EAF5"/>
</linearGradient>
<linearGradient id="paint39_linear_8_3221" x1="106.772" y1="173.909" x2="98.6919" y2="200.258" gradientUnits="userSpaceOnUse">
<stop stop-color="#DBF0FF"/>
<stop offset="1" stop-color="#DBF0FF" stop-opacity="0"/>
</linearGradient>
<linearGradient id="paint40_linear_8_3221" x1="105.601" y1="173.55" x2="97.5206" y2="199.9" gradientUnits="userSpaceOnUse">
<stop stop-color="#DBF0FF"/>
<stop offset="1" stop-color="#DBF0FF" stop-opacity="0"/>
</linearGradient>
<linearGradient id="paint41_linear_8_3221" x1="108.329" y1="157.596" x2="99.9656" y2="173.938" gradientUnits="userSpaceOnUse">
<stop stop-color="#DBF0FF"/>
<stop offset="1" stop-color="#DBF0FF" stop-opacity="0"/>
</linearGradient>
<linearGradient id="paint42_linear_8_3221" x1="118.056" y1="156.298" x2="109.66" y2="172.703" gradientUnits="userSpaceOnUse">
<stop stop-color="#DBF0FF"/>
<stop offset="1" stop-color="#DBF0FF" stop-opacity="0"/>
</linearGradient>
<linearGradient id="paint43_linear_8_3221" x1="123.41" y1="78.092" x2="136.871" y2="18.3278" gradientUnits="userSpaceOnUse">
<stop stop-color="#F9F9F9"/>
<stop offset="1" stop-color="#B7D0EE"/>
</linearGradient>
<linearGradient id="paint44_linear_8_3221" x1="110.694" y1="58.0125" x2="124.425" y2="41.4553" gradientUnits="userSpaceOnUse">
<stop stop-color="white" stop-opacity="0"/>
<stop offset="1" stop-color="white"/>
</linearGradient>
<linearGradient id="paint45_linear_8_3221" x1="116.058" y1="48.4916" x2="116.058" y2="61.6174" gradientUnits="userSpaceOnUse">
<stop stop-color="#CB2371"/>
<stop offset="1" stop-color="#57236B"/>
</linearGradient>
<linearGradient id="paint46_linear_8_3221" x1="138.844" y1="43.4634" x2="140.863" y2="57.4629" gradientUnits="userSpaceOnUse">
<stop stop-color="#7BC6FF"/>
<stop offset="1" stop-color="#7691FF"/>
</linearGradient>
<linearGradient id="paint47_linear_8_3221" x1="135.434" y1="43.9548" x2="137.454" y2="57.9544" gradientUnits="userSpaceOnUse">
<stop stop-color="#7BC6FF"/>
<stop offset="1" stop-color="#7691FF"/>
</linearGradient>
<linearGradient id="paint48_linear_8_3221" x1="136.841" y1="43.7519" x2="138.86" y2="57.7515" gradientUnits="userSpaceOnUse">
<stop stop-color="#7BC6FF"/>
<stop offset="1" stop-color="#7691FF"/>
</linearGradient>
<linearGradient id="paint49_linear_8_3221" x1="15.8647" y1="40.0628" x2="32.8301" y2="22.0099" gradientUnits="userSpaceOnUse">
<stop offset="0.3106" stop-color="#DBF0FF"/>
<stop offset="1" stop-color="#DBF0FF" stop-opacity="0"/>
</linearGradient>
<linearGradient id="paint50_linear_8_3221" x1="25.8541" y1="47.1044" x2="71.4962" y2="12.9366" gradientUnits="userSpaceOnUse">
<stop stop-color="#DBF0FF"/>
<stop offset="1" stop-color="#DBF0FF" stop-opacity="0"/>
</linearGradient>
<linearGradient id="paint51_linear_8_3221" x1="22.1699" y1="61.2466" x2="69.6401" y2="25.7103" gradientUnits="userSpaceOnUse">
<stop stop-color="#DBF0FF"/>
<stop offset="1" stop-color="#DBF0FF" stop-opacity="0"/>
</linearGradient>
<linearGradient id="paint52_linear_8_3221" x1="-6.38204" y1="64.708" x2="52.2742" y2="20.7979" gradientUnits="userSpaceOnUse">
<stop stop-color="#F9F9F9"/>
<stop offset="1" stop-color="#B7D0EE"/>
</linearGradient>
<linearGradient id="paint53_linear_8_3221" x1="37.7009" y1="15.742" x2="18.9828" y2="33.3141" gradientUnits="userSpaceOnUse">
<stop offset="0.2777" stop-color="#7BC6FF"/>
<stop offset="0.9129" stop-color="#7691FF"/>
</linearGradient>
<linearGradient id="paint54_linear_8_3221" x1="12.788" y1="79.8667" x2="62.1201" y2="42.9365" gradientUnits="userSpaceOnUse">
<stop stop-color="#DBF0FF"/>
<stop offset="1" stop-color="#DBF0FF" stop-opacity="0"/>
</linearGradient>
<linearGradient id="paint55_linear_8_3221" x1="-1.1248" y1="73.9417" x2="59.5527" y2="28.5183" gradientUnits="userSpaceOnUse">
<stop stop-color="#F9F9F9"/>
<stop offset="1" stop-color="#B7D0EE"/>
</linearGradient>
<linearGradient id="paint56_linear_8_3221" x1="85.2536" y1="117.661" x2="127.986" y2="76.0432" gradientUnits="userSpaceOnUse">
<stop stop-color="#DBF0FF"/>
<stop offset="1" stop-color="#DBF0FF" stop-opacity="0"/>
</linearGradient>
<linearGradient id="paint57_linear_8_3221" x1="114.857" y1="90.1496" x2="94.4699" y2="110.537" gradientUnits="userSpaceOnUse">
<stop stop-color="#7BC6FF"/>
<stop offset="0.7797" stop-color="#7691FF"/>
</linearGradient>
<linearGradient id="paint58_linear_8_3221" x1="118.803" y1="85.6124" x2="95.3416" y2="109.074" gradientUnits="userSpaceOnUse">
<stop offset="0.0259" stop-color="#CB2371" stop-opacity="0"/>
<stop offset="0.2402" stop-color="#AB236F" stop-opacity="0.22"/>
<stop offset="0.5825" stop-color="#7E236D" stop-opacity="0.5714"/>
<stop offset="0.8471" stop-color="#61236C" stop-opacity="0.8431"/>
<stop offset="1" stop-color="#57236B"/>
</linearGradient>
<linearGradient id="paint59_linear_8_3221" x1="156.546" y1="241.918" x2="191.005" y2="184.485" gradientUnits="userSpaceOnUse">
<stop stop-color="#265CFF"/>
<stop offset="1" stop-color="#000B79"/>
</linearGradient>
<linearGradient id="paint60_linear_8_3221" x1="165.14" y1="177.106" x2="154.366" y2="186.241" gradientUnits="userSpaceOnUse">
<stop stop-color="#000B79" stop-opacity="0"/>
<stop offset="1" stop-color="#000B79"/>
</linearGradient>
<linearGradient id="paint61_linear_8_3221" x1="198.385" y1="233.775" x2="198.245" y2="178.589" gradientUnits="userSpaceOnUse">
<stop stop-color="#000B79" stop-opacity="0"/>
<stop offset="1" stop-color="#000B79"/>
</linearGradient>
<linearGradient id="paint62_linear_8_3221" x1="164.957" y1="237.336" x2="171.078" y2="197.027" gradientUnits="userSpaceOnUse">
<stop stop-color="#000B79" stop-opacity="0"/>
<stop offset="1" stop-color="#000B79"/>
</linearGradient>
<linearGradient id="paint63_linear_8_3221" x1="188.096" y1="90.7727" x2="169.652" y2="178.776" gradientUnits="userSpaceOnUse">
<stop stop-color="#EB8831"/>
<stop offset="1" stop-color="#EB5E31"/>
</linearGradient>
<linearGradient id="paint64_linear_8_3221" x1="170.499" y1="103.109" x2="154.22" y2="157.565" gradientUnits="userSpaceOnUse">
<stop stop-color="#EB5E31"/>
<stop offset="1" stop-color="#EB5E31" stop-opacity="0"/>
</linearGradient>
<linearGradient id="paint65_linear_8_3221" x1="198.251" y1="115.337" x2="199.539" y2="154.568" gradientUnits="userSpaceOnUse">
<stop stop-color="#EB5E31"/>
<stop offset="1" stop-color="#EB5E31" stop-opacity="0"/>
</linearGradient>
<linearGradient id="paint66_linear_8_3221" x1="201.978" y1="172.771" x2="219.544" y2="135.355" gradientUnits="userSpaceOnUse">
<stop stop-color="#FFDADB"/>
<stop offset="1" stop-color="#FFB8B9"/>
</linearGradient>
<linearGradient id="paint67_linear_8_3221" x1="218.241" y1="142.903" x2="203.452" y2="173.72" gradientUnits="userSpaceOnUse">
<stop stop-color="#FF6667"/>
<stop offset="1" stop-color="#FF6667" stop-opacity="0"/>
</linearGradient>
<linearGradient id="paint68_linear_8_3221" x1="213.726" y1="135.388" x2="198.444" y2="99.5527" gradientUnits="userSpaceOnUse">
<stop stop-color="#EB8831"/>
<stop offset="1" stop-color="#EB5E31"/>
</linearGradient>
<linearGradient id="paint69_linear_8_3221" x1="171.724" y1="49.3833" x2="163.056" y2="64.1975" gradientUnits="userSpaceOnUse">
<stop stop-color="#432B99"/>
<stop offset="1" stop-color="#090051"/>
</linearGradient>
<linearGradient id="paint70_linear_8_3221" x1="194.199" y1="50.0577" x2="191.006" y2="82.8186" gradientUnits="userSpaceOnUse">
<stop stop-color="#432B99"/>
<stop offset="1" stop-color="#090051"/>
</linearGradient>
<linearGradient id="paint71_linear_8_3221" x1="174.154" y1="100.901" x2="183.392" y2="79.4803" gradientUnits="userSpaceOnUse">
<stop stop-color="#FFDADB"/>
<stop offset="1" stop-color="#FFB8B9"/>
</linearGradient>
<linearGradient id="paint72_linear_8_3221" x1="185.054" y1="78.0378" x2="171.44" y2="95.5163" gradientUnits="userSpaceOnUse">
<stop stop-color="#FF6667"/>
<stop offset="1" stop-color="#FF6667" stop-opacity="0"/>
</linearGradient>
<linearGradient id="paint73_linear_8_3221" x1="196.069" y1="63.8619" x2="189.909" y2="74.3902" gradientUnits="userSpaceOnUse">
<stop stop-color="#FFDADB"/>
<stop offset="1" stop-color="#FFB8B9"/>
</linearGradient>
<linearGradient id="paint74_linear_8_3221" x1="162.523" y1="59.6637" x2="186.044" y2="75.5681" gradientUnits="userSpaceOnUse">
<stop stop-color="#FFDADB"/>
<stop offset="1" stop-color="#FFB8B9"/>
</linearGradient>
<linearGradient id="paint75_linear_8_3221" x1="167.082" y1="42.268" x2="211.435" y2="81.2452" gradientUnits="userSpaceOnUse">
<stop stop-color="#432B99"/>
<stop offset="1" stop-color="#090051"/>
</linearGradient>
<linearGradient id="paint76_linear_8_3221" x1="156.521" y1="101.28" x2="160.893" y2="94.0512" gradientUnits="userSpaceOnUse">
<stop stop-color="#FFDADB"/>
<stop offset="1" stop-color="#FFB8B9"/>
</linearGradient>
<linearGradient id="paint77_linear_8_3221" x1="136.811" y1="151.471" x2="147.514" y2="126.655" gradientUnits="userSpaceOnUse">
<stop stop-color="#FFDADB"/>
<stop offset="1" stop-color="#FFB8B9"/>
</linearGradient>
<linearGradient id="paint78_linear_8_3221" x1="146.475" y1="126.356" x2="158.596" y2="106.155" gradientUnits="userSpaceOnUse">
<stop stop-color="#EB8831"/>
<stop offset="1" stop-color="#EB5E31"/>
</linearGradient>
<linearGradient id="paint79_linear_8_3221" x1="159.764" y1="100.422" x2="172.247" y2="98.8644" gradientUnits="userSpaceOnUse">
<stop stop-color="#432B99"/>
<stop offset="1" stop-color="#090051"/>
</linearGradient>
<linearGradient id="paint80_linear_8_3221" x1="169.081" y1="96.3911" x2="141.501" y2="149.881" gradientUnits="userSpaceOnUse">
<stop stop-color="#FFDADB"/>
<stop offset="1" stop-color="#FFB8B9"/>
</linearGradient>
<linearGradient id="paint81_linear_8_3221" x1="156.865" y1="118.066" x2="142.09" y2="148.854" gradientUnits="userSpaceOnUse">
<stop stop-color="#FF6667"/>
<stop offset="1" stop-color="#FF6667" stop-opacity="0"/>
</linearGradient>
</defs>
</svg>
