<svg width="18" height="22" viewBox="0 0 18 22" fill="none" xmlns="http://www.w3.org/2000/svg">
<path d="M9.20833 0.166993C9.61086 0.166705 10.0055 0.278551 10.348 0.489992C10.6905 0.701433 10.9674 1.00411 11.1475 1.36408C10.9449 1.82666 10.8333 2.33908 10.8333 2.87533C10.8333 3.59033 11.0316 4.25874 11.375 4.82966V4.93366C11.4118 4.95533 11.4487 4.97699 11.4855 5.00083C11.7563 5.39949 12.0998 5.74399 12.4984 6.01374C12.8158 6.51749 13 7.11224 13 7.75033V8.83366C13.2873 8.83366 13.5629 8.9478 13.766 9.15096C13.9692 9.35413 14.0833 9.62968 14.0833 9.91699V11.0003C14.0833 11.2876 13.9692 11.5632 13.766 11.7664C13.5629 11.9695 13.2873 12.0837 13 12.0837V14.2503C13.0002 14.821 12.8501 15.3816 12.5648 15.8759C12.2796 16.3701 11.8692 16.7806 11.375 17.0659V19.667C11.375 20.2416 11.1467 20.7927 10.7404 21.1991C10.3341 21.6054 9.78297 21.8337 9.20833 21.8337H3.79167C3.21703 21.8337 2.66593 21.6054 2.2596 21.1991C1.85327 20.7927 1.625 20.2416 1.625 19.667V17.0659C1.13072 16.7807 0.720289 16.3703 0.435023 15.876C0.149756 15.3817 -0.000285219 14.821 4.07037e-07 14.2503V7.75033C-0.000175302 7.17966 0.149912 6.61901 0.435168 6.12476C0.720424 5.63051 1.13079 5.22007 1.625 4.93474V2.33366C1.625 1.75902 1.85327 1.20792 2.2596 0.801595C2.66593 0.395266 3.21703 0.166993 3.79167 0.166993H9.20833ZM3.79167 1.79199C3.64801 1.79199 3.51023 1.84906 3.40865 1.95064C3.30707 2.05223 3.25 2.19 3.25 2.33366V4.50033H9.75V2.33366C9.75 2.19 9.69293 2.05223 9.59135 1.95064C9.48977 1.84906 9.35199 1.79199 9.20833 1.79199H3.79167ZM11.375 14.2503V7.75033C11.375 7.31935 11.2038 6.90602 10.899 6.60128C10.5943 6.29653 10.181 6.12533 9.75 6.12533H3.25C2.81902 6.12533 2.4057 6.29653 2.10095 6.60128C1.79621 6.90602 1.625 7.31935 1.625 7.75033V14.2503C1.625 14.6813 1.79621 15.0946 2.10095 15.3994C2.4057 15.7041 2.81902 15.8753 3.25 15.8753H9.75C10.181 15.8753 10.5943 15.7041 10.899 15.3994C11.2038 15.0946 11.375 14.6813 11.375 14.2503ZM3.25 19.667C3.25 19.8107 3.30707 19.9484 3.40865 20.05C3.51023 20.1516 3.64801 20.2087 3.79167 20.2087H9.20833C9.35199 20.2087 9.48977 20.1516 9.59135 20.05C9.69293 19.9484 9.75 19.8107 9.75 19.667V17.5003H3.25V19.667ZM17.3333 2.87533C17.3333 2.15703 17.048 1.46816 16.5401 0.960245C16.0322 0.452334 15.3433 0.166993 14.625 0.166993C13.9067 0.166993 13.2178 0.452334 12.7099 0.960245C12.202 1.46816 11.9167 2.15703 11.9167 2.87533C11.9167 3.59362 12.202 4.2825 12.7099 4.79041C13.2178 5.29832 13.9067 5.58366 14.625 5.58366C15.3433 5.58366 16.0322 5.29832 16.5401 4.79041C17.048 4.2825 17.3333 3.59362 17.3333 2.87533Z" fill="#333333"/>
</svg>
