<svg width="28" height="28" viewBox="0 0 28 28" fill="none" xmlns="http://www.w3.org/2000/svg">
<path fill-rule="evenodd" clip-rule="evenodd" d="M18.8201 4.87466C18.8376 4.89566 18.8539 4.91841 18.8685 4.94116L18.8691 4.94233L18.8708 4.94524L18.8761 4.95399L18.8947 4.98491C19.0017 5.16303 19.1049 5.34332 19.2045 5.52566C19.4028 5.88849 19.6659 6.40066 19.9296 7.00616C20.4517 8.20199 21 9.81607 21 11.3537C21 13.0938 19.8246 14.0587 18.7909 14.5568C18.2755 14.8015 17.7315 14.9808 17.1716 15.0906C16.3096 15.891 15.1763 16.3349 14 16.3331C13.2985 16.3339 12.606 16.1762 11.974 15.8719C11.342 15.5675 10.7869 15.1244 10.3501 14.5755L10.3233 14.5732C10.1964 14.5616 10.0701 14.5449 9.94467 14.523C9.54781 14.4559 9.16147 14.337 8.7955 14.1695C8.36967 13.9712 7.917 13.6667 7.5705 13.1994C7.21875 12.7252 7 12.115 7 11.3537C7 9.91466 7.70117 8.27958 8.34517 7.06508C8.73269 6.33696 9.16237 5.63206 9.632 4.95399L9.65067 4.92774L9.65767 4.91666C9.73122 4.80518 9.81169 4.69842 9.89858 4.59699C10.1261 4.33436 10.3847 4.10029 10.6686 3.89991C11.3767 3.39591 12.4676 2.91699 14.0321 2.91699C15.5925 2.91699 16.7807 3.39358 17.5811 3.87541C17.9807 4.11633 18.2834 4.35783 18.4893 4.54274C18.6018 4.64406 18.7088 4.75115 18.8102 4.86358L18.816 4.87058L18.8189 4.87349L18.8201 4.87466ZM10.6382 5.54899C10.6296 5.56379 10.6202 5.57819 10.6102 5.59216L10.6091 5.59333L10.6044 5.59916L10.5852 5.62716C10.4631 5.80207 10.3442 5.97924 10.2287 6.15858C9.99542 6.52024 9.68508 7.02774 9.37592 7.61108C8.74242 8.80574 8.16667 10.2221 8.16667 11.3537C8.16667 11.8782 8.3125 12.2416 8.50733 12.5047C8.708 12.7742 8.98508 12.9713 9.28842 13.1125C9.4325 13.1796 9.57833 13.2327 9.71717 13.2741C9.60633 12.7734 9.52279 12.2671 9.46692 11.7574C9.401 11.1309 9.38175 10.4362 9.49958 9.82191C9.61567 9.21991 9.88925 8.57299 10.5158 8.23641C11.3493 7.78899 12.7598 7.19049 14.0035 6.77808C14.6236 6.57216 15.2285 6.40358 15.7121 6.32658C15.9495 6.28924 16.1933 6.26824 16.408 6.28983C16.576 6.30733 16.9242 6.37091 17.1167 6.68649C18.6801 8.94341 18.7034 11.0113 18.3073 12.5216C18.193 12.9585 18.0448 13.3452 17.892 13.6742C18.025 13.6238 18.1557 13.5677 18.284 13.5062C19.1298 13.0979 19.8333 12.4481 19.8333 11.3537C19.8333 10.0576 19.3608 8.62024 18.8603 7.47224C18.5935 6.86246 18.2924 6.26826 17.9585 5.69249L17.9037 5.59974L17.8897 5.58516L17.8832 5.57816C17.8274 5.5202 17.7694 5.46435 17.7094 5.41074C17.4833 5.2097 17.2388 5.03041 16.9791 4.87524C16.3275 4.48208 15.3446 4.08366 14.0321 4.08366C12.7231 4.08366 11.8667 4.47974 11.3452 4.85074C11.1387 4.99611 10.9505 5.16592 10.7847 5.35649C10.7332 5.41627 10.6853 5.47899 10.6412 5.54433L10.6382 5.54899ZM10.9334 13.3552C10.7939 12.7895 10.6918 12.2152 10.6277 11.6361C10.5665 11.0568 10.5589 10.4927 10.6453 10.0418C10.7345 9.57983 10.8961 9.35641 11.0676 9.26424C11.83 8.85474 13.1769 8.28133 14.371 7.88524C14.9695 7.68691 15.5038 7.54108 15.8947 7.47924C16.0422 7.45591 16.1507 7.44716 16.2242 7.44774C17.5064 9.35408 17.493 11.0277 17.1786 12.2258C17.0426 12.7413 16.8359 13.2354 16.5643 13.6941C16.4645 13.8628 16.3544 14.0253 16.2347 14.1806L16.2307 14.1858L16.2184 14.201L16.2161 14.2033L16.2155 14.2039C16.1484 14.2823 16.1033 14.3771 16.0848 14.4787C15.6838 14.7763 15.2237 14.9846 14.7354 15.0896C14.2471 15.1946 13.742 15.1939 13.2541 15.0875C12.7661 14.981 12.3066 14.7714 11.9064 14.4726C11.5063 14.1738 11.1741 13.7928 10.9334 13.3552ZM16.3217 7.45533C16.3165 7.45469 16.3114 7.45352 16.3065 7.45183C16.3117 7.45222 16.3168 7.4534 16.3217 7.45533Z" fill="#1F2587"/>
<path fill-rule="evenodd" clip-rule="evenodd" d="M10.4498 16.8326C10.3262 16.5864 10.1739 16.2825 9.91667 16.3414C6.76433 17.0589 3.5 19.1309 3.5 21.333V24.5005H24.5V21.333C24.5 19.5982 22.4747 17.945 20.0742 16.9697L20.0661 16.9539L20.0632 16.9481L20.0439 16.9574C19.4063 16.7007 18.7425 16.4907 18.0833 16.3414C17.7899 16.2743 17.4866 16.678 17.3542 16.9306H10.5C10.483 16.8981 10.4662 16.8654 10.4498 16.8326ZM18.3184 17.6032C18.5733 17.6732 18.8271 17.7531 19.0773 17.8406C19.0843 18.0401 19.0692 18.2752 19.0365 18.5155C19.0033 18.7643 18.9502 19.0101 18.8778 19.2505H18.0833C17.975 19.2505 17.8689 19.2808 17.7768 19.3377C17.6847 19.3947 17.6102 19.4762 17.5618 19.5731L16.9785 20.7397C16.9379 20.8207 16.9167 20.9099 16.9167 21.0005V22.1672C16.9167 22.3219 16.9781 22.4702 17.0875 22.5796C17.1969 22.689 17.3453 22.7505 17.5 22.7505H18.6667V21.5838H18.0833V21.1382L18.4438 20.4172H20.0562L20.4167 21.1382V21.5838H19.8333V22.7505H21C21.1547 22.7505 21.3031 22.689 21.4125 22.5796C21.5219 22.4702 21.5833 22.3219 21.5833 22.1672V21.0005C21.5833 20.9099 21.5621 20.8207 21.5215 20.7397L20.9382 19.5731C20.8898 19.4762 20.8153 19.3947 20.7232 19.3377C20.6311 19.2808 20.525 19.2505 20.4167 19.2505H20.0865C20.1585 18.942 20.2069 18.6284 20.2312 18.3125C20.7999 18.5808 21.3284 18.8888 21.7863 19.2225C22.9075 20.0415 23.3333 20.8068 23.3333 21.333V23.3338H4.66667V21.333C4.66667 20.8062 5.0925 20.0409 6.21367 19.2231C6.77717 18.8118 7.44975 18.4397 8.17075 18.1317C8.19078 18.5965 8.26537 19.0574 8.393 19.5048L8.39767 19.5212C8.04893 19.7418 7.78937 20.0785 7.66485 20.472C7.54032 20.8654 7.55883 21.2902 7.71711 21.6713C7.87538 22.0524 8.16325 22.3653 8.52985 22.5547C8.89646 22.7442 9.31822 22.798 9.72065 22.7066C10.1231 22.6153 10.4803 22.3847 10.7292 22.0555C10.978 21.7263 11.1026 21.3198 11.0808 20.9077C11.0591 20.4956 10.8924 20.1045 10.6102 19.8034C10.328 19.5023 9.94848 19.3106 9.53867 19.2622C9.46412 19.0181 9.40949 18.7684 9.37533 18.5155C9.34286 18.2893 9.3294 18.0608 9.33508 17.8324C9.33677 17.7888 9.33969 17.7452 9.34383 17.7017C9.41383 17.6802 9.48383 17.6592 9.55383 17.6393L9.79592 18.0978H18.0582L18.3184 17.6032ZM9.33333 21.5926C9.64717 21.5926 9.91667 21.3359 9.91667 21.0005C9.91667 20.6657 9.64717 20.4084 9.33333 20.4084C9.0195 20.4084 8.75 20.6651 8.75 21.0005C8.75 21.3353 9.0195 21.5926 9.33333 21.5926Z" fill="#1F2587"/>
</svg>
