<svg width="284" height="277" viewBox="0 0 284 277" fill="none" xmlns="http://www.w3.org/2000/svg">
<path d="M213 207.75C252.212 169.504 252.212 107.496 213 69.25C173.788 31.0043 110.212 31.0043 71 69.25C31.7878 107.496 31.7878 169.504 71 207.75C110.212 245.996 173.788 245.996 213 207.75Z" fill="#FCD9D9"/>
<mask id="mask0_8_2867" style="mask-type:luminance" maskUnits="userSpaceOnUse" x="41" y="40" width="202" height="197">
<path d="M213 207.75C252.212 169.504 252.212 107.496 213 69.25C173.788 31.0043 110.212 31.0043 71 69.25C31.7878 107.496 31.7878 169.504 71 207.75C110.212 245.996 173.788 245.996 213 207.75Z" fill="white"/>
</mask>
<g mask="url(#mask0_8_2867)">
<path d="M183.004 249.927H96.5745C95.6313 249.927 94.8672 249.182 94.8672 248.262V82.6144C94.8672 81.6945 95.632 80.9492 96.5745 80.9492H183.005C183.948 80.9492 184.712 81.6951 184.712 82.6144V248.262C184.712 249.182 183.947 249.927 183.004 249.927Z" fill="#EA9292"/>
</g>
<mask id="mask1_8_2867" style="mask-type:luminance" maskUnits="userSpaceOnUse" x="41" y="40" width="202" height="197">
<path d="M213 207.75C252.212 169.504 252.212 107.496 213 69.25C173.788 31.0043 110.212 31.0043 71 69.25C31.7878 107.496 31.7878 169.504 71 207.75C110.212 245.996 173.788 245.996 213 207.75Z" fill="white"/>
</mask>
<g mask="url(#mask1_8_2867)">
<path d="M255.959 147.925H210.606C209.662 147.925 208.898 147.18 208.898 146.26V111.636C208.898 110.716 209.663 109.971 210.606 109.971H255.96C256.903 109.971 257.667 110.717 257.667 111.636V146.26C257.667 147.18 256.903 147.925 255.959 147.925Z" fill="#EA9292"/>
<path d="M252.03 149.181H214.531C210.714 149.181 207.609 146.153 207.609 142.429V115.467C207.609 111.743 210.714 108.715 214.531 108.715H252.03C255.849 108.715 258.953 111.743 258.953 115.467V142.429C258.953 146.153 255.848 149.181 252.03 149.181ZM214.531 111.225C212.134 111.225 210.183 113.128 210.183 115.467V142.429C210.183 144.767 212.134 146.67 214.531 146.67H252.03C254.428 146.67 256.379 144.767 256.379 142.429V115.467C256.379 113.129 254.428 111.225 252.03 111.225H214.531Z" fill="#EA9292"/>
</g>
<mask id="mask2_8_2867" style="mask-type:luminance" maskUnits="userSpaceOnUse" x="41" y="40" width="202" height="197">
<path d="M213 207.75C252.212 169.504 252.212 107.496 213 69.25C173.788 31.0043 110.212 31.0043 71 69.25C31.7878 107.496 31.7878 169.504 71 207.75C110.212 245.996 173.788 245.996 213 207.75Z" fill="white"/>
</mask>
<g mask="url(#mask2_8_2867)">
<path d="M88.4934 216.074H43.7183C42.6419 216.074 41.7695 215.223 41.7695 214.173V131.192C41.7695 130.142 42.6419 129.291 43.7183 129.291H88.4934C89.5698 129.291 90.4422 130.142 90.4422 131.192V214.174C90.4422 215.223 89.5698 216.074 88.4934 216.074Z" fill="#EA9292"/>
<path d="M84.0107 217.329H48.1977C43.9425 217.329 40.4805 213.953 40.4805 209.803V135.563C40.4805 131.412 43.9425 128.035 48.1977 128.035H84.01C88.2651 128.035 91.7265 131.412 91.7265 135.563V209.803C91.7272 213.953 88.2651 217.329 84.0107 217.329ZM48.1977 130.546C45.3623 130.546 43.0552 132.796 43.0552 135.563V209.803C43.0552 212.568 45.3623 214.819 48.1977 214.819H84.01C86.8453 214.819 89.1524 212.568 89.1524 209.803V135.563C89.1524 132.796 86.8453 130.546 84.01 130.546H48.1977Z" fill="#EA9292"/>
</g>
<mask id="mask3_8_2867" style="mask-type:luminance" maskUnits="userSpaceOnUse" x="41" y="40" width="202" height="197">
<path d="M213 207.75C252.212 169.504 252.212 107.496 213 69.25C173.788 31.0043 110.212 31.0043 71 69.25C31.7878 107.496 31.7878 169.504 71 207.75C110.212 245.996 173.788 245.996 213 207.75Z" fill="white"/>
</mask>
<g mask="url(#mask3_8_2867)">
<path d="M228.095 221.332C229.742 225.727 228.97 229.871 226.343 231.378C223.717 232.86 220.781 231.73 220.781 231.73C220.781 231.73 220.523 235.899 218.077 237.757C213.983 240.872 208.576 238.285 208.576 238.285C208.576 238.285 208.472 239.792 203.683 240.796C196.627 242.278 192.585 238.637 192.585 238.637C192.585 238.637 191.271 242.053 186.018 242.279C185.452 242.304 184.627 242.103 183.598 241.751C180.457 240.646 175.435 237.983 170.104 234.794C170.079 234.794 170.053 234.769 170.027 234.743C165.495 232.031 160.732 228.917 156.714 226.078C152.414 223.014 148.964 220.251 147.548 218.543C141.573 211.386 132.561 178.861 127.282 172.582C126.896 172.104 126.484 171.702 126.098 171.326C123.754 169.091 121.231 168.287 118.887 168.112C117.446 167.986 116.055 168.112 114.793 168.313C117.136 158.442 122.441 150.38 129.291 146.035C131.273 144.779 133.359 143.825 135.574 143.222C135.599 143.196 135.625 143.196 135.676 143.196C136.861 143.045 138.69 142.795 140.852 142.493C140.878 142.519 140.904 142.493 140.904 142.493C148.217 141.564 159.701 140.308 167.169 141.388C177.469 142.869 188.413 147.139 195.005 150.58C201.572 153.996 213.854 164.469 218.438 166.177C223.047 167.885 228.97 168.965 229.176 172.155C229.253 173.159 229.073 174.39 228.584 175.621C227.554 178.358 225.082 181.171 220.859 181.774C214.73 182.627 207.494 179.865 204.199 178.584C200.929 177.278 197.401 174.515 196.319 175.797C195.212 177.077 201.47 192.398 206.723 198.552C211.563 204.203 225.572 214.575 228.095 221.332Z" fill="#EA9292"/>
</g>
<path d="M230.989 93.0932L224.563 100.797C224.353 101.048 224.049 101.162 223.722 101.093C223.394 101.025 223.137 100.797 223.044 100.501L218.02 83.452L209.28 116.182C209.186 116.547 208.836 116.82 208.439 116.82C208.415 116.82 208.392 116.82 208.392 116.82C207.971 116.797 207.621 116.478 207.574 116.068L198.016 40.8532L189.066 92.2271L189.043 92.3866C189.043 92.4094 189.043 92.4094 189.02 92.4322C189.02 92.5234 188.973 92.5918 188.926 92.6601C188.879 92.7513 188.833 92.8425 188.739 92.8881C188.599 93.0248 188.389 93.0932 188.178 93.0932H155.322L148.896 100.797C148.709 101.048 148.382 101.162 148.055 101.093C147.728 101.025 147.471 100.797 147.377 100.501L142.353 83.452L133.613 116.182C133.52 116.547 133.169 116.82 132.772 116.82C132.749 116.82 132.725 116.82 132.725 116.82C132.305 116.797 131.954 116.478 131.907 116.068L122.397 40.8304L113.4 92.2271L113.376 92.3866C113.376 92.455 113.353 92.5006 113.306 92.569C113.306 92.6146 113.26 92.6601 113.236 92.7057C113.236 92.7513 113.189 92.7741 113.143 92.8197C113.026 92.9792 112.792 93.0476 112.558 93.0704C112.535 93.0704 112.535 93.0704 112.512 93.0704H112.372L79.6792 93.0932L73.2529 100.797C73.0426 101.048 72.7155 101.162 72.3883 101.093C72.0612 101.025 71.8041 100.797 71.734 100.501L66.6864 83.452L57.9701 116.182C57.8532 116.547 57.5027 116.82 57.1054 116.82C57.1054 116.82 57.0821 116.82 57.0587 116.82C56.6381 116.797 56.3109 116.478 56.2408 116.068L53.1328 92.8881L54.5817 90.3353L57.4092 111.487L65.7984 80.0104C65.8919 79.6457 66.2424 79.3722 66.6397 79.3722C66.9902 79.4178 67.3875 79.6229 67.481 79.9876L72.9492 98.4494L78.5809 91.7029C78.7445 91.4977 79.0015 91.3838 79.2586 91.3838L111.764 91.361L121.672 34.8132C121.742 34.4029 122.093 34.061 122.56 34.1066C122.981 34.1066 123.355 34.4257 123.401 34.8588L133.076 111.418L141.465 80.0104C141.559 79.6457 141.909 79.3722 142.306 79.3722C142.704 79.4178 143.031 79.6229 143.148 79.9876L148.592 98.4494L154.224 91.7029C154.411 91.4977 154.645 91.3838 154.925 91.3838H187.431L197.269 34.8132C197.362 34.4029 197.666 34.061 198.157 34.1066C198.601 34.1066 198.951 34.4257 199.021 34.8588L208.742 111.418L217.132 80.0104C217.225 79.6457 217.576 79.3722 217.95 79.3722C218.417 79.4178 218.697 79.6229 218.814 79.9876L224.259 98.4494L229.891 91.7029C229.961 91.6345 230.031 91.5661 230.124 91.5205L230.989 93.0932Z" fill="#DD4231"/>
<path d="M175.481 240.766H89.0511C88.1078 240.766 87.3438 240.021 87.3438 239.101V73.4533C87.3438 72.5333 88.1085 71.7881 89.0511 71.7881H175.481C176.424 71.7881 177.189 72.534 177.189 73.4533V239.1C177.189 240.02 176.424 240.766 175.481 240.766Z" fill="#6A8F9B"/>
<path d="M170.485 229.224H94.0495C93.2153 229.224 92.5391 228.565 92.5391 227.751V81.2584C92.5391 80.4448 93.2153 79.7852 94.0495 79.7852H170.485C171.319 79.7852 171.996 80.4448 171.996 81.2584V227.752C171.995 228.565 171.319 229.224 170.485 229.224Z" fill="#FCF9F9"/>
<path d="M137.616 85.0044C140.571 82.1219 140.571 77.4484 137.616 74.5659C134.661 71.6833 129.869 71.6833 126.914 74.5659C123.958 77.4484 123.958 82.1219 126.914 85.0044C129.869 87.887 134.661 87.887 137.616 85.0044Z" fill="#6A8F9B"/>
<path d="M134.474 79.7847C134.474 80.974 133.485 81.9382 132.266 81.9382C131.046 81.9382 130.059 80.974 130.059 79.7847C130.059 78.5953 131.047 77.6318 132.266 77.6318C133.485 77.6318 134.474 78.5953 134.474 79.7847Z" fill="#1E5259"/>
<path d="M171.995 102.059H92.5391V112.301H171.995V102.059Z" fill="#81F2EF"/>
<path d="M162.285 218.203H119.199V223.165H162.285V218.203Z" fill="#939AA0"/>
<path d="M115.44 217.551C115.006 218.523 114.291 219.302 113.415 219.822L113.058 220.022L107.313 223.228L101.56 220.022L101.194 219.822C100.327 219.302 99.6118 218.523 99.1699 217.551C98.044 215.005 99.2386 212.052 101.841 210.953C103.743 210.151 105.858 210.545 107.304 211.806C108.758 210.545 110.873 210.152 112.767 210.953C115.379 212.051 116.574 215.005 115.44 217.551Z" fill="#DD4231"/>
<path d="M107.306 224.087C107.195 224.087 107.082 224.065 106.974 224.023C106.923 224.002 106.874 223.976 106.828 223.948L100.766 220.568C99.6933 219.927 98.8754 219.008 98.3712 217.897C97.052 214.916 98.4548 211.453 101.494 210.168C103.415 209.356 105.621 209.587 107.308 210.721C109 209.587 111.207 209.359 113.118 210.168C114.592 210.789 115.731 211.933 116.322 213.389C116.914 214.849 116.887 216.449 116.244 217.891C115.748 219.005 114.928 219.926 113.872 220.552L107.764 223.962C107.624 224.044 107.466 224.087 107.306 224.087ZM103.889 211.396C103.314 211.396 102.735 211.507 102.189 211.738C100.035 212.648 99.0425 215.104 99.9766 217.214C100.333 217.999 100.914 218.652 101.655 219.094L107.31 222.247L112.981 219.082C113.705 218.651 114.285 218 114.638 217.211C115.093 216.188 115.112 215.054 114.692 214.02C114.274 212.989 113.467 212.177 112.423 211.737C110.898 211.095 109.123 211.373 107.889 212.445C107.556 212.732 107.055 212.735 106.722 212.443C105.933 211.757 104.918 211.396 103.889 211.396Z" fill="#DD4231"/>
<path d="M158.811 91.0791H105.706C102.518 91.0791 99.9336 93.6001 99.9336 96.7095V118.353C99.9336 121.463 102.518 123.984 105.706 123.984H107.66C107.66 123.984 111.718 124.174 113.954 125.743C116.173 127.301 117.336 129.966 117.336 129.966L117.363 123.984H158.811C161.999 123.984 164.584 121.463 164.584 118.354V96.7095C164.584 93.6001 161.999 91.0791 158.811 91.0791Z" fill="#FCF9F9"/>
<path d="M117.337 130.82C116.991 130.82 116.671 130.62 116.531 130.301C116.52 130.277 115.428 127.829 113.444 126.436C111.44 125.031 107.656 124.839 107.618 124.837L105.707 124.839C102.041 124.839 99.0586 121.929 99.0586 118.354V96.7094C99.0586 93.1337 102.041 90.2246 105.707 90.2246H158.812C162.478 90.2246 165.461 93.1337 165.461 96.7094V118.353C165.461 121.929 162.478 124.838 158.812 124.838H157.275C156.792 124.838 156.399 124.455 156.399 123.983C156.399 123.51 156.791 123.128 157.275 123.128H158.812C161.511 123.128 163.708 120.985 163.708 118.352V96.7094C163.708 94.0758 161.511 91.9333 158.812 91.9333H105.707C103.007 91.9333 100.811 94.0758 100.811 96.7094V118.353C100.811 120.986 103.008 123.128 105.707 123.128H107.661C107.879 123.137 112.047 123.351 114.468 125.049C115.265 125.609 115.935 126.293 116.474 126.96L116.489 123.98C116.491 123.51 116.882 123.129 117.365 123.129H133.806C134.29 123.129 134.683 123.512 134.683 123.984C134.683 124.456 134.29 124.839 133.806 124.839H118.238L118.214 129.97C118.211 130.375 117.918 130.723 117.512 130.803C117.452 130.814 117.394 130.82 117.337 130.82Z" fill="#939AA0"/>
<path d="M151.332 124.838H144.931C144.448 124.838 144.055 124.455 144.055 123.983C144.055 123.511 144.447 123.128 144.931 123.128H151.332C151.816 123.128 152.209 123.511 152.209 123.983C152.209 124.455 151.817 124.838 151.332 124.838Z" fill="#939AA0"/>
<path d="M108.52 101.336H108.469L105.559 102.867L105.121 101.185L108.777 99.2764H110.709V115.598H108.52V101.336Z" fill="#00539C"/>
<path d="M110.709 116.226H108.52C108.164 116.226 107.876 115.946 107.876 115.598V102.361L105.865 103.42C105.691 103.511 105.484 103.518 105.3 103.442C105.118 103.364 104.983 103.208 104.935 103.022L104.497 101.339C104.424 101.059 104.555 100.767 104.817 100.631L108.473 98.723C108.567 98.674 108.671 98.6484 108.777 98.6484H110.709C111.065 98.6484 111.352 98.9288 111.352 99.2763V115.598C111.352 115.945 111.065 116.226 110.709 116.226ZM109.164 114.971H110.065V99.9041H108.938L105.87 101.506L105.98 101.933L108.163 100.783C108.568 100.572 109.164 100.883 109.164 101.336V114.971Z" fill="#00539C"/>
<path d="M116.812 115.599V114.243L118.589 112.56C122.862 108.592 124.795 106.484 124.819 104.023C124.819 102.366 123.996 100.833 121.499 100.833C119.98 100.833 118.718 101.587 117.946 102.215L117.225 100.658C118.384 99.7041 120.032 99.001 121.962 99.001C125.566 99.001 127.085 101.411 127.085 103.748C127.085 106.761 124.846 109.197 121.318 112.511L119.98 113.717V113.767H127.497V115.6H116.812V115.599Z" fill="#00539C"/>
<path d="M127.496 116.226H116.812C116.455 116.226 116.168 115.946 116.168 115.598V114.242C116.168 114.072 116.239 113.91 116.363 113.792L118.139 112.11C122.378 108.174 124.151 106.181 124.175 104.016C124.175 102.323 123.275 101.461 121.497 101.461C120.087 101.461 118.925 102.236 118.356 102.696C118.202 102.822 117.994 102.866 117.8 102.826C117.604 102.782 117.44 102.652 117.358 102.473L116.637 100.916C116.518 100.66 116.588 100.358 116.808 100.177C118.223 99.0137 120.053 98.3721 121.961 98.3721C125.944 98.3721 127.728 101.071 127.728 103.746C127.728 107.098 125.257 109.681 121.764 112.961L121.57 113.137H127.496C127.852 113.137 128.14 113.418 128.14 113.765V115.598C128.14 115.945 127.852 116.226 127.496 116.226ZM117.455 114.97H126.852V114.393H119.978C119.622 114.393 119.335 114.113 119.335 113.765C119.335 113.59 119.41 113.372 119.541 113.253L120.88 112.048C124.644 108.511 126.44 106.364 126.44 103.747C126.44 101.847 125.267 99.6277 121.96 99.6277C120.523 99.6277 119.141 100.059 118.018 100.849L118.201 101.244C119.041 100.699 120.168 100.206 121.497 100.206C123.979 100.206 125.461 101.633 125.461 104.023C125.434 106.773 123.382 108.977 119.032 113.016L117.455 114.509L117.455 114.97Z" fill="#00539C"/>
<path d="M130.203 105.454C130.203 104.524 130.847 103.871 131.748 103.871C132.65 103.871 133.242 104.524 133.267 105.454C133.267 106.332 132.675 107.011 131.722 107.011C130.821 107.011 130.203 106.332 130.203 105.454ZM130.203 114.317C130.203 113.389 130.847 112.736 131.748 112.736C132.65 112.736 133.242 113.389 133.267 114.317C133.267 115.196 132.675 115.874 131.722 115.874C130.821 115.874 130.203 115.196 130.203 114.317Z" fill="#00539C"/>
<path d="M131.721 116.502C130.488 116.502 129.559 115.562 129.559 114.317C129.559 113.037 130.479 112.108 131.747 112.108C132.985 112.108 133.873 113.01 133.909 114.3C133.909 115.584 132.987 116.502 131.721 116.502ZM131.746 113.363C131.199 113.363 130.845 113.738 130.845 114.317C130.845 114.781 131.115 115.247 131.72 115.247C132.384 115.247 132.621 114.767 132.621 114.317C132.616 114.106 132.533 113.363 131.746 113.363ZM131.721 107.639C130.488 107.639 129.559 106.7 129.559 105.454C129.559 104.173 130.479 103.244 131.747 103.244C132.985 103.244 133.873 104.145 133.909 105.438C133.909 106.72 132.987 107.639 131.721 107.639ZM131.746 104.499C131.199 104.499 130.845 104.874 130.845 105.454C130.845 105.917 131.115 106.383 131.72 106.383C132.384 106.383 132.621 105.903 132.621 105.454C132.616 105.242 132.533 104.499 131.746 104.499Z" fill="#00539C"/>
<path d="M135.892 113.062C136.535 113.463 138.029 114.091 139.599 114.091C142.508 114.091 143.408 112.284 143.384 110.927C143.357 108.643 141.247 107.663 139.058 107.663H137.797V106.006H139.058C140.706 106.006 142.791 105.178 142.791 103.244C142.791 101.939 141.941 100.783 139.856 100.783C138.518 100.783 137.23 101.361 136.51 101.863L135.917 100.256C136.792 99.6278 138.491 99 140.293 99C143.588 99 145.082 100.908 145.082 102.892C145.082 104.574 144.051 106.006 141.992 106.734V106.785C144.051 107.186 145.725 108.692 145.725 110.978C145.725 113.588 143.639 115.873 139.624 115.873C137.745 115.873 136.097 115.295 135.273 114.768L135.892 113.062Z" fill="#00539C"/>
<path d="M139.627 116.502C137.548 116.502 135.793 115.851 134.923 115.294C134.675 115.135 134.572 114.832 134.669 114.559L135.287 112.852C135.352 112.672 135.499 112.53 135.685 112.467C135.87 112.408 136.075 112.429 136.241 112.532C136.757 112.854 138.122 113.463 139.601 113.463C140.692 113.463 141.523 113.188 142.069 112.645C142.693 112.025 142.748 111.245 142.743 110.938C142.72 108.984 140.826 108.29 139.06 108.29H137.799C137.443 108.29 137.156 108.01 137.156 107.662V106.005C137.156 105.658 137.443 105.378 137.799 105.378H139.06C140.302 105.378 142.151 104.809 142.151 103.243C142.151 102.062 141.337 101.41 139.859 101.41C138.684 101.41 137.524 101.929 136.886 102.373C136.722 102.486 136.511 102.519 136.321 102.462C136.128 102.403 135.975 102.26 135.906 102.075L135.314 100.468C135.218 100.206 135.309 99.913 135.539 99.7486C136.495 99.0634 138.337 98.3721 140.295 98.3721C144.048 98.3721 145.728 100.642 145.728 102.892C145.728 104.452 144.969 105.769 143.602 106.653C145.323 107.477 146.372 109.061 146.372 110.978C146.371 113.638 144.26 116.502 139.627 116.502ZM136.062 114.483C136.908 114.891 138.216 115.246 139.627 115.246C143.397 115.246 145.084 113.102 145.084 110.978C145.084 108.8 143.352 107.689 141.868 107.4C141.568 107.341 141.351 107.084 141.351 106.785C141.351 106.521 141.521 106.233 141.775 106.144C143.494 105.536 144.441 104.381 144.441 102.892C144.441 101.386 143.355 99.6277 140.295 99.6277C138.888 99.6277 137.54 100.052 136.699 100.514L136.851 100.925C137.669 100.506 138.745 100.155 139.858 100.155C142.5 100.155 143.437 101.819 143.437 103.243C143.437 105.469 141.234 106.633 139.06 106.633H138.442V107.035H139.06C142.052 107.035 144.002 108.56 144.029 110.92C144.048 111.898 143.667 112.849 142.988 113.525C142.439 114.069 141.406 114.718 139.601 114.718C138.291 114.718 137.07 114.33 136.251 113.96L136.062 114.483Z" fill="#00539C"/>
<path d="M159.685 107.261C159.685 112.811 157.574 115.874 153.867 115.874C150.598 115.874 148.383 112.885 148.332 107.487C148.332 102.013 150.752 99 154.15 99C157.677 99 159.685 102.064 159.685 107.261ZM150.597 107.513C150.597 111.756 151.936 114.167 153.995 114.167C156.313 114.167 157.419 111.53 157.419 107.361C157.419 103.344 156.364 100.707 154.021 100.707C152.038 100.707 150.597 103.068 150.597 107.513Z" fill="#00539C"/>
<path d="M153.866 116.502C150.107 116.502 147.74 113.05 147.688 107.492C147.688 101.865 150.164 98.3721 154.149 98.3721C158.018 98.3721 160.328 101.696 160.328 107.261C160.328 113.134 157.973 116.502 153.866 116.502ZM154.149 99.6277C150.958 99.6277 148.975 102.639 148.975 107.487C149.022 112.344 150.849 115.246 153.867 115.246C158.369 115.246 159.041 110.243 159.041 107.26C159.041 102.41 157.257 99.6277 154.149 99.6277ZM153.995 114.794C151.464 114.794 149.954 112.072 149.954 107.512C149.954 102.031 152.054 100.079 154.021 100.079C155.531 100.079 158.062 101.026 158.062 107.361C158.063 113.829 155.514 114.794 153.995 114.794ZM154.022 101.335C152.333 101.335 151.241 103.76 151.241 107.513C151.241 111.23 152.297 113.539 153.996 113.539C156.504 113.539 156.776 109.219 156.776 107.362C156.776 105.111 156.417 101.335 154.022 101.335Z" fill="#00539C"/>
<path d="M245.652 142.228H200.297C199.354 142.228 198.59 141.482 198.59 140.563V105.939C198.59 105.019 199.355 104.273 200.297 104.273H245.652C246.595 104.273 247.359 105.019 247.359 105.939V140.563C247.359 141.482 246.595 142.228 245.652 142.228Z" fill="#FCF9F9"/>
<path d="M225.597 132.742C225.597 133.976 224.572 134.976 223.306 134.976C222.041 134.976 221.016 133.976 221.016 132.742C221.016 131.508 222.041 130.508 223.306 130.508C224.571 130.508 225.597 131.509 225.597 132.742Z" fill="#BCE4ED"/>
<path d="M223.307 135.83C221.561 135.83 220.141 134.445 220.141 132.742C220.141 131.038 221.561 129.652 223.307 129.652C225.054 129.652 226.474 131.038 226.474 132.742C226.475 134.445 225.054 135.83 223.307 135.83ZM223.307 131.362C222.527 131.362 221.893 131.981 221.893 132.742C221.893 133.503 222.528 134.122 223.307 134.122C224.087 134.122 224.722 133.503 224.722 132.742C224.722 131.981 224.088 131.362 223.307 131.362Z" fill="#6A8F9B"/>
<path d="M223.306 115.994C224.572 115.994 225.597 114.994 225.597 113.76C225.597 112.526 224.572 111.525 223.306 111.525C222.041 111.525 221.016 112.526 221.016 113.76C221.016 114.994 222.041 115.994 223.306 115.994Z" fill="#BCE4ED"/>
<path d="M223.307 116.849C221.561 116.849 220.141 115.464 220.141 113.76C220.141 112.057 221.561 110.672 223.307 110.672C225.054 110.672 226.474 112.057 226.474 113.76C226.475 115.464 225.054 116.849 223.307 116.849ZM223.307 112.381C222.527 112.381 221.893 112.999 221.893 113.76C221.893 114.521 222.528 115.14 223.307 115.14C224.087 115.14 224.722 114.521 224.722 113.76C224.722 112.999 224.088 112.381 223.307 112.381Z" fill="#6A8F9B"/>
<path d="M223.309 113.045C223.309 113.045 219.655 112.994 217.971 115.234C215.704 118.251 217.338 122.668 216.356 124.603C215.374 126.537 212.633 126.853 212.633 126.853V131.629H223.308V113.045H223.309Z" fill="#BCE4ED"/>
<path d="M223.309 132.485H212.634C212.149 132.485 211.758 132.102 211.758 131.63V126.853C211.758 126.422 212.09 126.058 212.529 126.005C212.552 126.002 214.817 125.712 215.573 124.223C215.869 123.64 215.847 122.537 215.821 121.37C215.779 119.324 215.726 116.777 217.264 114.729C219.192 112.165 223.162 112.186 223.322 112.191L223.3 113.9C223.208 113.887 220.065 113.898 218.678 115.74C217.492 117.322 217.535 119.454 217.574 121.336C217.603 122.778 217.63 124.025 217.142 124.983C216.314 126.616 214.537 127.291 213.51 127.55V130.776H223.31V132.485H223.309Z" fill="#6A8F9B"/>
<path d="M223.309 113.046C223.309 113.046 226.963 112.995 228.647 115.235C230.914 118.252 229.28 122.669 230.262 124.604C231.244 126.538 233.984 126.854 233.984 126.854V131.63H223.309V113.046H223.309Z" fill="#BCE4ED"/>
<path d="M233.985 132.485H223.31V130.776H233.109V127.551C232.082 127.29 230.305 126.617 229.477 124.983C228.99 124.025 229.016 122.78 229.045 121.337C229.084 119.455 229.128 117.322 227.941 115.741C226.557 113.899 223.44 113.892 223.32 113.901L223.297 112.191C223.48 112.184 227.427 112.166 229.354 114.729C230.893 116.777 230.841 119.325 230.798 121.372C230.774 122.538 230.751 123.641 231.047 124.224C231.802 125.713 234.067 126.003 234.09 126.006C234.529 126.059 234.861 126.423 234.861 126.854V131.631C234.862 132.102 234.469 132.485 233.985 132.485Z" fill="#6A8F9B"/>
<path d="M209.684 121.542H206.283C205.799 121.542 205.406 121.16 205.406 120.688C205.406 120.216 205.799 119.833 206.283 119.833H209.684C210.168 119.833 210.561 120.216 210.561 120.688C210.561 121.159 210.168 121.542 209.684 121.542Z" fill="#939AA0"/>
<path d="M210.18 117.085C210.049 117.085 209.915 117.056 209.79 116.995L207.028 115.648C206.595 115.437 206.419 114.923 206.636 114.501C206.854 114.079 207.381 113.91 207.811 114.119L210.572 115.466C211.006 115.677 211.182 116.19 210.965 116.612C210.811 116.912 210.501 117.085 210.18 117.085Z" fill="#939AA0"/>
<path d="M240.336 121.542H236.935C236.452 121.542 236.059 121.16 236.059 120.688C236.059 120.216 236.451 119.833 236.935 119.833H240.336C240.82 119.833 241.212 120.216 241.212 120.688C241.212 121.159 240.82 121.542 240.336 121.542Z" fill="#939AA0"/>
<path d="M236.441 117.084C236.119 117.084 235.81 116.912 235.655 116.613C235.439 116.189 235.614 115.677 236.047 115.465L238.807 114.119C239.246 113.907 239.767 114.08 239.984 114.501C240.201 114.923 240.025 115.436 239.593 115.648L236.832 116.995C236.705 117.055 236.572 117.084 236.441 117.084Z" fill="#939AA0"/>
<path d="M241.723 143.083H234.998C234.515 143.083 234.122 142.701 234.122 142.228C234.122 141.756 234.515 141.374 234.998 141.374H241.723C244.347 141.374 246.482 139.291 246.482 136.733V109.77C246.482 107.211 244.347 105.129 241.723 105.129H230.228C229.744 105.129 229.352 104.746 229.352 104.274C229.352 103.802 229.744 103.419 230.228 103.419H241.723C245.314 103.419 248.235 106.268 248.235 109.769V136.732C248.235 140.234 245.314 143.083 241.723 143.083Z" fill="#939AA0"/>
<path d="M222.573 105.128H216.259C215.775 105.128 215.383 104.745 215.383 104.273C215.383 103.801 215.775 103.418 216.259 103.418H222.573C223.057 103.418 223.449 103.801 223.449 104.273C223.449 104.745 223.057 105.128 222.573 105.128Z" fill="#939AA0"/>
<path d="M92.9505 210.537H48.1753C47.099 210.537 46.2266 209.686 46.2266 208.636V125.655C46.2266 124.605 47.099 123.754 48.1753 123.754H92.9505C94.0268 123.754 94.8992 124.605 94.8992 125.655V208.636C94.8992 209.686 94.0268 210.537 92.9505 210.537Z" fill="#FCF9F9"/>
<path d="M83.9654 139.528V149.573H75.7214V157.682H65.4322V149.573H57.1797V139.528H65.4322V131.557H75.7214V139.528H83.9654Z" fill="#81F2EF"/>
<path d="M75.7231 158.538H65.4339C64.9503 158.538 64.558 158.155 64.558 157.683V150.428H57.1814C56.6977 150.428 56.3047 150.046 56.3047 149.574V139.529C56.3047 139.057 56.697 138.674 57.1814 138.674H64.558V131.556C64.558 131.085 64.9503 130.701 65.4339 130.701H75.7231C76.2067 130.701 76.5997 131.084 76.5997 131.556V138.674H83.9671C84.4508 138.674 84.8438 139.056 84.8438 139.529V149.574C84.8438 150.046 84.4515 150.428 83.9671 150.428H76.5997V157.683C76.599 158.155 76.2067 158.538 75.7231 158.538ZM66.3106 156.829H74.8471V149.574C74.8471 149.102 75.2394 148.719 75.7231 148.719H83.0905V140.383H75.7231C75.2394 140.383 74.8471 140 74.8471 139.529V132.411H66.3106V139.529C66.3106 140 65.9183 140.383 65.4339 140.383H58.0573V148.719H65.4339C65.9176 148.719 66.3106 149.101 66.3106 149.574V156.829Z" fill="#2D918A"/>
<path d="M80.9645 179.798H59.4883V181.507H80.9645V179.798Z" fill="#939AA0"/>
<path d="M87.3682 193.84H53.7773V195.549H87.3682V193.84Z" fill="#939AA0"/>
<path d="M87.3682 186.818H53.7773V188.528H87.3682V186.818Z" fill="#939AA0"/>
<path d="M87.3682 200.816H53.7773V202.526H87.3682V200.816Z" fill="#939AA0"/>
<path d="M87.3722 170.2H53.7812V175.162H87.3722V170.2Z" fill="#939AA0"/>
<path d="M46.2275 194.932C45.7439 194.932 45.3516 194.549 45.3516 194.077V189.977C45.3516 189.506 45.7439 189.123 46.2275 189.123C46.7112 189.123 47.1042 189.506 47.1042 189.977V194.077C47.1035 194.548 46.7112 194.932 46.2275 194.932Z" fill="#939AA0"/>
<path d="M88.4697 211.391H52.6588C48.6302 211.391 45.3516 208.194 45.3516 204.265V199.849C45.3516 199.377 45.7439 198.995 46.2275 198.995C46.7112 198.995 47.1042 199.377 47.1042 199.849V204.265C47.1042 207.252 49.5961 209.681 52.6588 209.681H88.4697C91.5323 209.681 94.0242 207.252 94.0242 204.265V156.276C94.0242 155.805 94.4165 155.422 94.9009 155.422C95.3846 155.422 95.7776 155.805 95.7776 156.276V204.265C95.7776 208.194 92.4989 211.391 88.4697 211.391Z" fill="#939AA0"/>
<path d="M46.2275 178.355C45.7439 178.355 45.3516 177.973 45.3516 177.5V130.025C45.3516 126.095 48.6295 122.899 52.6588 122.899H88.4697C92.4989 122.899 95.7769 126.096 95.7769 130.025V142.979C95.7769 143.451 95.3846 143.835 94.9002 143.835C94.4165 143.835 94.0235 143.452 94.0235 142.979V130.025C94.0235 127.038 91.5316 124.609 88.4689 124.609H52.6581C49.5954 124.609 47.1035 127.039 47.1035 130.025V177.5C47.1035 177.973 46.7112 178.355 46.2275 178.355Z" fill="#939AA0"/>
<path d="M132.265 210.537C149.298 210.537 163.107 193.17 163.107 171.747C163.107 150.324 149.298 132.957 132.265 132.957C115.231 132.957 101.422 150.324 101.422 171.747C101.422 193.17 115.231 210.537 132.265 210.537Z" fill="#939AA0"/>
<path d="M166.006 171.606C166.006 190.317 155.731 205.788 142.341 208.325C141.079 208.576 139.767 208.702 138.453 208.702C123.26 208.702 110.926 192.101 110.926 171.606C110.926 167.663 111.389 163.87 112.213 160.304C115.226 147.595 123.157 137.875 132.994 135.213C133.019 135.188 133.046 135.188 133.097 135.188C134.771 134.737 136.496 134.51 138.273 134.485C138.299 134.51 138.325 134.485 138.325 134.485H138.454C153.671 134.485 166.006 151.086 166.006 171.606Z" fill="#1E5259"/>
<path d="M225.513 213.324C227.16 217.72 226.388 221.863 223.761 223.37C221.135 224.852 218.2 223.722 218.2 223.722C218.2 223.722 217.942 227.891 215.496 229.749C211.402 232.863 205.994 230.277 205.994 230.277C205.994 230.277 205.891 231.784 201.102 232.788C194.047 234.27 190.003 230.628 190.003 230.628C190.003 230.628 188.69 234.044 183.437 234.27C182.87 234.295 182.046 234.094 181.016 233.743C177.875 232.638 172.854 229.975 167.523 226.785C167.497 226.785 167.471 226.76 167.446 226.735C162.914 224.023 158.15 220.908 154.133 218.07C149.833 215.006 146.383 212.243 144.966 210.535C138.991 203.377 129.979 170.852 124.7 164.573C124.314 164.096 123.902 163.694 123.516 163.318C121.172 161.082 118.649 160.279 116.305 160.103C114.864 159.977 113.473 160.103 112.211 160.304C114.554 150.433 119.859 142.372 126.709 138.027C128.691 136.771 130.777 135.816 132.992 135.213C133.017 135.189 133.043 135.189 133.095 135.189C134.28 135.038 136.108 134.787 138.271 134.485C138.297 134.51 138.323 134.485 138.323 134.485C145.635 133.556 157.121 132.3 164.588 133.38C174.888 134.862 185.832 139.132 192.424 142.573C198.99 145.989 211.273 156.461 215.857 158.169C220.466 159.877 226.389 160.958 226.595 164.147C226.672 165.152 226.491 166.383 226.002 167.613C224.972 170.351 222.5 173.163 218.277 173.766C212.148 174.62 204.912 171.857 201.617 170.577C198.347 169.271 194.819 166.508 193.737 167.788C192.63 169.07 198.888 184.39 204.14 190.544C208.981 196.195 222.989 206.568 225.513 213.324Z" fill="#F9AA8F"/>
<path d="M218.011 223.68C217.6 223.68 217.232 223.396 217.152 222.988C217.147 222.966 216.705 220.748 215.957 218.174C215.002 214.888 210.053 211.538 206.078 208.845C204.729 207.932 203.467 207.076 202.447 206.292C198.238 203.05 193.131 196.259 192.915 195.972C192.63 195.591 192.714 195.056 193.106 194.778C193.496 194.499 194.045 194.581 194.33 194.963C194.382 195.031 199.513 201.854 203.534 204.949C204.528 205.715 205.761 206.55 207.078 207.441C211.503 210.437 216.518 213.833 217.644 217.709C218.413 220.356 218.855 222.57 218.872 222.662C218.964 223.126 218.653 223.574 218.178 223.664C218.122 223.676 218.066 223.68 218.011 223.68Z" fill="#CC6148"/>
<path d="M205.993 230.078C205.993 230.078 205.993 230.078 205.991 230.078C205.507 230.077 205.116 229.694 205.117 229.221C205.117 229.181 205.114 225.143 204.121 221.736C203.271 218.819 200.623 217.015 195.813 213.742L194.098 212.57C188.092 208.446 182.681 199.377 182.454 198.993C182.211 198.585 182.355 198.061 182.774 197.826C183.196 197.589 183.73 197.731 183.971 198.139C184.025 198.229 189.419 207.267 195.106 211.173L196.816 212.34C201.786 215.723 204.786 217.766 205.807 221.268C206.868 224.911 206.869 229.051 206.869 229.225C206.869 229.696 206.476 230.078 205.993 230.078Z" fill="#CC6148"/>
<path d="M190.076 230.683C190.071 230.683 190.066 230.683 190.061 230.683C189.577 230.674 189.191 230.284 189.2 229.812C189.202 229.767 189.263 225.259 187.489 221.893C186.137 219.331 183.059 216.775 180.345 214.52C178.86 213.288 177.458 212.124 176.533 211.103C173.979 208.289 170.544 202.341 170.397 202.09C170.161 201.678 170.31 201.158 170.733 200.926C171.16 200.698 171.69 200.843 171.927 201.254C171.961 201.314 175.416 207.294 177.845 209.971C178.689 210.9 180.046 212.026 181.48 213.22C184.319 215.577 187.537 218.249 189.047 221.112C191.028 224.867 190.957 229.644 190.953 229.845C190.944 230.311 190.554 230.683 190.076 230.683Z" fill="#CC6148"/>
<path d="M159.766 162.442C159.482 162.442 159.204 162.309 159.034 162.06C154.448 155.32 147.801 153.012 147.734 152.99C147.277 152.835 147.034 152.349 147.193 151.903C147.35 151.459 147.848 151.22 148.306 151.374C148.599 151.472 155.566 153.872 160.495 161.115C160.762 161.508 160.653 162.039 160.25 162.3C160.101 162.396 159.933 162.442 159.766 162.442Z" fill="#CC6148"/>
<path d="M126.709 138.026C126.709 138.026 119.086 145.988 117.387 153.046C116.872 155.231 116.511 157.718 116.305 160.103C114.864 159.977 113.473 160.103 112.211 160.304C114.554 150.433 119.859 142.371 126.709 138.026Z" fill="#CC6148"/>
<path d="M153.268 186.166C150.805 184.035 150.578 180.36 152.763 177.956C154.947 175.553 158.715 175.332 161.18 177.464L182.079 195.539C184.542 197.669 184.769 201.345 182.584 203.748C180.4 206.151 176.632 206.372 174.167 204.241L160.095 192.07L153.268 186.166Z" fill="#FCF9F9"/>
<path d="M178.118 206.556C176.503 206.556 174.884 206.003 173.584 204.88L159.511 192.71C159.15 192.396 159.117 191.856 159.437 191.502C159.759 191.151 160.312 191.12 160.675 191.43L174.747 203.6C175.764 204.481 177.086 204.912 178.425 204.841C179.782 204.761 181.024 204.171 181.925 203.18C183.786 201.134 183.592 197.993 181.494 196.178L160.595 178.103C159.579 177.224 158.276 176.792 156.918 176.863C155.561 176.941 154.318 177.531 153.417 178.523C151.556 180.569 151.75 183.71 153.848 185.525C154.21 185.839 154.242 186.379 153.922 186.732C153.599 187.084 153.045 187.115 152.684 186.805C149.864 184.363 149.604 180.14 152.105 177.388C153.318 176.055 154.99 175.262 156.812 175.156C158.648 175.03 160.393 175.642 161.76 176.823L182.659 194.898C185.479 197.34 185.74 201.563 183.238 204.314C181.888 205.799 180.007 206.556 178.118 206.556Z" fill="#939AA0"/>
<path d="M171.629 186.501L182.527 195.927C184.744 197.844 184.765 201.344 182.584 203.744C180.402 206.143 176.833 206.545 174.616 204.628L163.719 195.203L166.496 192.158L171.629 186.501Z" fill="#81F2EF"/>
<path d="M177.971 206.692C176.539 206.692 175.142 206.226 174.033 205.267L163.134 195.842C162.961 195.691 162.855 195.479 162.841 195.252C162.828 195.026 162.907 194.804 163.062 194.633L165.839 191.59C166.16 191.238 166.715 191.206 167.077 191.519C167.437 191.833 167.47 192.374 167.149 192.726L164.954 195.13L175.196 203.987C177.044 205.587 180.063 205.228 181.921 203.18C182.838 202.173 183.335 200.924 183.327 199.659C183.318 198.428 182.828 197.329 181.944 196.566L171.045 187.14C170.683 186.827 170.65 186.287 170.971 185.933C171.29 185.579 171.844 185.548 172.208 185.86L183.107 195.286C184.366 196.375 185.067 197.924 185.079 199.647C185.091 201.334 184.437 202.991 183.238 204.31C181.812 205.878 179.861 206.692 177.971 206.692Z" fill="#2D918A"/>
<path d="M184.991 205.596C181.755 206.192 178.637 204.116 178.026 200.96L172.843 174.191C172.232 171.035 174.36 167.993 177.595 167.397C179.106 167.119 180.59 167.423 181.806 168.146C183.196 168.974 184.235 170.349 184.56 172.032L189.743 198.803C190.354 201.959 188.227 205 184.991 205.596Z" fill="#FCF9F9"/>
<path d="M183.87 206.553C182.509 206.553 181.18 206.156 180.031 205.39C178.523 204.386 177.505 202.869 177.166 201.118L171.982 174.349C171.284 170.734 173.729 167.238 177.434 166.556C177.914 166.464 178.368 166.775 178.457 167.239C178.547 167.702 178.234 168.149 177.758 168.237C175.003 168.743 173.185 171.343 173.705 174.032L178.889 200.8C179.14 202.103 179.898 203.232 181.019 203.979C182.142 204.726 183.495 204.998 184.829 204.754C187.585 204.248 189.404 201.648 188.883 198.959L184.701 177.36C184.613 176.896 184.925 176.448 185.399 176.361C185.886 176.275 186.334 176.579 186.424 177.042L190.606 198.642C191.304 202.257 188.859 205.752 185.154 206.435C184.726 206.514 184.297 206.553 183.87 206.553Z" fill="#939AA0"/>
<path d="M187.15 185.418L189.852 199.377C190.402 202.217 188.222 204.998 184.991 205.593C181.761 206.187 178.685 204.374 178.136 201.535L175.434 187.575L187.15 185.418Z" fill="#FF7769"/>
<path d="M183.751 206.561C182.45 206.561 181.192 206.228 180.102 205.583C178.592 204.689 177.588 203.308 177.276 201.694L174.574 187.734C174.485 187.271 174.797 186.823 175.272 186.736L186.988 184.578C187.474 184.489 187.923 184.797 188.012 185.259L190.716 199.219C191.353 202.515 188.858 205.752 185.156 206.433C184.687 206.518 184.215 206.561 183.751 206.561ZM176.459 188.256L178.999 201.376C179.218 202.507 179.932 203.482 181.011 204.122C182.12 204.779 183.479 205.005 184.824 204.753C187.583 204.246 189.451 201.906 188.993 199.536L186.452 186.416L176.459 188.256Z" fill="#DD4231"/>
<path d="M174.502 211.779C177.88 211.779 180.618 209.108 180.618 205.814C180.618 202.52 177.88 199.85 174.502 199.85C171.125 199.85 168.387 202.52 168.387 205.814C168.387 209.108 171.125 211.779 174.502 211.779Z" fill="#FCF9F9"/>
<path d="M174.501 212.864C170.515 212.864 167.273 209.702 167.273 205.814C167.273 201.926 170.515 198.765 174.501 198.765C178.486 198.765 181.729 201.927 181.729 205.814C181.729 209.702 178.486 212.864 174.501 212.864ZM174.501 200.935C171.742 200.935 169.498 203.124 169.498 205.814C169.498 208.505 171.742 210.694 174.501 210.694C177.259 210.694 179.504 208.505 179.504 205.814C179.504 203.124 177.259 200.935 174.501 200.935Z" fill="#939AA0"/>
<path d="M184.203 199.823C184.203 194.906 188.29 190.92 193.331 190.92C198.372 190.92 202.458 194.906 202.458 199.823C202.458 204.74 198.371 208.725 193.331 208.725C188.29 208.726 184.203 204.74 184.203 199.823Z" fill="#FCF9F9"/>
<path d="M193.332 209.58C187.816 209.58 183.328 205.202 183.328 199.823C183.328 194.443 187.816 190.065 193.332 190.065C198.848 190.065 203.336 194.442 203.336 199.823C203.335 205.202 198.848 209.58 193.332 209.58ZM193.332 191.776C188.783 191.776 185.081 195.386 185.081 199.823C185.081 204.26 188.782 207.871 193.332 207.871C197.881 207.871 201.583 204.261 201.583 199.823C201.582 195.386 197.881 191.776 193.332 191.776Z" fill="#939AA0"/>
<path d="M202.459 200.678H194.603C194.119 200.678 193.727 200.296 193.727 199.824C193.727 199.352 194.119 198.969 194.603 198.969H202.459C202.942 198.969 203.334 199.351 203.334 199.824C203.334 200.296 202.942 200.678 202.459 200.678Z" fill="#939AA0"/>
<path d="M189.357 200.678H185.079C184.595 200.678 184.203 200.296 184.203 199.824C184.203 199.352 184.595 198.969 185.079 198.969H189.357C189.841 198.969 190.233 199.351 190.233 199.824C190.233 200.296 189.841 200.678 189.357 200.678Z" fill="#939AA0"/>
<path d="M199.574 204.873C199.574 202.098 201.88 199.85 204.724 199.85C207.568 199.85 209.874 202.098 209.874 204.873C209.874 207.647 207.568 209.896 204.724 209.896C201.88 209.896 199.574 207.647 199.574 204.873Z" fill="#81F2EF"/>
<path d="M204.725 210.75C201.402 210.75 198.699 208.113 198.699 204.872C198.699 201.631 201.402 198.995 204.725 198.995C208.047 198.995 210.752 201.631 210.752 204.872C210.752 208.113 208.047 210.75 204.725 210.75ZM204.725 200.704C202.369 200.704 200.452 202.574 200.452 204.871C200.452 207.171 202.369 209.04 204.725 209.04C207.082 209.04 208.999 207.171 208.999 204.871C208.999 202.574 207.082 200.704 204.725 200.704Z" fill="#2D918A"/>
<path d="M76.0774 229.543C76.0774 230.841 74.9982 231.894 73.6676 231.894C72.337 231.894 71.2578 230.841 71.2578 229.543C71.2578 228.245 72.337 227.192 73.6676 227.192C74.9982 227.192 76.0774 228.245 76.0774 229.543Z" fill="#FCD9D9"/>
<path d="M37.0698 163.607C37.3205 164.855 36.4863 166.065 35.2067 166.31C33.9271 166.554 32.6858 165.741 32.4351 164.493C32.1844 163.245 33.0186 162.035 34.2982 161.789C35.5785 161.545 36.8191 162.359 37.0698 163.607Z" fill="#FCD9D9"/>
<path d="M33.4553 153.19C33.6267 154.044 33.0559 154.872 32.1807 155.04C31.3054 155.207 30.4564 154.65 30.2843 153.797C30.113 152.943 30.683 152.115 31.559 151.948C32.4349 151.78 33.284 152.337 33.4553 153.19Z" fill="#FCD9D9"/>
<path d="M236.899 194.491C236.899 195.78 235.827 196.826 234.506 196.826C233.185 196.826 232.113 195.781 232.113 194.491C232.113 193.202 233.185 192.157 234.506 192.157C235.827 192.157 236.899 193.202 236.899 194.491Z" fill="#FCD9D9"/>
<path d="M240.337 180.304C240.337 180.982 239.773 181.532 239.079 181.532C238.384 181.532 237.82 180.982 237.82 180.304C237.82 179.627 238.384 179.077 239.079 179.077C239.773 179.077 240.337 179.626 240.337 180.304Z" fill="#FCD9D9"/>
<path d="M156.332 33.7689C156.332 34.4264 155.786 34.9596 155.111 34.9596C154.437 34.9596 153.891 34.4264 153.891 33.7689C153.891 33.1113 154.437 32.5781 155.111 32.5781C155.786 32.5781 156.332 33.1113 156.332 33.7689Z" fill="#FCD9D9"/>
<path d="M55.8484 74.9862C55.8484 75.6589 55.2897 76.2039 54.6 76.2039C53.9103 76.2039 53.3516 75.6589 53.3516 74.9862C53.3516 74.3142 53.9103 73.7686 54.6 73.7686C55.289 73.7686 55.8484 74.3135 55.8484 74.9862Z" fill="#FCD9D9"/>
<path d="M41.59 106.755C41.59 107.873 40.6602 108.78 39.5137 108.78C38.3673 108.78 37.4375 107.873 37.4375 106.755C37.4375 105.636 38.3673 104.729 39.5137 104.729C40.6609 104.729 41.59 105.636 41.59 106.755Z" fill="#FCD9D9"/>
<path d="M173.026 59.8458C173.026 61.1277 171.96 62.1671 170.646 62.1671C169.331 62.1671 168.266 61.1277 168.266 59.8458C168.266 58.5639 169.331 57.5244 170.646 57.5244C171.961 57.5251 173.026 58.5639 173.026 59.8458Z" fill="#FCF9F9"/>
<path d="M34.7519 95.3476C34.7519 95.8235 34.356 96.2096 33.8681 96.2096C33.3802 96.2096 32.9844 95.8235 32.9844 95.3476C32.9844 94.8717 33.3802 94.4863 33.8681 94.4863C34.356 94.4856 34.7519 94.8717 34.7519 95.3476Z" fill="#FCD9D9"/>
<path d="M82.9398 225.061C82.9398 225.593 82.498 226.025 81.9527 226.025C81.4074 226.025 80.9648 225.594 80.9648 225.061C80.9648 224.53 81.4067 224.099 81.9527 224.099C82.4972 224.099 82.9398 224.53 82.9398 225.061Z" fill="#FCD9D9"/>
<path d="M58.5238 220.085C59.0568 220.085 59.489 219.663 59.489 219.144C59.489 218.624 59.0568 218.202 58.5238 218.202C57.9907 218.202 57.5586 218.624 57.5586 219.144C57.5586 219.663 57.9907 220.085 58.5238 220.085Z" fill="#FCD9D9"/>
<path d="M223.743 184.909C223.743 185.643 223.133 186.237 222.381 186.237C221.629 186.237 221.02 185.643 221.02 184.909C221.02 184.176 221.629 183.581 222.381 183.581C223.133 183.58 223.743 184.175 223.743 184.909Z" fill="#FCF9F9"/>
<path d="M106.702 65.6936C107.701 65.6936 108.51 64.9041 108.51 63.9303C108.51 62.9564 107.701 62.167 106.702 62.167C105.704 62.167 104.895 62.9564 104.895 63.9303C104.895 64.9041 105.704 65.6936 106.702 65.6936Z" fill="#FCF9F9"/>
<path d="M164.27 64.8787C164.27 65.4029 163.835 65.8277 163.297 65.8277C162.76 65.8277 162.324 65.4029 162.324 64.8787C162.324 64.3545 162.76 63.9297 163.297 63.9297C163.835 63.9297 164.27 64.3545 164.27 64.8787Z" fill="#FCF9F9"/>
</svg>
