<svg width="32" height="54" viewBox="0 0 32 54" fill="none" xmlns="http://www.w3.org/2000/svg">
<g filter="url(#filter0_d_1049_2906)">
<circle cx="16" cy="38" r="12" fill="white"/>
<path d="M22.8111 38.4984C22.8111 42.0883 19.901 44.4984 16.3111 44.4984C12.7213 44.4984 10 42.0905 10 38.5006C10 34.9108 13 31.0003 16.5 31.5005C20 31.0003 22.8111 34.9086 22.8111 38.4984Z" fill="#1F2587" fill-opacity="0.3"/>
<path d="M16.3055 4.25391C11.1483 4.25391 6.91999 6.6588 6.62801 9.6799L6.5753 9.63291C6.55308 9.613 6.52427 9.5958 6.4905 9.58232C6.45673 9.56883 6.41868 9.55931 6.37851 9.5543C6.33835 9.5493 6.29687 9.54891 6.25644 9.55315C6.21601 9.55739 6.17743 9.56618 6.14291 9.57903C6.1084 9.59187 6.07862 9.60851 6.05528 9.62799C6.03194 9.64747 6.0155 9.66941 6.00691 9.69255C5.99831 9.7157 5.99773 9.73959 6.0052 9.76287C6.01266 9.78614 6.02802 9.80834 6.0504 9.82819L6.68486 10.394C6.71317 10.4192 6.75203 10.44 6.79788 10.4544C6.84372 10.4688 6.8951 10.4763 6.94731 10.4763C6.99952 10.4763 7.0509 10.4688 7.09674 10.4544C7.14259 10.44 7.18145 10.4192 7.20976 10.394L7.84422 9.82819C7.8665 9.80834 7.88176 9.78615 7.88915 9.7629C7.89654 9.73966 7.8959 9.7158 7.88727 9.69269C7.87865 9.66958 7.86221 9.64768 7.83888 9.62823C7.81556 9.60879 7.78581 9.59218 7.75134 9.57935C7.71687 9.56653 7.67835 9.55774 7.63798 9.55349C7.59761 9.54924 7.55619 9.54962 7.51607 9.55459C7.47595 9.55956 7.43793 9.56904 7.40417 9.58248C7.37041 9.59592 7.34158 9.61305 7.31932 9.63291L7.25301 9.69204C7.53346 6.86386 11.4857 4.61388 16.3055 4.61388C21.3066 4.61388 25.3753 7.03612 25.3753 10.0134C25.3753 12.9908 21.3066 15.413 16.3055 15.413C12.0592 15.413 8.42543 13.6954 7.46886 11.236C7.45993 11.213 7.4432 11.1911 7.41961 11.1718C7.39601 11.1524 7.36603 11.1359 7.33136 11.1232C7.2967 11.1106 7.25803 11.1019 7.21758 11.0979C7.17713 11.0938 7.13568 11.0944 7.09561 11.0995C7.05554 11.1047 7.01764 11.1144 6.98406 11.128C6.95048 11.1416 6.92189 11.1589 6.89993 11.1789C6.87796 11.1989 6.86305 11.2211 6.85605 11.2444C6.84905 11.2678 6.85009 11.2916 6.85912 11.3147C7.87993 13.9397 11.7645 15.773 16.3055 15.773C21.6513 15.773 26.0004 13.1893 26.0004 10.0134C26.0004 6.83764 21.6513 4.25391 16.3055 4.25391Z" fill="#1F2587"/>
<path d="M16.3125 7.58389C16.3954 7.58389 16.4749 7.56491 16.5335 7.53113C16.5921 7.49734 16.625 7.45152 16.625 7.40374V7.04343C16.625 6.99565 16.5921 6.94983 16.5335 6.91605C16.4749 6.88226 16.3954 6.86328 16.3125 6.86328C16.2296 6.86328 16.1501 6.88226 16.0915 6.91605C16.0329 6.94983 16 6.99565 16 7.04343V7.40374C16 7.45152 16.0329 7.49734 16.0915 7.53113C16.1501 7.56491 16.2296 7.58389 16.3125 7.58389Z" fill="#1F2587"/>
<path d="M16 12.6235V12.9838C16 13.0316 16.0329 13.0774 16.0915 13.1112C16.1501 13.145 16.2296 13.164 16.3125 13.164C16.3954 13.164 16.4749 13.145 16.5335 13.1112C16.5921 13.0774 16.625 13.0316 16.625 12.9838V12.6235C16.625 12.5757 16.5921 12.5299 16.5335 12.4961C16.4749 12.4623 16.3954 12.4434 16.3125 12.4434C16.2296 12.4434 16.1501 12.4623 16.0915 12.4961C16.0329 12.5299 16 12.5757 16 12.6235Z" fill="#1F2587"/>
<path d="M11.7812 9.83301H11.1562C11.0734 9.83301 10.9939 9.85199 10.9353 9.88577C10.8767 9.91956 10.8438 9.96538 10.8438 10.0132C10.8438 10.0609 10.8767 10.1068 10.9353 10.1405C10.9939 10.1743 11.0734 10.1933 11.1562 10.1933H11.7812C11.8641 10.1933 11.9436 10.1743 12.0022 10.1405C12.0608 10.1068 12.0938 10.0609 12.0938 10.0132C12.0938 9.96538 12.0608 9.91956 12.0022 9.88577C11.9436 9.85199 11.8641 9.83301 11.7812 9.83301Z" fill="#1F2587"/>
<path d="M13.3308 8.04083L12.8888 7.78604C12.8301 7.75231 12.7507 7.73337 12.6678 7.7334C12.585 7.73343 12.5055 7.75241 12.447 7.78619C12.3884 7.81996 12.3555 7.86576 12.3555 7.91352C12.3554 7.96128 12.3883 8.00709 12.4469 8.04088L12.8889 8.29567C12.9475 8.32945 13.027 8.34842 13.1099 8.34842C13.1928 8.34841 13.2723 8.32942 13.3309 8.29563C13.3895 8.26183 13.4224 8.216 13.4224 8.16822C13.4224 8.12044 13.3894 8.07461 13.3308 8.04083Z" fill="#1F2587"/>
<path d="M19.7366 8.29542L20.1786 8.04063C20.237 8.00681 20.2697 7.96104 20.2696 7.91334C20.2695 7.86565 20.2366 7.81992 20.1781 7.78619C20.1196 7.75246 20.0403 7.73347 19.9576 7.7334C19.8748 7.73332 19.7954 7.75217 19.7367 7.78579L19.2947 8.04058C19.2361 8.07437 19.2031 8.12019 19.2031 8.16797C19.2031 8.21575 19.236 8.26158 19.2946 8.29538C19.3532 8.32917 19.4327 8.34816 19.5156 8.34817C19.5985 8.34817 19.678 8.3292 19.7366 8.29542Z" fill="#1F2587"/>
<path d="M12.8882 11.7314L12.4462 11.9861C12.3879 12.02 12.3553 12.0657 12.3555 12.1134C12.3556 12.1611 12.3885 12.2067 12.447 12.2404C12.5054 12.2742 12.5847 12.2931 12.6673 12.2932C12.75 12.2933 12.8294 12.2745 12.8881 12.241L13.3301 11.9862C13.3887 11.9524 13.4215 11.9066 13.4215 11.8588C13.4215 11.8111 13.3886 11.7653 13.33 11.7315C13.2715 11.6977 13.192 11.6787 13.1092 11.6787C13.0263 11.6787 12.9469 11.6976 12.8882 11.7314Z" fill="#1F2587"/>
<path d="M17.4058 10.0139C17.4055 9.87829 17.3293 9.74639 17.1886 9.6377C17.0479 9.52902 16.8501 9.44933 16.6246 9.41046V8.30401C16.6246 8.25627 16.5917 8.21049 16.5331 8.17674C16.4745 8.14299 16.395 8.12402 16.3121 8.12402C16.2292 8.12402 16.1497 8.14299 16.0911 8.17674C16.0325 8.21049 15.9996 8.25627 15.9996 8.30401V9.41046C15.8053 9.44386 15.6309 9.50773 15.4959 9.59493C15.361 9.68213 15.2708 9.78922 15.2355 9.90424C15.2001 10.0193 15.221 10.1377 15.2958 10.2462C15.3706 10.3548 15.4963 10.4493 15.659 10.5191C15.8216 10.5888 16.0147 10.6312 16.2168 10.6414C16.4188 10.6516 16.6218 10.6293 16.803 10.5769C16.9842 10.5244 17.1366 10.444 17.2431 10.3446C17.3495 10.2452 17.4059 10.1307 17.4058 10.0139ZM16.3121 10.2839C16.2194 10.2839 16.1288 10.268 16.0517 10.2384C15.9746 10.2087 15.9145 10.1665 15.879 10.1172C15.8435 10.0679 15.8343 10.0136 15.8523 9.9612C15.8704 9.90883 15.9151 9.86073 15.9806 9.82297C16.0462 9.78521 16.1297 9.7595 16.2206 9.74908C16.3116 9.73866 16.4058 9.74401 16.4915 9.76444C16.5771 9.78488 16.6503 9.81948 16.7018 9.86388C16.7533 9.90828 16.7808 9.96048 16.7808 10.0139C16.7807 10.0855 16.7313 10.1541 16.6434 10.2047C16.5555 10.2553 16.4364 10.2838 16.3121 10.2839Z" fill="#1F2587"/>
<path d="M16.3148 6.14355C15.3046 6.14335 14.3073 6.27437 13.3971 6.52685C12.4869 6.77932 11.6873 7.14676 11.0578 7.60183C10.4282 8.05689 9.98498 8.58786 9.76099 9.15523C9.53699 9.7226 9.53802 10.3118 9.764 10.8789C9.98998 11.446 10.4351 11.9764 11.0662 12.4308C11.6973 12.8851 12.4982 13.2516 13.4093 13.503C14.3203 13.7544 15.3181 13.8843 16.3283 13.8829C17.3386 13.8816 18.3353 13.749 19.2443 13.4951C19.0888 13.4101 18.9597 13.3104 18.8625 13.2003C17.6765 13.5147 16.3466 13.6014 15.0686 13.4476C13.7906 13.2937 12.6322 12.9075 11.7641 12.3459C10.896 11.7842 10.3641 11.0768 10.2469 10.3278C10.1296 9.57892 10.4331 8.82811 11.1127 8.18605C11.7923 7.54399 12.8121 7.04464 14.0216 6.7616C15.2312 6.47856 16.5667 6.42679 17.8312 6.61392C19.0957 6.80106 20.2224 7.21719 21.0453 7.80101C21.8681 8.38482 22.3436 9.10544 22.4017 9.85666C22.6539 9.97801 22.862 10.1269 23.0138 10.2948C23.0255 10.2017 23.0336 10.108 23.0336 10.0132C23.0315 8.9873 22.323 8.0037 21.0635 7.27824C19.8039 6.55279 18.0961 6.14472 16.3148 6.14355Z" fill="#1F2587"/>
<path d="M18.3857 10.9403C18.3818 10.9774 18.3798 11.0156 18.3798 11.0548C18.3798 12.0182 18.095 12.1701 17.7653 12.346C17.7296 12.365 17.6937 12.3841 17.6579 12.4041C17.6131 12.4291 17.5823 12.4611 17.5693 12.4962C17.5564 12.5313 17.5619 12.5678 17.5853 12.601C17.6086 12.6343 17.6487 12.6627 17.7003 12.6828C17.7519 12.7028 17.8128 12.7135 17.875 12.7135H19.2813C19.2813 12.9045 19.413 13.0876 19.6474 13.2226C19.8818 13.3576 20.1997 13.4335 20.5313 13.4335C20.8628 13.4335 21.1807 13.3576 21.4152 13.2226C21.6496 13.0876 21.7813 12.9045 21.7813 12.7135H23.1875C23.2498 12.7135 23.3106 12.7028 23.3623 12.6828C23.4139 12.6627 23.4539 12.6343 23.4773 12.601C23.5006 12.5678 23.5062 12.5313 23.4932 12.4962C23.4803 12.4611 23.4494 12.429 23.4047 12.4041C23.3688 12.3841 23.3329 12.365 23.2972 12.346C22.9675 12.1701 22.6828 12.0182 22.6828 11.0548C22.6828 11.0156 22.6808 10.9774 22.6768 10.9404C22.6652 10.7211 22.5412 10.5086 22.3204 10.3297C22.0996 10.1508 21.792 10.0136 21.4361 9.93512C21.4211 9.91695 21.4009 9.90036 21.3763 9.88604C21.4458 9.80244 21.4767 9.70994 21.4661 9.61745C21.4555 9.52497 21.4037 9.43562 21.3157 9.35801C21.2278 9.2804 21.1066 9.21714 20.9639 9.17432C20.8211 9.13151 20.6617 9.11058 20.5008 9.11356C20.34 9.11654 20.1832 9.14332 20.0455 9.19133C19.9079 9.23933 19.794 9.30694 19.7149 9.38765C19.6358 9.46836 19.594 9.55944 19.5938 9.65212C19.5935 9.74481 19.6347 9.83597 19.7133 9.91683C19.3367 9.98866 19.0075 10.1253 18.7701 10.3084C18.5327 10.4914 18.3985 10.712 18.3857 10.9403ZM20.5313 13.0735C20.3656 13.0734 20.2067 13.0354 20.0895 12.968C19.9723 12.9005 19.9064 12.809 19.9063 12.7135H21.1563C21.1561 12.809 21.0902 12.9005 20.973 12.968C20.8558 13.0354 20.697 13.0734 20.5313 13.0735ZM20.5313 9.47379C20.5931 9.47379 20.6535 9.48435 20.7049 9.50412C20.7563 9.5239 20.7963 9.55201 20.82 9.5849C20.8436 9.61779 20.8498 9.65398 20.8378 9.68889C20.8257 9.7238 20.7959 9.75587 20.7522 9.78105C20.7085 9.80622 20.6529 9.82336 20.5922 9.8303C20.5316 9.83725 20.4688 9.83368 20.4117 9.82006C20.3546 9.80644 20.3058 9.78337 20.2714 9.75377C20.2371 9.72417 20.2188 9.68937 20.2188 9.65378C20.2189 9.60606 20.2518 9.56031 20.3104 9.52657C20.369 9.49283 20.4484 9.47385 20.5313 9.47379ZM19.0095 10.9619C19.0646 10.4312 19.8135 10.1937 20.5313 10.1937C21.249 10.1937 21.9979 10.4312 22.053 10.962C22.0561 10.992 22.0578 11.023 22.0578 11.0548C22.0578 11.7827 22.2149 12.1243 22.4774 12.3536H18.5852C18.8476 12.1243 19.0048 11.7827 19.0048 11.0548C19.0048 11.023 19.0065 10.992 19.0095 10.9619Z" fill="#1F2587"/>
</g>
<defs>
<filter id="filter0_d_1049_2906" x="0" y="0.253906" width="32" height="53.7461" filterUnits="userSpaceOnUse" color-interpolation-filters="sRGB">
<feFlood flood-opacity="0" result="BackgroundImageFix"/>
<feColorMatrix in="SourceAlpha" type="matrix" values="0 0 0 0 0 0 0 0 0 0 0 0 0 0 0 0 0 0 127 0" result="hardAlpha"/>
<feOffset/>
<feGaussianBlur stdDeviation="2"/>
<feComposite in2="hardAlpha" operator="out"/>
<feColorMatrix type="matrix" values="0 0 0 0 0 0 0 0 0 0 0 0 0 0 0 0 0 0 0.25 0"/>
<feBlend mode="normal" in2="BackgroundImageFix" result="effect1_dropShadow_1049_2906"/>
<feBlend mode="normal" in="SourceGraphic" in2="effect1_dropShadow_1049_2906" result="shape"/>
</filter>
</defs>
</svg>
