<svg width="26" height="26" viewBox="0 0 26 26" fill="none" xmlns="http://www.w3.org/2000/svg">
<path fill-rule="evenodd" clip-rule="evenodd" d="M11 14C11 12.8954 11.8954 12 13 12C14.1046 12 15 12.8954 15 14C15 15.1046 14.1046 16 13 16C12.4696 16 11.9609 15.7893 11.5858 15.4142C11.2107 15.0391 11 14.5304 11 14Z" stroke="#1F2587" stroke-width="1.5" stroke-linecap="round" stroke-linejoin="round"/>
<path fill-rule="evenodd" clip-rule="evenodd" d="M8.127 8.07343L10.859 6.55343C12.1913 5.81552 13.8097 5.81552 15.142 6.55343L17.874 8.07343C19.1778 8.78618 19.9919 10.1505 20 11.6364V15.8184C19.9649 18.1628 18.0363 20.0349 15.692 20.0004H10.308C7.96367 20.0349 6.03509 18.1628 6 15.8184V11.6364C6.00829 10.1503 6.82281 8.78591 8.127 8.07343Z" stroke="#1F2587" stroke-width="1.5" stroke-linecap="round" stroke-linejoin="round"/>
</svg>
