<svg width="16" height="16" viewBox="0 0 16 16" fill="none" xmlns="http://www.w3.org/2000/svg">
<path fill-rule="evenodd" clip-rule="evenodd" d="M10.6667 9.33301C11.5256 9.33306 12.3514 9.6647 12.9719 10.2588C13.5923 10.8529 13.9594 11.6635 13.9967 12.5217L14 12.6663V13.333C14.0001 13.6694 13.8731 13.9934 13.6443 14.24C13.4156 14.4867 13.1021 14.6378 12.7667 14.663L12.6667 14.6663H3.33333C2.99695 14.6664 2.67296 14.5394 2.4263 14.3107C2.17965 14.0819 2.02856 13.7684 2.00333 13.433L2 13.333V12.6663C2.00005 11.8074 2.33169 10.9816 2.92577 10.3612C3.51985 9.74075 4.3305 9.37362 5.18867 9.33634L5.33333 9.33301H10.6667ZM10.6667 10.6663H5.33333C4.82319 10.6663 4.33232 10.8612 3.96116 11.2112C3.59 11.5612 3.3666 12.0397 3.33667 12.549L3.33333 12.6663V13.333H12.6667V12.6663C12.6667 12.1562 12.4718 11.6653 12.1218 11.2942C11.7718 10.923 11.2933 10.6996 10.784 10.6697L10.6667 10.6663ZM8 1.33301C8.88406 1.33301 9.7319 1.6842 10.357 2.30932C10.9821 2.93444 11.3333 3.78229 11.3333 4.66634C11.3333 5.5504 10.9821 6.39824 10.357 7.02336C9.7319 7.64848 8.88406 7.99967 8 7.99967C7.11595 7.99967 6.2681 7.64848 5.64298 7.02336C5.01786 6.39824 4.66667 5.5504 4.66667 4.66634C4.66667 3.78229 5.01786 2.93444 5.64298 2.30932C6.2681 1.6842 7.11595 1.33301 8 1.33301ZM8 2.66634C7.73736 2.66634 7.47728 2.71807 7.23463 2.81858C6.99198 2.91909 6.7715 3.06641 6.58579 3.25213C6.40007 3.43784 6.25275 3.65832 6.15224 3.90097C6.05173 4.14363 6 4.4037 6 4.66634C6 4.92898 6.05173 5.18906 6.15224 5.43171C6.25275 5.67436 6.40007 5.89484 6.58579 6.08055C6.7715 6.26627 6.99198 6.41359 7.23463 6.5141C7.47728 6.61461 7.73736 6.66634 8 6.66634C8.53043 6.66634 9.03914 6.45563 9.41421 6.08055C9.78929 5.70548 10 5.19677 10 4.66634C10 4.13591 9.78929 3.6272 9.41421 3.25213C9.03914 2.87705 8.53043 2.66634 8 2.66634Z" fill="#666666"/>
</svg>
