<svg width="108" height="96" viewBox="0 0 108 96" fill="none" xmlns="http://www.w3.org/2000/svg">
<g opacity="0.3">
<path d="M23.4004 31.2717H5.96484L6.14136 28.1631H23.5769L23.4004 31.2717Z" stroke="black" stroke-width="0.5" stroke-linecap="round" stroke-linejoin="round"/>
<path d="M23.4004 35.6243H5.96484L6.14136 32.5156H23.5769L23.4004 35.6243Z" stroke="black" stroke-width="0.5" stroke-linecap="round" stroke-linejoin="round"/>
<path d="M23.4004 39.9778H5.96484L6.14136 36.8691H23.5769L23.4004 39.9778Z" stroke="black" stroke-width="0.5" stroke-linecap="round" stroke-linejoin="round"/>
<path d="M23.4004 44.3303H5.96484L6.14136 41.2217H23.5769L23.4004 44.3303Z" stroke="black" stroke-width="0.5" stroke-linecap="round" stroke-linejoin="round"/>
<path d="M23.4004 48.686H5.96484L6.14136 45.5752H23.5769L23.4004 48.686Z" stroke="black" stroke-width="0.5" stroke-linecap="round" stroke-linejoin="round"/>
<path d="M23.4004 53.0385H5.96484L6.14136 49.9277H23.5769L23.4004 53.0385Z" stroke="black" stroke-width="0.5" stroke-linecap="round" stroke-linejoin="round"/>
<path d="M23.4004 57.392H5.96484L6.14136 54.2812H23.5769L23.4004 57.392Z" stroke="black" stroke-width="0.5" stroke-linecap="round" stroke-linejoin="round"/>
<path d="M23.4004 61.7446H5.96484L6.14136 58.6338H23.5769L23.4004 61.7446Z" stroke="black" stroke-width="0.5" stroke-linecap="round" stroke-linejoin="round"/>
<path d="M23.4004 66.0981H5.96484L6.14136 62.9873H23.5769L23.4004 66.0981Z" stroke="black" stroke-width="0.5" stroke-linecap="round" stroke-linejoin="round"/>
<path d="M23.4004 70.4506H5.96484L6.14136 67.3398H23.5769L23.4004 70.4506Z" stroke="black" stroke-width="0.5" stroke-linecap="round" stroke-linejoin="round"/>
<path d="M23.4004 74.804H5.96484L6.14136 71.6953H23.5769L23.4004 74.804Z" stroke="black" stroke-width="0.5" stroke-linecap="round" stroke-linejoin="round"/>
<path d="M41.8379 31.2717H24.4023L24.5789 28.1631H42.0144L41.8379 31.2717Z" stroke="black" stroke-width="0.5" stroke-linecap="round" stroke-linejoin="round"/>
<path d="M41.8379 35.6243H24.4023L24.5789 32.5156H42.0144L41.8379 35.6243Z" stroke="black" stroke-width="0.5" stroke-linecap="round" stroke-linejoin="round"/>
<path d="M41.8379 39.9778H24.4023L24.5789 36.8691H42.0144L41.8379 39.9778Z" stroke="black" stroke-width="0.5" stroke-linecap="round" stroke-linejoin="round"/>
<path d="M41.8379 44.3303H24.4023L24.5789 41.2217H42.0144L41.8379 44.3303Z" stroke="black" stroke-width="0.5" stroke-linecap="round" stroke-linejoin="round"/>
<path d="M41.8379 48.686H24.4023L24.5789 45.5752H42.0144L41.8379 48.686Z" stroke="black" stroke-width="0.5" stroke-linecap="round" stroke-linejoin="round"/>
<path d="M41.8379 53.0385H24.4023L24.5789 49.9277H42.0144L41.8379 53.0385Z" stroke="black" stroke-width="0.5" stroke-linecap="round" stroke-linejoin="round"/>
<path d="M41.8379 57.392H24.4023L24.5789 54.2812H42.0144L41.8379 57.392Z" stroke="black" stroke-width="0.5" stroke-linecap="round" stroke-linejoin="round"/>
<path d="M41.8379 61.7446H24.4023L24.5789 58.6338H42.0144L41.8379 61.7446Z" stroke="black" stroke-width="0.5" stroke-linecap="round" stroke-linejoin="round"/>
<path d="M41.8379 66.0981H24.4023L24.5789 62.9873H42.0144L41.8379 66.0981Z" stroke="black" stroke-width="0.5" stroke-linecap="round" stroke-linejoin="round"/>
<path d="M41.8379 70.4506H24.4023L24.5789 67.3398H42.0144L41.8379 70.4506Z" stroke="black" stroke-width="0.5" stroke-linecap="round" stroke-linejoin="round"/>
<path d="M41.8379 74.804H24.4023L24.5789 71.6953H42.0144L41.8379 74.804Z" stroke="black" stroke-width="0.5" stroke-linecap="round" stroke-linejoin="round"/>
</g>
<g opacity="0.3">
<path d="M95.4471 34.4902H72.9414V50.218H95.4471V34.4902Z" stroke="black" stroke-width="0.5" stroke-linecap="round" stroke-linejoin="round"/>
<path d="M94.2225 35.79H74.1602V48.9197H94.2225V35.79Z" stroke="black" stroke-width="0.5" stroke-linecap="round" stroke-linejoin="round"/>
<path d="M80.7031 37.8584H87.6825" stroke="black" stroke-width="0.5" stroke-linecap="round" stroke-linejoin="round"/>
<path d="M76.1836 39.7637H92.2024" stroke="black" stroke-width="0.5" stroke-linecap="round" stroke-linejoin="round"/>
<path d="M79.7539 43.5713H88.6331" stroke="black" stroke-width="0.5" stroke-linecap="round" stroke-linejoin="round"/>
<path d="M76.3398 47.3818H79.8307" stroke="black" stroke-width="0.5" stroke-linecap="round" stroke-linejoin="round"/>
<path d="M88.5547 47.3818H92.0432" stroke="black" stroke-width="0.5" stroke-linecap="round" stroke-linejoin="round"/>
</g>
<g opacity="0.3">
<path d="M101.557 53.5352H84.9922V65.1116H101.557V53.5352Z" stroke="black" stroke-width="0.5" stroke-linecap="round" stroke-linejoin="round"/>
<path d="M100.658 54.4922H85.8906V64.1571H100.658V54.4922Z" stroke="black" stroke-width="0.5" stroke-linecap="round" stroke-linejoin="round"/>
<path d="M90.707 56.0156H95.8422" stroke="black" stroke-width="0.5" stroke-linecap="round" stroke-linejoin="round"/>
<path d="M87.3789 57.416H99.1706" stroke="black" stroke-width="0.5" stroke-linecap="round" stroke-linejoin="round"/>
<path d="M90.0078 60.2197H96.5458" stroke="black" stroke-width="0.5" stroke-linecap="round" stroke-linejoin="round"/>
<path d="M87.4961 63.0244H90.0649" stroke="black" stroke-width="0.5" stroke-linecap="round" stroke-linejoin="round"/>
<path d="M96.4844 63.0244H99.0531" stroke="black" stroke-width="0.5" stroke-linecap="round" stroke-linejoin="round"/>
</g>
<path d="M82.3689 61.6784L58.3233 60.906C57.3323 60.8746 56.3414 60.8746 55.3504 60.906L32.9492 61.6784L33.9433 32.6257C33.9804 31.5258 33.9804 30.4245 33.9433 29.3218L32.9492 1.9082H82.3689V61.6784Z" fill="#263238" stroke="#263238" stroke-width="0.5" stroke-linecap="round" stroke-linejoin="round"/>
<path d="M83.1618 0.882812H33.7422V60.653H83.1618V0.882812Z" fill="white" stroke="#263238" stroke-width="0.5" stroke-linecap="round" stroke-linejoin="round"/>
<path d="M79.8764 17.1729H37.0273V57.2399H79.8764V17.1729Z" fill="white" stroke="#263238" stroke-width="0.5" stroke-linecap="round" stroke-linejoin="round"/>
<path d="M37.4297 11.1849V3.85845H39.7523C40.1561 3.84205 40.5573 3.92654 40.9135 4.10302C41.2112 4.26652 41.4422 4.51611 41.5708 4.81314C41.7199 5.17226 41.7909 5.55499 41.7799 5.93946C41.7984 6.33798 41.7073 6.73435 41.5151 7.09153C41.3527 7.37561 41.093 7.60196 40.7765 7.73514C40.4224 7.87522 40.0398 7.94326 39.6547 7.93466H38.872V11.1849H37.4297ZM38.879 6.98855H39.4271C39.6375 6.99743 39.8473 6.96146 40.0403 6.88343C40.1128 6.84983 40.1771 6.80276 40.229 6.74517C40.281 6.68759 40.3195 6.62072 40.3422 6.54875C40.4048 6.34735 40.433 6.13817 40.4258 5.92874C40.4306 5.71272 40.4096 5.49688 40.3631 5.28512C40.3469 5.20994 40.3142 5.13862 40.2671 5.07553C40.22 5.01244 40.1594 4.95892 40.089 4.91827C39.8829 4.82729 39.655 4.78667 39.4271 4.80027H38.879V6.98855Z" fill="#1F2587"/>
<path d="M39.1914 14.7185L40.787 10.831L39.2402 7.39844H40.5919L41.6185 9.66825L42.5196 7.39844H43.7738L42.2386 11.0842L43.883 14.7185H42.5406L41.4141 12.2577L40.434 14.7163L39.1914 14.7185Z" fill="#1F2587"/>
<path d="M61.418 6.11719H79.7361" stroke="#263238" stroke-width="0.5" stroke-linecap="round" stroke-linejoin="round"/>
<path d="M61.418 9.76953H79.7361" stroke="#263238" stroke-width="0.5" stroke-linecap="round" stroke-linejoin="round"/>
<path d="M65.3711 8.1875H79.7339" stroke="#263238" stroke-width="0.5" stroke-linecap="round" stroke-linejoin="round"/>
<path d="M65.3711 11.4746H79.7339" stroke="#263238" stroke-width="0.5" stroke-linecap="round" stroke-linejoin="round"/>
<path d="M38.4844 21.5771H52.8495" stroke="#263238" stroke-width="0.5" stroke-linecap="round" stroke-linejoin="round"/>
<path d="M38.4844 25.042H52.8495" stroke="#263238" stroke-width="0.5" stroke-linecap="round" stroke-linejoin="round"/>
<path d="M38.4844 23.3682H60.2306" stroke="#263238" stroke-width="0.5" stroke-linecap="round" stroke-linejoin="round"/>
<path d="M38.4844 29.2637H52.8495" stroke="#263238" stroke-width="0.5" stroke-linecap="round" stroke-linejoin="round"/>
<path d="M38.4844 32.7285H52.8495" stroke="#263238" stroke-width="0.5" stroke-linecap="round" stroke-linejoin="round"/>
<path d="M38.4844 31.0557H60.2306" stroke="#263238" stroke-width="0.5" stroke-linecap="round" stroke-linejoin="round"/>
<path d="M38.1797 55.0791H51.7969" stroke="#263238" stroke-width="0.5" stroke-linecap="round" stroke-linejoin="round"/>
<path d="M64 55.0791H77.6172" stroke="#263238" stroke-width="0.5" stroke-linecap="round" stroke-linejoin="round"/>
<path d="M40.1004 41.2694C39.2861 41.7466 38.6433 42.436 38.2531 43.2506C37.8629 44.0652 37.7428 44.9684 37.9081 45.8459C38.0734 46.7235 38.5167 47.5361 39.1818 48.1811C39.8469 48.8261 40.7041 49.2744 41.645 49.4695C42.5859 49.6646 43.5684 49.5977 44.4681 49.2773C45.3679 48.9568 46.1446 48.3971 46.7001 47.669C47.2556 46.9409 47.565 46.077 47.5892 45.1865C47.6134 44.2961 47.3512 43.4189 46.8359 42.666C46.4932 42.1655 46.0471 41.7322 45.5231 41.391C44.999 41.0499 44.4072 40.8075 43.7816 40.6778C43.1561 40.548 42.5089 40.5335 41.8773 40.635C41.2456 40.7366 40.6418 40.9521 40.1004 41.2694ZM44.7804 48.0853C44.1367 48.462 43.3866 48.654 42.6248 48.6369C41.863 48.6199 41.1238 48.3946 40.5007 47.9895C39.8775 47.5844 39.3983 47.0178 39.1238 46.3612C38.8492 45.7046 38.7916 44.9876 38.9582 44.3007C39.1247 43.6139 39.508 42.9881 40.0596 42.5025C40.6112 42.0168 41.3062 41.6932 42.0569 41.5724C42.8076 41.4516 43.5803 41.5392 44.2771 41.8239C44.9739 42.1087 45.5637 42.578 45.9719 43.1723C46.243 43.5672 46.4272 44.0075 46.5141 44.4681C46.601 44.9287 46.5887 45.4006 46.4781 45.8568C46.3674 46.3131 46.1605 46.7447 45.8692 47.127C45.578 47.5094 45.208 47.835 44.7804 48.0853Z" fill="#1F2587"/>
<path d="M44.5283 43.612L40.375 46.043L40.7989 46.6609L44.9522 44.23L44.5283 43.612Z" fill="#1F2587"/>
<path d="M40.3594 53.6635C40.3594 53.6635 40.4267 55.0924 42.4497 52.5436C44.4726 49.9949 44.2009 50.1837 43.6621 51.6126C43.2492 52.6017 42.703 53.5387 42.0363 54.4015C42.0363 54.4015 44.461 50.8574 44.461 51.8507C44.461 52.844 42.171 57.0747 42.6425 56.7014C43.1139 56.3281 44.5957 54.4638 44.5957 54.4638C44.5957 54.4638 44.3937 55.7059 44.9302 55.146C45.4667 54.586 46.0752 53.4683 46.0079 54.0905C45.9405 54.7126 45.0649 55.4571 45.9405 54.7126C46.8161 53.9682 47.4897 53.0328 47.2876 53.7172C47.0855 54.4015 46.5467 54.6504 47.0855 54.4015C47.6244 54.1527 50.653 49.4886 49.71 50.0486C48.7671 50.6085 47.0182 55.4571 47.8264 55.0838C48.6347 54.7105 49.5753 52.8461 49.508 53.7794C49.4406 54.7126 49.71 54.7126 49.9725 54.4015" stroke="#263238" stroke-width="0.5" stroke-linecap="round" stroke-linejoin="round"/>
<path d="M106.828 92.9775H0.792969" stroke="#263238" stroke-width="0.5" stroke-linecap="round" stroke-linejoin="round"/>
<path d="M106.828 95.0283H0.792969" stroke="#263238" stroke-width="0.5" stroke-linecap="round" stroke-linejoin="round"/>
<path d="M101.021 70.3545H78.5388C78.1841 70.3542 77.8411 70.472 77.5728 70.6864C77.3044 70.9008 77.1288 71.1973 77.0779 71.5216L73.7148 92.7608H100.45L102.491 71.8348C102.509 71.6466 102.484 71.457 102.418 71.2782C102.353 71.0993 102.247 70.9351 102.109 70.7959C101.971 70.6567 101.803 70.5455 101.615 70.4695C101.428 70.3936 101.226 70.3544 101.021 70.3545Z" fill="#263238" stroke="#263238" stroke-width="0.5" stroke-linecap="round" stroke-linejoin="round"/>
<path d="M70.5759 66.887C70.5759 66.887 64.4931 69.676 62.4051 70.4462C60.3171 71.2164 59.8038 71.5618 59.618 72.0338C59.4322 72.5057 51.3079 84.2989 50.3812 85.3716C49.4545 86.4442 47.4547 88.7591 47.7334 90.3445C48.0121 91.93 50.2418 93.3052 52.3786 93.2622C54.5153 93.2193 55.8624 92.8332 56.0947 92.2754C56.3269 91.7176 62.2239 81.9776 62.2239 81.9776L64.082 92.8267H87.807C87.807 92.8267 89.6651 77.9893 89.6651 75.801C89.6651 73.6127 90.1296 71.0404 89.1541 70.4826C88.1786 69.9248 84.1397 68.6398 81.1668 67.7387C78.1939 66.8376 77.2672 66.666 76.5728 66.666C75.8783 66.666 70.5759 66.887 70.5759 66.887Z" fill="white" stroke="#263238" stroke-width="0.5" stroke-linecap="round" stroke-linejoin="round"/>
<path d="M69.9331 66.9645C69.9331 66.9645 69.1435 68.3375 69.097 69.4531C69.0506 70.5687 68.8648 72.6261 68.168 73.8705C67.4712 75.1148 66.9603 75.8013 67.3319 75.6704C67.7035 75.5396 69.8379 73.3556 70.0702 72.8814C70.3024 72.4073 70.674 73.3105 70.674 73.3105C70.674 73.3105 69.9773 75.1534 69.8844 75.4108C69.7915 75.6683 72.8085 79.2275 72.8085 79.2275C72.8085 79.2275 75.4098 77.3417 76.0136 76.9126C76.6175 76.4835 76.4317 76.1403 76.4781 75.5825C76.5246 75.0247 76.7104 74.2116 77.0332 73.7396C77.3561 73.2676 78.2897 75.1169 78.9377 75.9751C79.5857 76.8332 80.2384 77.1336 80.1455 76.49C80.0526 75.8463 79.7274 74.602 79.4952 72.4137C79.2629 70.2255 79.3094 67.6102 78.7055 66.795C78.1016 65.9798 74.9336 65.8189 72.8549 65.6816C72.2869 65.623 71.7125 65.7121 71.1963 65.9387C70.6801 66.1654 70.2426 66.5206 69.9331 66.9645Z" fill="white" stroke="#263238" stroke-width="0.5" stroke-linecap="round" stroke-linejoin="round"/>
<path d="M60.5541 74.2695L62.2264 81.9843L60.0664 76.8547" stroke="#263238" stroke-width="0.5" stroke-linecap="round" stroke-linejoin="round"/>
<path d="M70.1641 69.0322C70.1641 69.0322 70.8144 72.3769 71.4182 74.9492C71.7503 76.4133 72.2165 77.8487 72.8118 79.2399C72.8118 79.2399 75.8776 74.4793 76.7602 71.9928C77.2614 70.621 77.6496 69.216 77.9214 67.79H70.1641V69.0322Z" stroke="#263238" stroke-width="0.5" stroke-linecap="round" stroke-linejoin="round"/>
<path d="M73.5527 70.1826L71.8828 72.1135L73.0441 74.173L71.9014 76.7282C72.1534 77.5779 72.4573 78.4138 72.8118 79.2318C72.8118 79.2318 73.7687 77.7472 74.7651 76.0137L73.9267 74.2267L74.9486 72.0813L73.5527 70.1826Z" fill="#1F2587" stroke="#263238" stroke-width="0.5" stroke-linecap="round" stroke-linejoin="round"/>
<path d="M70.1641 67.7881V69.0324C70.1641 69.0324 70.6123 71.3408 71.1093 73.5956L73.4598 71.3044L75.938 73.8402C76.248 73.2382 76.5217 72.6208 76.7578 71.9909C77.2591 70.619 77.6473 69.2141 77.9191 67.7881H70.1641Z" fill="white" stroke="#263238" stroke-width="0.5" stroke-linecap="round" stroke-linejoin="round"/>
<path d="M49.9219 86.6416C49.9219 86.6416 54.2581 85.1785 56.5969 88.7377" stroke="#263238" stroke-width="0.5" stroke-linecap="round" stroke-linejoin="round"/>
<path d="M56.6739 87.6396C56.6739 87.6396 54.2515 88.146 52.9578 90.0532C51.6641 91.9604 54.2956 92.1728 55.0226 92.1728C55.7495 92.1728 56.437 91.7223 56.4765 91.4885C56.516 91.2546 57.4682 88.9934 57.4311 88.4656C57.4267 88.2686 57.3491 88.0789 57.2112 87.9285C57.0733 87.7781 56.8836 87.6761 56.6739 87.6396Z" fill="white" stroke="#263238" stroke-width="0.5" stroke-linecap="round" stroke-linejoin="round"/>
<path d="M55.5586 88.4287C55.5586 88.4287 54.2185 89.5014 54.3091 89.9305C54.3997 90.3595 56.3878 92.0115 56.771 91.7734C56.8401 91.7409 56.9017 91.6961 56.9521 91.6416C57.0024 91.5872 57.0407 91.524 57.0646 91.4559C57.0886 91.3877 57.0977 91.3159 57.0916 91.2445C57.0855 91.173 57.0641 91.1034 57.0288 91.0396C56.9196 90.8787 55.5586 88.4287 55.5586 88.4287Z" fill="white" stroke="#263238" stroke-width="0.5" stroke-linecap="round" stroke-linejoin="round"/>
<path d="M54.3197 89.9199C54.3197 89.9199 53.5323 90.6944 53.7901 91.0484C54.0479 91.4024 55.8479 92.3056 56.3148 92.0331C56.7816 91.7607 56.4797 91.4818 56.4797 91.4818L54.3197 89.9199Z" fill="white" stroke="#263238" stroke-width="0.5" stroke-linecap="round" stroke-linejoin="round"/>
<path d="M58.9322 88.3883L57.3203 88.1309L57.6989 90.2741L59.3456 90.3213L58.9322 88.3883Z" fill="white" stroke="#263238" stroke-width="0.5" stroke-linecap="round" stroke-linejoin="round"/>
<path d="M56.0294 85.0176L57.9176 91.1298L58.835 91.9V90.8123L56.8376 84.8052C56.8214 84.7552 56.7943 84.7088 56.7581 84.6688C56.7218 84.6287 56.6772 84.5959 56.6268 84.5722C56.5764 84.5486 56.5214 84.5346 56.465 84.5311C56.4087 84.5277 56.3521 84.5348 56.2988 84.5521C56.1986 84.584 56.1152 84.6497 56.0653 84.7361C56.0153 84.8224 56.0025 84.9229 56.0294 85.0176Z" fill="#263238" stroke="#263238" stroke-width="0.5" stroke-linecap="round" stroke-linejoin="round"/>
<path d="M56.6753 87.6388C56.6753 87.6388 55.5604 88.2416 55.6719 88.6986C55.7834 89.1555 56.9865 91.2923 57.4208 91.3202C57.8551 91.3481 58.1176 91.1057 58.0549 90.6423C57.9921 90.1789 57.5903 88.4969 57.3186 88.1301C57.0469 87.7632 57.0167 87.6173 56.6753 87.6388Z" fill="white" stroke="#263238" stroke-width="0.5" stroke-linecap="round" stroke-linejoin="round"/>
<path d="M58.9298 88.3877C58.9298 88.3877 60.1166 88.525 60.3233 88.8597C60.53 89.1944 59.7009 90.5288 59.4361 90.8334C59.1713 91.1381 58.6975 91.1252 58.6836 90.3529C58.7059 89.6926 58.7882 89.0352 58.9298 88.3877Z" fill="white" stroke="#263238" stroke-width="0.5" stroke-linecap="round" stroke-linejoin="round"/>
<path d="M52.5122 90.9688H65.5349C65.8987 90.9693 66.2475 91.1031 66.5048 91.3407C66.7621 91.5784 66.9069 91.9006 66.9075 92.2367C66.9075 92.5212 66.7852 92.794 66.5674 92.9952C66.3496 93.1963 66.0542 93.3094 65.7462 93.3094H52.6934C52.41 93.3094 52.1383 93.2054 51.9379 93.0203C51.7376 92.8352 51.625 92.5842 51.625 92.3225V91.7861C51.625 91.6786 51.648 91.5721 51.6926 91.4728C51.7372 91.3735 51.8026 91.2833 51.885 91.2074C51.9674 91.1315 52.0652 91.0713 52.1729 91.0304C52.2805 90.9894 52.3958 90.9685 52.5122 90.9688Z" fill="white" stroke="#263238" stroke-width="0.5" stroke-linecap="round" stroke-linejoin="round"/>
<path d="M75.6868 88.2033C75.6868 88.2033 72.2981 87.8601 71.462 87.6026C70.6259 87.3452 69.2788 87.1307 68.8143 87.4739C68.3498 87.8172 66.076 90.2629 66.0272 90.5611C65.9784 90.8593 65.5162 91.8483 65.7485 92.1058C65.9431 92.2851 66.1823 92.4177 66.4452 92.4919C66.4452 92.4919 69.4646 93.2643 69.7874 93.3072C70.1103 93.3501 73.2225 93.2214 73.2225 93.2214L74.8483 92.6636L77.1221 92.6207C77.1221 92.6207 77.1686 93.3072 77.215 91.6338C77.2615 89.9604 75.6868 88.2033 75.6868 88.2033Z" fill="white" stroke="#263238" stroke-width="0.5" stroke-linecap="round" stroke-linejoin="round"/>
<path d="M66.4492 92.4941C66.4492 92.4941 66.4957 91.5072 66.7279 91.0781C66.9602 90.649 69.6056 88.4629 69.6056 88.4629" stroke="#263238" stroke-width="0.5" stroke-linecap="round" stroke-linejoin="round"/>
<path d="M67.3242 92.7474C67.3242 92.7474 67.7887 91.6747 67.9745 91.5889C68.1603 91.503 70.3412 90.2158 70.3412 90.2158" stroke="#263238" stroke-width="0.5" stroke-linecap="round" stroke-linejoin="round"/>
<path d="M68.9102 93.0478C68.9102 93.0478 69.0031 92.6187 69.2353 92.5329C69.4676 92.4471 71.4185 91.6318 71.4185 91.6318" stroke="#263238" stroke-width="0.5" stroke-linecap="round" stroke-linejoin="round"/>
<path d="M71.0026 93.2628L71.8852 93.0483L71.7923 92.6621L70.8633 92.8766" stroke="#263238" stroke-width="0.5" stroke-linecap="round" stroke-linejoin="round"/>
<path d="M86.3186 74.3921C86.3186 74.3921 83.859 79.1527 83.9961 80.8282C84.1331 82.5038 84.7416 85.2863 84.7416 85.2863C84.7416 85.2863 80.842 86.7001 79.4949 87.2172C78.1478 87.7342 75.6836 88.2041 75.6836 88.2041L76.9355 92.7501L76.752 93.2221H90.26C90.26 93.2221 91.282 93.0505 91.4678 92.8359C91.6536 92.6214 91.8394 92.5356 91.9323 91.849C92.0252 91.1625 92.6291 85.1598 92.4897 83.4821C92.3503 81.8044 90.4458 73.1049 90.2136 72.2038C89.9813 71.3028 89.5656 70.7021 89.1475 70.4875C88.7295 70.273 86.9179 70.1035 86.9179 70.1035" fill="white"/>
<path d="M86.3186 74.3921C86.3186 74.3921 83.859 79.1527 83.9961 80.8282C84.1331 82.5038 84.7416 85.2863 84.7416 85.2863C84.7416 85.2863 80.842 86.7001 79.4949 87.2172C78.1478 87.7342 75.6836 88.2041 75.6836 88.2041L76.9355 92.7501L76.752 93.2221H90.26C90.26 93.2221 91.282 93.0505 91.4678 92.8359C91.6536 92.6214 91.8394 92.5356 91.9323 91.849C92.0252 91.1625 92.6291 85.1598 92.4897 83.4821C92.3503 81.8044 90.4458 73.1049 90.2136 72.2038C89.9813 71.3028 89.5656 70.7021 89.1475 70.4875C88.7295 70.273 86.9179 70.1035 86.9179 70.1035" stroke="#263238" stroke-width="0.5" stroke-linecap="round" stroke-linejoin="round"/>
<path d="M85.0703 85.3721C85.0703 85.3721 88.6447 85.5437 90.4122 86.5713" stroke="#263238" stroke-width="0.5" stroke-linecap="round" stroke-linejoin="round"/>
<path d="M85.7148 84.9425C85.7148 84.9425 88.2232 84.8137 89.5703 85.1999" stroke="#263238" stroke-width="0.5" stroke-linecap="round" stroke-linejoin="round"/>
<path d="M85.022 74.2588C85.022 74.2588 83.7678 76.962 83.7214 77.9917C83.6749 79.0215 83.582 79.6222 83.582 79.6222" stroke="#263238" stroke-width="0.5" stroke-linecap="round" stroke-linejoin="round"/>
<path d="M79.3125 67.1016C79.3125 67.1016 82.1437 70.8259 79.8676 81.2117" stroke="#263238" stroke-width="0.5" stroke-linecap="round" stroke-linejoin="round"/>
<path d="M81.2129 81.5118C81.2129 81.2572 81.1311 81.0084 80.978 80.7967C80.8249 80.585 80.6072 80.42 80.3526 80.3226C80.098 80.2252 79.8178 80.1997 79.5475 80.2493C79.2771 80.299 79.0288 80.4216 78.8339 80.6016C78.6391 80.7816 78.5063 81.011 78.4526 81.2607C78.3988 81.5104 78.4264 81.7692 78.5319 82.0044C78.6373 82.2396 78.8159 82.4407 79.0451 82.5821C79.2743 82.7236 79.5437 82.7991 79.8193 82.7991C80.1889 82.7991 80.5434 82.6634 80.8047 82.422C81.066 82.1806 81.2129 81.8532 81.2129 81.5118Z" fill="white" stroke="#263238" stroke-width="0.5" stroke-linecap="round" stroke-linejoin="round"/>
<path d="M69.6465 67.4873C69.6465 67.4873 68.2088 68.3455 67.9766 71.8188" stroke="#263238" stroke-width="0.5" stroke-linecap="round" stroke-linejoin="round"/>
<path d="M69.9737 77.082C69.623 79.4248 69.1446 81.9413 69.0447 82.4927C68.8124 83.6726 67.2958 84.0845 66.3203 83.6984" stroke="#263238" stroke-width="0.5" stroke-linecap="round" stroke-linejoin="round"/>
<path d="M66.3366 77.2364C66.0184 75.9234 65.8233 74.7842 65.893 74.2629C66.2182 71.8622 67.9833 71.8193 67.9833 71.8193C67.9833 71.8193 70.0736 72.0768 70.2107 74.1363C70.2251 75.1225 70.1474 76.1081 69.9784 77.0819" stroke="#263238" stroke-width="0.5" stroke-linecap="round" stroke-linejoin="round"/>
<path d="M70.2564 83.5266C70.2564 83.5266 69.281 84.0415 68.6306 83.6982C68.1917 83.4665 67.0048 79.9738 66.3359 77.2363" stroke="#263238" stroke-width="0.5" stroke-linecap="round" stroke-linejoin="round"/>
<path d="M70.5977 83.0614L70.2138 83.2143C70.0288 83.288 69.9435 83.4861 70.0233 83.657L70.0279 83.6668C70.1076 83.8376 70.3221 83.9164 70.5071 83.8428L70.891 83.6899C71.0759 83.6163 71.1612 83.4181 71.0815 83.2473L71.0769 83.2374C70.9972 83.0666 70.7826 82.9878 70.5977 83.0614Z" stroke="#263238" stroke-width="0.5" stroke-linecap="round" stroke-linejoin="round"/>
<path d="M66.4405 83.2941L66.0821 83.0953C65.9095 82.9995 65.6855 83.0512 65.5818 83.2106L65.5758 83.2198C65.4721 83.3793 65.528 83.5862 65.7006 83.682L66.059 83.8808C66.2317 83.9766 66.4557 83.925 66.5594 83.7655L66.5654 83.7563C66.669 83.5968 66.6132 83.3899 66.4405 83.2941Z" stroke="#263238" stroke-width="0.5" stroke-linecap="round" stroke-linejoin="round"/>
<path d="M67.9846 57.1105C67.9846 57.1105 67.2413 58.7389 67.3807 59.7686C67.52 60.7984 69.0065 61.914 69.0065 61.914C69.0065 61.914 69.5175 57.325 69.5175 57.1534C69.5175 56.9818 68.5861 56.5956 67.9846 57.1105Z" fill="#263238" stroke="#263238" stroke-width="0.5" stroke-linecap="round" stroke-linejoin="round"/>
<path d="M67.4492 62.9438L68.4363 62.3066" stroke="#263238" stroke-width="0.5" stroke-linecap="round" stroke-linejoin="round"/>
<path d="M68.5408 57.4111C68.5408 57.4111 68.355 61.9571 68.4479 62.8131C68.5408 63.6692 68.9124 66.4152 69.2376 67.2734C69.5627 68.1315 70.6311 70.8755 71.4672 71.1758C72.3034 71.4762 73.9733 71.6907 74.5307 71.3475C75.0881 71.0042 77.1297 69.7191 77.6871 68.4748C78.0176 67.7492 78.2365 66.9845 78.3374 66.2028C78.8009 65.9744 79.2012 65.6505 79.5073 65.2561C79.8134 64.8617 80.0171 64.4075 80.1025 63.9287C80.3813 62.2983 79.638 61.8284 79.638 61.8284L79.6845 58.9965C79.6845 58.9965 79.1735 57.0249 77.8264 55.9522C76.4793 54.8796 74.9023 54.7937 73.2765 55.609C71.6507 56.4242 68.5408 57.4111 68.5408 57.4111Z" fill="white" stroke="#263238" stroke-width="0.5" stroke-linecap="round" stroke-linejoin="round"/>
<path d="M77.2677 57.1535C77.2677 57.1535 77.3141 56.0379 76.1552 56.424C74.9962 56.8102 74.7152 57.5396 72.9965 58.1833C71.2778 58.8269 69.004 58.0974 68.2166 57.6684C67.4293 57.2393 66.8695 56.6386 67.9379 55.523C69.0063 54.4074 71.5124 53.2939 74.2089 53.2939C76.9054 53.2939 78.991 55.3514 79.8736 56.2095C80.7562 57.0677 80.8955 58.1403 80.5704 58.9105C80.2452 59.6807 79.6413 61.8283 79.6413 61.8283C79.6413 61.8283 79.2697 61.7853 79.1304 62.2981C78.991 62.8108 79.0375 63.3708 78.4336 63.4137C77.8297 63.4566 77.8762 61.957 77.8762 61.957C77.8762 61.957 76.3921 61.5279 76.2063 60.541C76.0205 59.5542 77.2677 58.0974 77.2677 57.1535Z" fill="#263238" stroke="#263238" stroke-width="0.5" stroke-linecap="round" stroke-linejoin="round"/>
<path d="M71.7358 63.6427L67.4414 62.9434L67.6899 64.7219C67.7052 64.8325 67.7586 64.9356 67.8423 65.0159C67.926 65.0963 68.0354 65.1497 68.1544 65.1681L70.765 65.5478C70.9085 65.5692 71.0554 65.5382 71.1746 65.4614C71.2939 65.3845 71.376 65.2678 71.4037 65.1359L71.7358 63.6427Z" stroke="#263238" stroke-width="0.5" stroke-linecap="round" stroke-linejoin="round"/>
<path d="M72.5195 63.718L77.4991 63.585L77.0114 65.2498C76.9694 65.3619 76.8892 65.4584 76.7829 65.5249C76.6765 65.5914 76.5497 65.6244 76.4215 65.6188L73.4021 65.6574C73.2456 65.6674 73.0904 65.6249 72.965 65.5379C72.8397 65.4508 72.7524 65.3249 72.7193 65.1833L72.5195 63.718Z" stroke="#263238" stroke-width="0.5" stroke-linecap="round" stroke-linejoin="round"/>
<path d="M71.7461 63.6436L72.5218 63.7186" stroke="#263238" stroke-width="0.5" stroke-linecap="round" stroke-linejoin="round"/>
<path d="M77.5 63.5851L79.1258 62.2979" stroke="#263238" stroke-width="0.5" stroke-linecap="round" stroke-linejoin="round"/>
<path d="M73.1836 63.1993C73.1836 63.1993 74.5771 62.2146 75.8778 62.8131" stroke="#263238" stroke-width="0.5" stroke-linecap="round" stroke-linejoin="round"/>
<path d="M71.0925 62.9851C71.0925 62.9851 70.0241 61.9124 68.8164 62.6418" stroke="#263238" stroke-width="0.5" stroke-linecap="round" stroke-linejoin="round"/>
<path d="M71.3728 66.7158C71.3728 66.7158 71.1405 67.6169 71.3728 67.7885C71.7681 67.9901 72.2245 68.0655 72.6711 68.003" stroke="#263238" stroke-width="0.5" stroke-linecap="round" stroke-linejoin="round"/>
<path d="M70.6758 68.4658C70.6758 68.4658 71.6048 69.1094 72.4874 69.1523C73.37 69.1953 74.3896 68.5945 74.3896 68.5945" stroke="#263238" stroke-width="0.5" stroke-linecap="round" stroke-linejoin="round"/>
<path d="M74.1094 64.1005C74.1094 64.1005 74.6668 64.7012 75.5958 64.0576" stroke="#263238" stroke-width="0.5" stroke-linecap="round" stroke-linejoin="round"/>
<path d="M69.5391 63.8369C69.5391 63.8369 70.0036 64.502 71.0162 63.9807" stroke="#263238" stroke-width="0.5" stroke-linecap="round" stroke-linejoin="round"/>
<path d="M40.7289 57.1497C40.7289 57.1497 41.0239 61.2366 40.8009 61.5778L40.1483 62.5989C40.1483 62.5989 40.4433 65.5295 39.8533 65.8685C39.3962 66.0946 38.8948 66.2339 38.3785 66.2783C38.3785 66.2783 37.7886 68.458 37.5656 68.7304C37.3426 69.0029 36.0164 69.8889 35.5751 70.0177C35.1339 70.1464 33.731 70.2322 30.4121 68.3829C27.0931 66.5336 25.8389 65.9307 25.9133 64.9095C25.9876 63.8883 26.1455 62.7298 26.1455 62.7298C26.1455 62.7298 26.5148 57.8233 27.1791 56.3259C27.8433 54.8284 36.251 54.0089 38.0951 54.4186C39.9393 54.8284 40.7289 57.1497 40.7289 57.1497Z" fill="white" stroke="#263238" stroke-width="0.5" stroke-linecap="round" stroke-linejoin="round"/>
<path d="M32.1719 63.8926L32.6898 64.2337C32.6898 64.2337 32.2462 65.8685 32.4576 66.6194" stroke="#263238" stroke-width="0.5" stroke-linecap="round" stroke-linejoin="round"/>
<path d="M39.5448 62.5238C39.4705 62.8371 39.2916 63.0645 39.1476 63.0344C39.0036 63.0044 38.9456 62.7298 39.0222 62.4166C39.0989 62.1034 39.2754 61.8759 39.4194 61.906C39.5634 61.936 39.6214 62.2128 39.5448 62.5238Z" fill="#263238"/>
<path d="M38.793 61.273C38.793 61.273 39.5966 60.5307 40.2678 61.2322" stroke="#263238" stroke-width="0.5" stroke-linecap="round" stroke-linejoin="round"/>
<path d="M37.7764 56.6043C37.7764 56.6043 38.7333 58.2391 38.6613 58.5802C38.5893 58.9213 35.563 59.7387 35.563 59.7387C35.563 59.7387 35.268 61.3735 34.8244 61.5773L34.3831 61.7811C34.0293 61.3373 33.7324 60.8571 33.4983 60.3501C32.9826 59.3289 32.2441 59.0629 31.4335 60.0776C30.6229 61.0924 31.2848 63.4845 31.7284 63.6883L32.1697 63.8921C32.1697 63.8921 31.8004 64.2332 30.3999 64.4392C28.9994 64.6452 27.9659 64.9155 26.9347 64.643C25.9034 64.3705 24.4263 61.7811 23.9153 58.4429C23.4044 55.1047 25.0209 52.2449 27.1669 51.3631C29.313 50.4814 34.1741 51.2945 34.5411 51.4983C34.908 51.7021 37.4187 50.6144 38.8936 51.2945C40.3684 51.9746 40.2871 52.7254 40.6634 53.2017C41.0396 53.678 42.9488 53.0666 43.0974 54.77C43.2461 56.4734 42.5075 57.4946 41.5483 57.6298C40.5891 57.7649 37.7764 56.6043 37.7764 56.6043Z" fill="#263238" stroke="#263238" stroke-width="0.5" stroke-linecap="round" stroke-linejoin="round"/>
<path d="M20.3128 67.2993C20.3128 67.2993 13.2452 70.7813 11.8981 71.4699C10.5511 72.1586 10.349 72.7765 10.2723 73.4008C10.1957 74.0251 10.2723 95.0369 10.2723 95.0369H48.4484C48.4484 95.0369 42.6583 78.9788 42.4678 77.1852C42.2774 75.3917 41.8639 72.2101 41.3251 71.8368C40.7863 71.4635 33.1775 68.3549 33.1775 68.3549C33.1775 68.3549 31.359 66.5527 27.0529 66.5527C22.7469 66.5527 20.3128 67.2993 20.3128 67.2993Z" fill="#1F2587" stroke="#263238" stroke-width="0.5" stroke-linecap="round" stroke-linejoin="round"/>
<path d="M24.6914 80.0918C24.8911 80.1647 25.0932 80.2312 25.2953 80.2935" stroke="#263238" stroke-width="0.5" stroke-linecap="round" stroke-linejoin="round"/>
<path d="M17.1523 74.3252C17.1523 74.3252 19.9394 77.9166 23.7461 79.6886" stroke="#263238" stroke-width="0.5" stroke-linecap="round" stroke-linejoin="round"/>
<path d="M19.5742 78.4893C19.5742 78.4893 21.1211 79.9202 24.3517 80.729" stroke="#263238" stroke-width="0.5" stroke-linecap="round" stroke-linejoin="round"/>
<path d="M38.7554 73.3359C37.6801 74.4644 36.1657 76.2687 35.6641 77.9292" stroke="#263238" stroke-width="0.5" stroke-linecap="round" stroke-linejoin="round"/>
<path d="M39.8997 72.21C39.8997 72.21 39.686 72.4009 39.3516 72.7291" stroke="#263238" stroke-width="0.5" stroke-linecap="round" stroke-linejoin="round"/>
<path d="M36.0655 75.9404C36.0655 75.9404 35.0552 77.7425 34.8555 78.8624" stroke="#263238" stroke-width="0.5" stroke-linecap="round" stroke-linejoin="round"/>
<path d="M19.9102 67.6077C19.9102 67.6077 23.8144 67.4833 27.5166 67.5455C31.2187 67.6077 33.6435 68.6654 33.6435 68.6654C33.6435 68.6654 31.4208 66.1789 30.4128 65.619C29.4048 65.059 26.3065 64.1172 23.7494 64.8724C22.1741 65.3612 20.8221 66.3245 19.9102 67.6077Z" fill="#1F2587" stroke="#263238" stroke-width="0.5" stroke-linecap="round" stroke-linejoin="round"/>
<path d="M8.80869 95.0132L5.25051 82.4113C5.21598 82.2583 5.21882 82.1 5.25883 81.9482C5.29885 81.7963 5.37502 81.6546 5.48182 81.5333C5.58861 81.4121 5.72333 81.3143 5.87617 81.2473C6.02901 81.1802 6.19613 81.1454 6.36535 81.1455H34.6751C34.9353 81.1457 35.1875 81.2279 35.3902 81.3785C35.5929 81.5291 35.7339 81.739 35.79 81.9736L38.9324 95.0261" fill="#263238"/>
<path d="M8.80869 95.0132L5.25051 82.4113C5.21598 82.2583 5.21882 82.1 5.25883 81.9482C5.29885 81.7963 5.37502 81.6546 5.48182 81.5333C5.58861 81.4121 5.72333 81.3143 5.87617 81.2473C6.02901 81.1802 6.19613 81.1454 6.36535 81.1455H34.6751C34.9353 81.1457 35.1875 81.2279 35.3902 81.3785C35.5929 81.5291 35.7339 81.739 35.79 81.9736L38.9324 95.0261" stroke="#263238" stroke-width="0.5" stroke-linecap="round" stroke-linejoin="round"/>
</svg>
