<svg width="50" height="50" viewBox="0 0 50 50" fill="none" xmlns="http://www.w3.org/2000/svg">
<g filter="url(#filter0_d_8_2095)">
<circle cx="25" cy="23" r="21" fill="white"/>
<g clip-path="url(#clip0_8_2095)">
<path d="M33.3635 23.7073C33.5509 23.5198 33.6562 23.2655 33.6562 23.0003C33.6562 22.7352 33.5509 22.4809 33.3635 22.2933L27.7065 16.6363C27.6142 16.5408 27.5039 16.4647 27.3819 16.4122C27.2599 16.3598 27.1286 16.3322 26.9959 16.3311C26.8631 16.3299 26.7314 16.3552 26.6085 16.4055C26.4856 16.4558 26.374 16.5301 26.2801 16.6239C26.1862 16.7178 26.1119 16.8295 26.0616 16.9524C26.0114 17.0753 25.9861 17.207 25.9872 17.3397C25.9884 17.4725 26.016 17.6037 26.0684 17.7257C26.1208 17.8478 26.197 17.9581 26.2925 18.0503L30.2425 22.0003L16.9995 22.0003C16.7342 22.0003 16.4799 22.1057 16.2924 22.2932C16.1048 22.4808 15.9995 22.7351 15.9995 23.0003C15.9995 23.2656 16.1048 23.5199 16.2924 23.7074C16.4799 23.895 16.7342 24.0003 16.9995 24.0003L30.2425 24.0003L26.2925 27.9503C26.1103 28.1389 26.0095 28.3915 26.0118 28.6537C26.0141 28.9159 26.1192 29.1668 26.3046 29.3522C26.4901 29.5376 26.7409 29.6427 27.0031 29.645C27.2653 29.6473 27.5179 29.5465 27.7065 29.3643L33.3635 23.7073Z" fill="#00539C"/>
</g>
</g>
<defs>
<filter id="filter0_d_8_2095" x="0" y="0" width="50" height="50" filterUnits="userSpaceOnUse" color-interpolation-filters="sRGB">
<feFlood flood-opacity="0" result="BackgroundImageFix"/>
<feColorMatrix in="SourceAlpha" type="matrix" values="0 0 0 0 0 0 0 0 0 0 0 0 0 0 0 0 0 0 127 0" result="hardAlpha"/>
<feOffset dy="2"/>
<feGaussianBlur stdDeviation="2"/>
<feComposite in2="hardAlpha" operator="out"/>
<feColorMatrix type="matrix" values="0 0 0 0 0 0 0 0 0 0 0 0 0 0 0 0 0 0 0.25 0"/>
<feBlend mode="normal" in2="BackgroundImageFix" result="effect1_dropShadow_8_2095"/>
<feBlend mode="normal" in="SourceGraphic" in2="effect1_dropShadow_8_2095" result="shape"/>
</filter>
<clipPath id="clip0_8_2095">
<rect width="24" height="24" fill="white" transform="matrix(0 1 -1 0 37 11)"/>
</clipPath>
</defs>
</svg>
