<svg width="85" height="51" viewBox="0 0 85 51" fill="none" xmlns="http://www.w3.org/2000/svg">
<path d="M55.1789 42.0941C55.4016 42.0941 55.402 41.748 55.1789 41.748C54.9562 41.748 54.9558 42.0941 55.1789 42.0941Z" fill="#F4F8FC"/>
<path d="M8.13897 50.2086C5.25775 49.8484 2.4784 46.9711 1.21561 44.5606C-0.39653 41.4834 -0.282456 37.8164 0.840159 34.5707C2.20796 30.6162 6.10558 28.7268 9.70954 27.0928C12.6895 25.7418 15.7705 24.5703 18.5243 22.7912C21.7713 20.6935 24.4965 17.7681 26.3803 14.3581C28.1062 11.2341 29.1525 7.69342 31.3715 4.90972C33.3858 2.38281 36.4101 0.644991 39.6367 0.147971C43.0935 -0.384455 46.3655 0.521249 48.9374 2.84394C49.4952 3.3476 50.0122 3.89538 50.4931 4.47191C52.7684 7.19954 54.5206 10.4404 57.3065 12.6241C60.0763 14.7951 63.5512 15.5882 66.7804 16.8081C68.2945 17.3801 69.8957 17.7989 71.3433 18.5608C75.1272 20.5523 78.4681 23.5204 80.6471 27.2209C82.8374 30.9406 83.672 35.3923 83.1587 39.6852C82.874 42.0659 82.1303 44.4023 80.8455 46.4358C79.6868 48.2698 77.94 49.6257 75.8447 50.2162C74.7597 50.2162 73.6747 50.2162 72.5898 50.2162C69.8067 50.2162 67.0236 50.2162 64.2406 50.2162C60.3633 50.2162 56.4859 50.2162 52.6086 50.2162C48.2407 50.2162 43.8728 50.2162 39.505 50.2162C35.2504 50.2162 30.9959 50.2162 26.7413 50.2162C23.2038 50.2162 19.6661 50.2162 16.1286 50.2162C13.9119 50.2162 11.6951 50.2162 9.47837 50.2162C9.06353 50.2162 8.61811 50.2623 8.20519 50.2162C8.18296 50.2139 8.16096 50.2114 8.13897 50.2086Z" fill="#EDF4FC"/>
<g opacity="0.25">
<path d="M56.7843 4.25488H47.5579C47.2692 4.25488 47.0352 4.48895 47.0352 4.77764V7.28788C47.0352 7.57657 47.2692 7.81064 47.5579 7.81064H54.418L56.5977 10.4389L55.9914 7.81064H56.7841C57.0728 7.81064 57.3069 7.57657 57.3069 7.28788V4.77764C57.307 4.48895 57.073 4.25488 56.7843 4.25488Z" fill="#2490BF"/>
<path d="M50.1593 5.97909C50.1593 6.24639 49.9427 6.46305 49.6754 6.46305C49.4081 6.46305 49.1914 6.24639 49.1914 5.97909C49.1914 5.71179 49.4081 5.49512 49.6754 5.49512C49.9427 5.49512 50.1593 5.71179 50.1593 5.97909Z" fill="#2490BF"/>
<path d="M52.3898 5.97909C52.3898 6.24639 52.1731 6.46305 51.9058 6.46305C51.6385 6.46305 51.4219 6.24639 51.4219 5.97909C51.4219 5.71179 51.6385 5.49512 51.9058 5.49512C52.1731 5.49512 52.3898 5.71179 52.3898 5.97909Z" fill="#2490BF"/>
<path d="M54.6242 5.97909C54.6242 6.24639 54.4075 6.46305 54.1402 6.46305C53.8729 6.46305 53.6562 6.24639 53.6562 5.97909C53.6562 5.71179 53.8729 5.49512 54.1402 5.49512C54.4075 5.49512 54.6242 5.71179 54.6242 5.97909Z" fill="#2490BF"/>
</g>
<path d="M56.7843 3.46973H47.5579C47.2692 3.46973 47.0352 3.7038 47.0352 3.99249V6.50272C47.0352 6.79141 47.2692 7.02548 47.5579 7.02548H54.418L56.5977 9.65378L55.9914 7.02548H56.7841C57.0728 7.02548 57.3069 6.79141 57.3069 6.50272V3.99249C57.307 3.7038 57.073 3.46973 56.7843 3.46973Z" fill="#0090C9"/>
<path d="M50.1593 5.19393C50.1593 5.46123 49.9427 5.6779 49.6754 5.6779C49.4081 5.6779 49.1914 5.46123 49.1914 5.19393C49.1914 4.92663 49.4081 4.70996 49.6754 4.70996C49.9427 4.70996 50.1593 4.92663 50.1593 5.19393Z" fill="white"/>
<path d="M52.3898 5.19393C52.3898 5.46123 52.1731 5.6779 51.9058 5.6779C51.6385 5.6779 51.4219 5.46123 51.4219 5.19393C51.4219 4.92663 51.6385 4.70996 51.9058 4.70996C52.1731 4.70996 52.3898 4.92663 52.3898 5.19393Z" fill="white"/>
<path d="M54.6203 5.19393C54.6203 5.46123 54.4036 5.6779 54.1363 5.6779C53.869 5.6779 53.6523 5.46123 53.6523 5.19393C53.6523 4.92663 53.869 4.70996 54.1363 4.70996C54.4036 4.70996 54.6203 4.92663 54.6203 5.19393Z" fill="white"/>
<g opacity="0.25">
<path d="M77.0421 4.25488H67.8157C67.527 4.25488 67.293 4.48895 67.293 4.77764V7.28788C67.293 7.57657 67.527 7.81064 67.8157 7.81064H74.6758L74.1762 10.4389L76.2492 7.81064H77.042C77.3307 7.81064 77.5647 7.57657 77.5647 7.28788V4.77764C77.5648 4.48895 77.3308 4.25488 77.0421 4.25488Z" fill="#2490BF"/>
<path d="M70.6789 6.10994C70.6789 6.37725 70.4622 6.59391 70.1949 6.59391C69.9276 6.59391 69.7109 6.37725 69.7109 6.10994C69.7109 5.84264 69.9276 5.62598 70.1949 5.62598C70.4622 5.62598 70.6789 5.84264 70.6789 6.10994Z" fill="#2490BF"/>
<path d="M72.9133 6.10994C72.9133 6.37725 72.6966 6.59391 72.4293 6.59391C72.162 6.59391 71.9453 6.37725 71.9453 6.10994C71.9453 5.84264 72.162 5.62598 72.4293 5.62598C72.6966 5.62598 72.9133 5.84264 72.9133 6.10994Z" fill="#2490BF"/>
<path d="M75.1437 6.10994C75.1437 6.37725 74.9271 6.59391 74.6598 6.59391C74.3925 6.59391 74.1758 6.37725 74.1758 6.10994C74.1758 5.84264 74.3925 5.62598 74.6598 5.62598C74.9271 5.62598 75.1437 5.84264 75.1437 6.10994Z" fill="#2490BF"/>
</g>
<path d="M77.0421 3.46973H67.8157C67.527 3.46973 67.293 3.7038 67.293 3.99249V6.50272C67.293 6.79141 67.527 7.02548 67.8157 7.02548H74.6758L74.1762 9.65378L76.2492 7.02548H77.042C77.3307 7.02548 77.5647 6.79141 77.5647 6.50272V3.99249C77.5648 3.7038 77.3308 3.46973 77.0421 3.46973Z" fill="#0090C9"/>
<path d="M70.6828 5.32479C70.6828 5.59209 70.4661 5.80876 70.1988 5.80876C69.9315 5.80876 69.7148 5.59209 69.7148 5.32479C69.7148 5.05749 69.9315 4.84082 70.1988 4.84082C70.4661 4.84094 70.6828 5.05761 70.6828 5.32479Z" fill="white"/>
<path d="M72.9133 5.32479C72.9133 5.59209 72.6966 5.80876 72.4293 5.80876C72.162 5.80876 71.9453 5.59209 71.9453 5.32479C71.9453 5.05749 72.162 4.84082 72.4293 4.84082C72.6966 4.84094 72.9133 5.05761 72.9133 5.32479Z" fill="white"/>
<path d="M75.1437 5.32479C75.1437 5.59209 74.9271 5.80876 74.6598 5.80876C74.3925 5.80876 74.1758 5.59209 74.1758 5.32479C74.1758 5.05749 74.3925 4.84082 74.6598 4.84082C74.9271 4.84094 75.1437 5.05761 75.1437 5.32479Z" fill="white"/>
<g opacity="0.25">
<path d="M39.9757 30.187H30.7493C30.4606 30.187 30.2266 29.9529 30.2266 29.6642V27.154C30.2266 26.8653 30.4606 26.6312 30.7493 26.6312H37.6094L40.6691 24.0029L39.1828 26.6312H39.9755C40.2642 26.6312 40.4983 26.8653 40.4983 27.154V29.6642C40.4984 29.9529 40.2644 30.187 39.9757 30.187Z" fill="#2490BF"/>
<path d="M33.6164 28.4723C33.6164 28.205 33.3997 27.9883 33.1324 27.9883C32.8651 27.9883 32.6484 28.205 32.6484 28.4723C32.6484 28.7396 32.8651 28.9562 33.1324 28.9562C33.3997 28.9562 33.6164 28.7396 33.6164 28.4723Z" fill="#2490BF"/>
<path d="M35.8468 28.4723C35.8468 28.205 35.6302 27.9883 35.3629 27.9883C35.0956 27.9883 34.8789 28.205 34.8789 28.4723C34.8789 28.7396 35.0956 28.9562 35.3629 28.9562C35.6302 28.9562 35.8468 28.7396 35.8468 28.4723Z" fill="#2490BF"/>
<path d="M38.0773 28.4723C38.0773 28.205 37.8606 27.9883 37.5933 27.9883C37.326 27.9883 37.1094 28.205 37.1094 28.4723C37.1094 28.7396 37.326 28.9562 37.5933 28.9562C37.8606 28.9562 38.0773 28.7396 38.0773 28.4723Z" fill="#2490BF"/>
</g>
<path d="M39.9757 29.4018H30.7493C30.4606 29.4018 30.2266 29.1678 30.2266 28.8791V26.3688C30.2266 26.0801 30.4606 25.8461 30.7493 25.8461H37.6094L40.6691 23.2178L39.1828 25.8461H39.9755C40.2642 25.8461 40.4983 26.0801 40.4983 26.3688V28.8791C40.4984 29.1679 40.2644 29.4018 39.9757 29.4018Z" fill="#0090C9"/>
<path d="M33.6125 27.6871C33.6125 27.4198 33.3958 27.2031 33.1285 27.2031C32.8612 27.2031 32.6445 27.4198 32.6445 27.6871C32.6445 27.9544 32.8612 28.1711 33.1285 28.1711C33.3958 28.1711 33.6125 27.9544 33.6125 27.6871Z" fill="white"/>
<path d="M35.8429 27.6871C35.8429 27.4198 35.6263 27.2031 35.359 27.2031C35.0917 27.2031 34.875 27.4198 34.875 27.6871C34.875 27.9544 35.0917 28.1711 35.359 28.1711C35.6263 28.1711 35.8429 27.9544 35.8429 27.6871Z" fill="white"/>
<path d="M38.0734 27.6871C38.0734 27.4198 37.8567 27.2031 37.5894 27.2031C37.3221 27.2031 37.1055 27.4198 37.1055 27.6871C37.1055 27.9544 37.3221 28.1711 37.5894 28.1711C37.8567 28.1711 38.0734 27.9544 38.0734 27.6871Z" fill="white"/>
<path d="M60.5282 35.4521C60.4681 36.9039 60.3962 38.7091 60.3086 40.1594C60.6173 40.1594 60.7718 40.1594 61.0805 40.1594C61.1673 38.7094 61.2386 36.9047 61.2979 35.4534C60.99 35.453 60.8361 35.4528 60.5282 35.4521Z" fill="#808080"/>
<path d="M59.3527 35.4501C57.3199 35.4467 55.2872 35.4432 53.2544 35.4395C53.1884 36.8955 53.1102 38.7049 53.0156 40.1594C55.0537 40.1594 57.0917 40.1594 59.1298 40.1594C59.6012 40.1594 59.8369 40.1594 60.3083 40.1594C60.3959 38.7091 60.4678 36.9038 60.5278 35.4521C60.0578 35.4513 59.8227 35.4509 59.3527 35.4501Z" fill="#B0B0B0"/>
<path d="M72.7852 34.1384C73.4512 34.7983 73.5277 34.9037 74.1914 35.5652C74.964 28.5312 75.5754 21.4813 76.4561 14.4593C76.6225 13.293 76.2372 12.0977 75.3556 11.3447C74.2842 18.9419 73.6041 26.5119 72.7852 34.1384Z" fill="#B0B0B0"/>
<path d="M72.7835 34.1382C73.4496 34.7982 74.1898 35.565 74.1898 35.565L43.3134 35.5082C43.3134 35.5082 42.721 34.818 42.1523 34.1382C52.3628 34.1787 62.5732 34.1038 72.7835 34.1382Z" fill="#969696"/>
<path d="M42.1523 34.1384C52.3627 34.1789 62.5731 34.104 72.7835 34.1384C72.9266 32.8285 72.9945 32.113 73.1281 30.817C62.9328 30.7449 52.7376 30.8959 42.5423 30.817C42.4167 31.9392 42.2873 33.0172 42.1523 34.1384Z" fill="#E3E3E3"/>
<path d="M44.9596 11.3443C43.9048 17.7406 43.2597 24.376 42.543 30.8165C52.7381 30.8954 62.9335 30.7445 73.1287 30.8165C73.7972 24.2714 74.4365 17.8605 75.3546 11.3443C65.2229 11.3524 55.0912 11.3131 44.9596 11.3443Z" fill="#1A1A1A"/>
<path d="M73.9824 12.4879C64.649 12.4629 55.3155 12.4833 45.982 12.4746C45.9013 12.9757 45.862 13.2277 45.7852 13.7346C55.1217 13.7832 64.4584 13.8034 73.7948 13.865C73.8679 13.3161 73.9053 13.0409 73.9824 12.4879Z" fill="#C9C9C9"/>
<path d="M46.1914 13.416C46.2298 13.1661 46.2492 13.0415 46.2886 12.793C54.2671 12.809 62.2458 12.8048 70.2244 12.8249C70.1871 13.0943 70.1687 13.229 70.1324 13.4977C62.152 13.4617 54.1716 13.4489 46.1914 13.416Z" fill="white"/>
<path d="M45.7838 13.7344C45.0134 18.9838 44.4587 24.3734 43.8789 29.6464C53.2665 29.7304 62.654 29.5682 72.0416 29.6464C72.5792 24.3417 73.1076 19.1528 73.7934 13.8648C64.457 13.8031 55.1203 13.783 45.7838 13.7344Z" fill="#373B4A"/>
<path d="M58.5421 14.561C54.9311 14.5396 51.3201 14.5179 47.709 14.4932C47.322 16.4682 46.9755 18.4511 46.6445 20.4361C50.3634 20.4905 54.0823 20.5419 57.8012 20.5925C58.0284 18.5798 58.2683 16.568 58.5421 14.561Z" fill="#FFDF87"/>
<path d="M46.6446 20.4365C46.5754 20.8526 46.5411 21.0614 46.4727 21.4804C50.21 21.5355 53.9474 21.5874 57.6849 21.6387C57.7311 21.2196 57.7543 21.0104 57.8013 20.5929C54.0824 20.5423 50.3635 20.4909 46.6446 20.4365Z" fill="#7FB8FA"/>
<path d="M71.3013 16.3961C71.1158 17.4549 69.9584 18.1931 68.8793 18.2083C67.8711 18.2225 66.8364 17.3566 66.9874 16.3493C67.1492 15.2702 68.3284 14.5196 69.4201 14.5304C70.3485 14.5396 71.4819 15.3659 71.3013 16.3961Z" fill="white"/>
<path d="M70.2846 16.065C69.9965 16.062 69.8525 16.0604 69.5645 16.0575C69.6 15.811 69.6179 15.6876 69.654 15.4407C69.6648 15.3674 69.6047 15.3073 69.5199 15.3066C69.3472 15.305 69.2609 15.3043 69.0884 15.3027C69.0035 15.302 68.9256 15.3607 68.9144 15.434C68.8762 15.6805 68.8573 15.8036 68.8199 16.0498C68.532 16.0469 68.3882 16.0454 68.1005 16.0425C68.0151 16.0417 67.9363 16.1002 67.9244 16.1732C67.9004 16.3217 67.8885 16.396 67.8647 16.5445C67.853 16.6175 67.9133 16.6774 67.9993 16.6783C68.289 16.6815 68.4339 16.6831 68.7238 16.6864C68.6869 16.9323 68.6687 17.0553 68.6324 17.3011C68.6217 17.3741 68.6833 17.4341 68.7701 17.4352C68.9468 17.4374 69.0351 17.4385 69.2118 17.4407C69.2985 17.4418 69.3772 17.3834 69.3873 17.3103C69.4215 17.0642 69.4388 16.9412 69.4737 16.695C69.7638 16.6982 69.9088 16.6999 70.1988 16.7033C70.2849 16.7043 70.3626 16.6458 70.3723 16.5724C70.392 16.4233 70.4019 16.3487 70.4219 16.1995C70.4315 16.126 70.3701 16.0659 70.2846 16.065Z" fill="#F45B5B"/>
<path d="M57.9182 32.5952C57.8394 33.0806 57.3226 33.4262 56.8411 33.4378C56.3913 33.4487 55.9301 33.0519 55.9943 32.5861C56.063 32.0871 56.5829 31.7412 57.0695 31.7452C57.4834 31.7487 57.9949 32.1228 57.9182 32.5952Z" fill="#808080"/>
<path d="M72.154 19.9561C68.5316 19.9029 64.9093 19.8531 61.2868 19.8047C60.9567 21.8468 60.646 23.8919 60.3359 25.9371C64.0617 25.9803 67.7874 26.0239 71.513 26.0696C71.7192 24.031 71.9278 21.9926 72.154 19.9561Z" fill="#FFDF87"/>
<path d="M60.3363 25.9365C60.2721 26.3609 60.2401 26.5734 60.1758 26.9992C63.9196 27.039 67.6635 27.0791 71.4073 27.1211C71.4498 26.6998 71.4709 26.4894 71.5135 26.069C67.7878 26.0233 64.062 25.9798 60.3363 25.9365Z" fill="#7FB8FA"/>
<path d="M64.1292 25.5485C64.1938 25.3435 64.2646 25.1425 64.344 24.9513C64.3997 24.8171 64.465 24.6897 64.5345 24.5689C64.3688 24.472 64.1206 24.3023 63.8689 24.043C63.7721 24.2123 63.697 24.3922 63.6328 24.5716C63.5937 24.6806 63.5615 24.7935 63.5273 24.9048C63.501 25.0189 63.4719 25.1324 63.4484 25.2468C63.4015 25.4754 63.3693 25.7102 63.3441 25.9457C63.3432 25.9541 63.3443 25.9625 63.3443 25.971C63.6102 25.9741 63.743 25.9757 64.0088 25.9787C64.0211 25.9316 64.0272 25.9082 64.0395 25.861C64.0754 25.736 64.0933 25.6735 64.1292 25.5485Z" fill="#FFBD81"/>
<path d="M63.8327 23.9041C63.9092 23.7813 64.0039 23.6573 64.113 23.549C64.1686 23.4939 64.2265 23.4388 64.2979 23.3899C64.3303 23.3648 64.3713 23.3406 64.4096 23.3168C64.458 23.2906 64.4819 23.2742 64.577 23.241C64.7134 23.1934 64.9211 23.2462 65.06 23.3675C65.1445 23.4415 65.1841 23.548 65.1835 23.6397C65.1828 23.7314 65.1477 23.8111 65.1087 23.8864C65.0204 24.0568 64.8945 24.1957 64.7911 24.3548C64.7548 24.3999 64.7208 24.4485 64.6887 24.4997C64.6507 24.5607 64.6134 24.6236 64.5768 24.6872C64.372 24.5675 64.065 24.3576 63.7539 24.037C63.7795 23.9924 63.8059 23.9473 63.8327 23.9041Z" fill="#D8E6EA"/>
<path d="M65.1491 23.1608C65.1149 23.1774 65.0834 23.1975 65.0508 23.2164C65.0971 24.3253 65.1216 24.8813 65.1702 25.997C65.7108 26.0034 65.9813 26.0066 66.5221 26.013C66.504 24.8755 66.495 24.3088 66.4792 23.1778C66.0355 22.9683 65.5112 22.984 65.1491 23.1608Z" fill="#00E3CC"/>
<path d="M64.1808 24.3086C63.9962 24.7806 64.084 25.4568 64.0234 25.9841C64.4826 25.9894 64.7123 25.9922 65.1717 25.9975C65.1231 24.8816 65.0987 24.3258 65.0523 23.2168C64.6392 23.4562 64.3542 23.8649 64.1808 24.3086Z" fill="#D0E1E3"/>
<path d="M66.5351 23.202C66.5173 23.1927 66.4985 23.1863 66.4805 23.1777C66.4961 24.3087 66.5052 24.8754 66.5234 26.0129C67.1216 26.02 67.4209 26.0235 68.0194 26.0307C67.7979 25.1641 67.5092 23.7115 66.5351 23.202Z" fill="#D0E1E3"/>
<path d="M68.2159 25.9221C68.2029 25.8077 68.1845 25.6913 68.1688 25.5757C68.1457 25.4589 68.1247 25.3422 68.097 25.2248C68.0517 25.0326 67.9965 24.8348 67.9208 24.6367C67.673 24.7572 67.435 24.798 67.2773 24.8102C67.3316 24.9517 67.3818 25.0974 67.4227 25.2448C67.4811 25.4551 67.531 25.6695 67.575 25.8853C67.5849 25.9399 67.5898 25.9672 67.5999 26.0218C67.85 26.0248 67.9752 26.0263 68.2253 26.0293C68.2218 25.9935 68.22 25.958 68.2159 25.9221Z" fill="#FFBD81"/>
<path d="M67.9664 24.5268C67.9059 24.3801 67.8293 24.2248 67.7378 24.0761C67.6912 24.0002 67.643 23.9241 67.5817 23.8468C67.5543 23.8093 67.5187 23.7685 67.4857 23.7294C67.4437 23.6833 67.4236 23.658 67.3394 23.584C67.2189 23.4783 67.0265 23.4313 66.8913 23.478C66.8089 23.5066 66.765 23.5852 66.7588 23.6688C66.7525 23.7525 66.7785 23.8412 66.8083 23.9273C66.8759 24.1226 66.9799 24.3063 67.0623 24.4983C67.0919 24.5558 67.1193 24.6155 67.1447 24.6768C67.1748 24.7496 67.2042 24.8237 67.2328 24.8984C67.4277 24.8832 67.722 24.8328 68.0284 24.6838C68.0084 24.6313 67.988 24.5788 67.9664 24.5268Z" fill="#D8E6EA"/>
<path d="M65.3262 22.1611C65.3081 22.4243 65.2991 22.556 65.2812 22.8197C65.485 22.963 65.7239 23.0496 65.949 23.0543C66.0961 23.0574 66.235 23.025 66.3553 22.9648C66.3694 22.7826 66.3766 22.6916 66.3908 22.5095C65.9648 22.3702 65.7519 22.3005 65.3262 22.1611Z" fill="#F78B4F"/>
<path d="M65.2806 22.8193C65.2718 22.95 65.2674 23.0153 65.2587 23.1461C65.2444 23.3576 65.4133 23.5793 65.6374 23.6408C65.6867 23.6543 65.742 23.6657 65.8042 23.6739C66.3088 23.741 66.314 23.4912 66.314 23.4912C66.3301 23.2805 66.3384 23.1751 66.3547 22.9646C66.2343 23.0246 66.0955 23.0572 65.9484 23.054C65.7233 23.0493 65.4844 22.9628 65.2806 22.8193Z" fill="#F79E6C"/>
<path d="M66.6533 21.9433C66.6707 21.909 66.6818 21.8521 66.682 21.7903C66.682 21.7492 66.6772 21.706 66.666 21.6659C66.665 21.6624 66.6632 21.6592 66.6621 21.6557C66.6538 21.629 66.6417 21.6047 66.6271 21.583C66.6111 21.5594 66.5925 21.5384 66.568 21.5247C66.5533 21.5165 66.5396 21.5118 66.5263 21.5085C66.521 21.5072 66.5157 21.5062 66.5106 21.5055C66.504 21.5047 66.4976 21.5047 66.4913 21.5049C66.4663 21.5057 66.4434 21.5148 66.4226 21.5275C66.3762 21.563 66.3692 21.632 66.3177 21.6736C66.2551 21.7242 66.1758 21.7222 66.1061 21.6402C66.0724 21.6005 66.0518 21.5532 66.0332 21.507C65.9298 21.2497 65.8927 20.9972 65.8363 20.7383C65.6799 20.8962 65.4496 20.9751 65.2067 20.9933C65.1063 21.0008 65.0032 20.9968 64.8994 20.9876C64.8573 21.2758 64.884 21.5901 64.9441 21.8942C64.9976 22.1648 65.1066 22.5027 65.3793 22.6746C65.4056 22.6912 65.4337 22.7069 65.4635 22.7214C66.0216 22.9937 66.4144 22.7308 66.5289 22.2683C66.5296 22.2686 66.5304 22.2685 66.5312 22.2689C66.4989 22.2034 66.4663 22.1381 66.4358 22.0721C66.531 22.0702 66.6138 22.021 66.6533 21.9433Z" fill="#F79E6C"/>
<path d="M66.8752 20.7356C66.8258 20.6677 66.758 20.6072 66.6844 20.5654C66.5884 20.5106 66.4828 20.4878 66.3964 20.5217C66.3333 20.4022 66.197 20.3301 66.0702 20.2863C65.7414 20.1729 65.403 20.1773 65.1032 20.2525C64.8034 20.3277 64.5382 20.47 64.2884 20.6279C64.2547 20.6492 64.2193 20.6737 64.2121 20.7146C64.2034 20.7647 64.243 20.8236 64.2923 20.8572C64.3417 20.8908 64.3987 20.9047 64.4537 20.9169C64.6022 20.9499 64.7515 20.9751 64.8986 20.9882C65.0025 20.9974 65.1055 21.0013 65.2059 20.9939C65.4488 20.9756 65.6792 20.8968 65.8355 20.7389C65.892 20.9978 65.9291 21.2503 66.0324 21.5076C66.051 21.5538 66.0715 21.601 66.1054 21.6408C66.1749 21.7228 66.2542 21.7248 66.317 21.6742C66.368 21.633 66.3756 21.5651 66.4208 21.5292C66.4243 21.527 66.4275 21.5242 66.4312 21.5224C66.4465 21.5131 66.465 21.5066 66.4904 21.5055C66.4967 21.5054 66.5031 21.5053 66.5097 21.5061C66.5148 21.5067 66.5201 21.5078 66.5254 21.5091C66.5386 21.5125 66.5524 21.517 66.5671 21.5252C66.5916 21.5388 66.6102 21.5599 66.6262 21.5834C66.6409 21.6052 66.6529 21.6295 66.6612 21.6562C66.6623 21.6597 66.6641 21.6627 66.6651 21.6663C66.6763 21.7063 66.6812 21.7497 66.6811 21.7908C66.6809 21.8526 66.6698 21.9095 66.6524 21.9438C66.613 22.0214 66.5301 22.0706 66.4348 22.0728C66.4652 22.1388 66.4979 22.2041 66.5301 22.2696C66.8489 22.3903 67.0275 21.752 67.0391 21.5491C67.0547 21.2836 67.0648 20.9966 66.8752 20.7356Z" fill="#9B5B30"/>
<path d="M65.2126 23.1338C65.2126 23.1338 65.154 24.551 65.1339 25.1115C64.9764 24.8379 64.8976 24.7012 64.7402 24.4279C64.8426 24.3824 64.8938 24.3598 64.996 24.3144C64.8069 24.0651 64.7123 23.9405 64.5234 23.6915C64.5234 23.6915 64.7579 23.1182 65.2596 23.1462" fill="#E6F1F2"/>
<path d="M66.4805 23.1787C66.4805 23.1787 66.5165 24.6155 66.5102 25.1786C66.6789 24.9815 66.7632 24.8831 66.9319 24.6863C66.8327 24.5939 66.7832 24.5477 66.6841 24.4553C66.8831 24.297 66.9827 24.2179 67.1818 24.0599C67.1818 24.0599 66.9779 23.3845 66.4805 23.1787Z" fill="#E6F1F2"/>
<path d="M65.8111 22.2379C65.8152 22.2307 65.815 22.219 65.8085 22.2007C65.788 22.1434 65.7332 22.0904 65.6781 22.0621C65.6024 22.0232 65.5112 22.0269 65.4642 22.0783C65.4168 22.0115 65.321 21.9906 65.2572 22.0169C65.2294 22.0284 65.2064 22.0469 65.1878 22.0689C65.1749 22.0842 65.1484 22.1213 65.1585 22.1466C65.1719 22.1805 65.2593 22.1839 65.2846 22.1869C65.3415 22.1938 65.3985 22.2008 65.4554 22.2077C65.5461 22.2187 65.6369 22.2298 65.7276 22.2409C65.7589 22.2447 65.8001 22.2573 65.8111 22.2379Z" fill="#9B5B30"/>
<path d="M49.2096 16.9475C49.2675 16.8568 49.277 16.7382 49.2833 16.6248C49.2885 16.5295 49.2531 16.4421 49.2158 16.3478C49.1748 16.2444 49.128 16.1421 49.0761 16.0417C49.0588 16.0084 49.0405 15.9748 49.0141 15.9464C48.9744 15.9038 48.9202 15.921 48.9052 15.9651C48.8982 15.986 48.9016 16.0103 48.906 16.0338C48.916 16.0863 48.9299 16.1401 48.9502 16.1918C48.9546 16.2031 48.9897 16.3178 48.9766 16.3155C48.7133 16.2692 48.4609 16.1447 48.196 16.1211C48.1659 16.1184 48.1352 16.1158 48.1072 16.1213C48.0196 16.1386 47.9603 16.2031 48.0018 16.2969C48.0335 16.3685 48.1075 16.4245 48.1748 16.4663C48.3114 16.551 48.4703 16.6227 48.6193 16.6683C48.6472 16.6768 48.6752 16.6843 48.7033 16.6906C48.7114 16.6924 48.7197 16.6944 48.7267 16.6994C48.7351 16.7056 48.7395 16.7152 48.7434 16.7242C48.7668 16.7792 48.7846 16.8355 48.7963 16.8919C48.7964 16.8917 49.1379 17.0597 49.2096 16.9475Z" fill="#F79E6C"/>
<path d="M51.7034 17.8294C51.6934 17.8233 51.6826 17.8172 51.6712 17.8116C51.5921 17.772 51.5065 17.7592 51.4239 17.7536C51.0178 17.7252 50.642 17.8873 50.3115 18.042C49.9616 18.2056 49.6373 18.406 49.296 18.5823C49.2974 18.3953 49.2989 18.2086 49.3006 18.0223C49.3021 17.8651 49.2992 17.5236 49.301 17.367C49.3021 17.2675 49.2951 17.1684 49.2881 17.069C49.2835 17.0035 49.2789 16.9379 49.2767 16.8717C49.0849 16.8262 48.893 16.7808 48.7013 16.7354C48.687 16.8053 48.6761 16.8764 48.6657 16.9477C48.624 17.2327 48.6095 17.5272 48.6047 17.8229C48.5991 18.1657 48.5683 18.5456 48.7006 18.9005C48.7544 19.0447 48.842 19.1947 48.9812 19.2783C49.2026 19.4113 49.5149 19.3033 49.7102 19.2462C49.9527 19.1751 50.1783 19.0724 50.4008 18.967C50.4556 18.9411 50.5093 18.9129 50.5628 18.884C50.3904 19.3442 50.4607 19.9851 50.3958 20.4901C50.8546 20.4967 51.084 20.4998 51.5427 20.5063C51.5155 19.6567 51.5027 19.2342 51.4804 18.3947C51.6547 18.2885 52.01 18.0195 51.7034 17.8294Z" fill="#00C5AB"/>
<path d="M51.5641 17.7219C51.5296 17.7383 51.4977 17.758 51.4648 17.7764C51.4915 18.8598 51.5079 19.4061 51.5431 20.5065C52.0831 20.5141 52.3529 20.5179 52.8925 20.5253C52.8879 19.402 52.887 18.8442 52.8914 17.7371C52.4524 17.5325 51.9288 17.5489 51.5641 17.7219Z" fill="#FFF7E0"/>
<path d="M52.9436 17.761C52.9261 17.7519 52.9074 17.7456 52.8895 17.7373C52.8852 18.8445 52.8861 19.4023 52.8906 20.5256C53.4875 20.5338 53.786 20.538 54.3827 20.5461C54.1721 19.6884 53.9066 18.2584 52.9436 17.761Z" fill="#00C5AB"/>
<path d="M51.837 16.8662C51.8176 17.0812 51.808 17.1887 51.7891 17.4043C51.9573 17.5213 52.1558 17.5919 52.344 17.5955C52.467 17.5978 52.5836 17.5711 52.6851 17.5217C52.6997 17.3723 52.7071 17.2977 52.7218 17.1487C52.3678 17.0356 52.1909 16.9791 51.837 16.8662Z" fill="#F78B4F"/>
<path d="M53.0349 16.6024C53.079 16.5205 53.0856 16.2949 52.9645 16.2287C52.8401 16.1606 52.7713 16.2937 52.7013 16.3478C52.6914 16.3556 52.6803 16.3626 52.6668 16.364C52.6348 16.3676 52.6002 16.3379 52.5872 16.3065C52.574 16.2751 52.5765 16.2426 52.5782 16.2114C52.5888 16.0247 52.6226 15.8393 52.5249 15.6573C52.2384 15.123 51.4984 15.5508 51.4984 15.5508C51.394 15.8578 51.4081 16.2179 51.4712 16.5636C51.5152 16.8047 51.6091 17.1063 51.8558 17.2598C51.8796 17.2746 51.905 17.2886 51.9321 17.3015C52.4384 17.5443 52.8021 17.308 52.915 16.8935C52.9157 16.8938 52.9164 16.8938 52.917 16.894C52.8887 16.8355 52.86 16.7772 52.8333 16.7183C52.9207 16.7161 52.9974 16.6719 53.0349 16.6024Z" fill="#F79E6C"/>
<path d="M53.0974 15.3601C52.9297 15.1732 52.7147 15.0826 52.4848 15.0329C52.4466 15.0247 52.035 15.0346 52.035 15.0346C52.035 15.0346 51.9325 14.8104 51.8235 14.7722C51.7357 14.7415 51.651 14.7896 51.609 14.856C51.5732 14.9129 51.5616 14.9954 51.6121 15.058C51.4759 15.011 51.3416 14.9502 51.2031 14.9537C51.1733 14.9544 51.1428 14.9583 51.1211 14.9745C51.0852 15.001 51.0824 15.0555 51.1016 15.1022C51.1208 15.1488 51.1578 15.1892 51.1948 15.2274C51.2192 15.2525 51.5027 15.5433 51.5 15.5509C51.5 15.5509 52.2401 15.1231 52.5266 15.6575C52.6242 15.8396 52.5905 16.0248 52.5799 16.2115C52.5781 16.2427 52.5757 16.2752 52.5888 16.3066C52.6019 16.338 52.6364 16.3678 52.6685 16.3641C52.682 16.3627 52.6931 16.3556 52.703 16.3479C52.773 16.2938 52.8417 16.1608 52.9662 16.2288C53.0873 16.295 53.0806 16.5206 53.0365 16.6026C52.9991 16.6722 52.9223 16.7163 52.8351 16.7186C52.8618 16.7774 52.8906 16.8358 52.9188 16.8943C53.2084 17.0014 53.3831 16.4296 53.3976 16.2482C53.4208 15.9536 53.3263 15.6152 53.0974 15.3601Z" fill="#6D5952"/>
<path d="M51.7014 17.6669C51.7014 17.6669 51.5433 19.0828 51.5157 19.6339C51.3621 19.3647 51.2853 19.2303 51.1322 18.9622C51.2352 18.9177 51.2867 18.8955 51.3895 18.851C51.1819 18.6082 51.0782 18.4871 50.8711 18.2453C50.8711 18.2453 51.2009 17.6402 51.7014 17.6669Z" fill="#00DEC1"/>
<path d="M52.7227 17.6709C52.7227 17.6709 52.8402 19.1705 52.8878 19.7573C53.0749 19.5012 53.1684 19.3733 53.3559 19.1179C53.2484 19.0389 53.1948 18.9995 53.0875 18.9208C53.2569 18.7337 53.3416 18.6402 53.5113 18.4533C53.5113 18.4533 53.2264 17.8058 52.7227 17.6709Z" fill="#00DEC1"/>
<path d="M52.345 17.5955C52.1569 17.5918 51.9583 17.5213 51.7901 17.4043C51.7911 17.4049 51.7889 17.4177 51.7889 17.4188C51.7878 17.4312 51.7867 17.4437 51.7856 17.4561C51.7814 17.5039 51.7773 17.5516 51.7731 17.5993C51.7686 17.6505 51.761 17.7011 51.7694 17.7546C51.7751 17.7909 51.783 17.8272 51.7926 17.8634C51.8065 17.9153 51.8244 17.9672 51.8469 18.0179C51.8725 18.0758 51.9043 18.1324 51.9438 18.1848C51.9859 18.2404 52.0367 18.2908 52.0951 18.3303C52.0951 18.3303 52.504 18.2789 52.6217 17.9929C52.6396 17.9581 52.6465 17.9192 52.6515 17.8745C52.6522 17.8681 52.653 17.8619 52.6536 17.8553C52.6611 17.7776 52.6686 17.6999 52.6762 17.6223C52.6785 17.598 52.6809 17.5737 52.6834 17.5495C52.6837 17.5462 52.6829 17.5233 52.686 17.5218C52.5845 17.5712 52.468 17.5979 52.345 17.5955Z" fill="#F79E6C"/>
<path d="M64.6433 17.117C61.0311 17.0768 57.4189 17.0384 53.8066 16.999C53.4503 19.0173 53.1254 21.0408 52.8047 23.0649C56.5235 23.1153 60.2422 23.1645 63.961 23.2145C64.175 21.1805 64.3964 19.1471 64.6433 17.117Z" fill="#FFF7E0"/>
<path d="M52.8059 23.0645C52.7396 23.4863 52.7066 23.6978 52.6406 24.1217C56.3779 24.1705 60.1151 24.218 63.8523 24.2662C63.896 23.8447 63.918 23.6343 63.9621 23.2141C60.2435 23.164 56.5247 23.1148 52.8059 23.0645Z" fill="#7FB8FA"/>
<path d="M56.953 22.7128C57.0152 22.5193 57.0834 22.3297 57.1596 22.1494C57.2131 22.0227 57.2757 21.9025 57.3422 21.7885C57.1858 21.6969 56.9518 21.5366 56.715 21.292C56.6222 21.4516 56.55 21.6212 56.4881 21.7903C56.4505 21.8932 56.4193 21.9995 56.3862 22.1045C56.3607 22.2122 56.3324 22.3191 56.3096 22.4271C56.2639 22.6428 56.2324 22.8644 56.2074 23.0868C56.2065 23.0947 56.2075 23.1027 56.2075 23.1107C56.4593 23.114 56.5852 23.1157 56.837 23.1191C56.8488 23.0746 56.8547 23.0524 56.8666 23.0081C56.901 22.8899 56.9184 22.8309 56.953 22.7128Z" fill="#FFBD81"/>
<path d="M56.681 21.1605C56.7542 21.0449 56.8447 20.928 56.9489 20.826C57.002 20.7741 57.0571 20.7222 57.1251 20.6761C57.1559 20.6524 57.1948 20.6296 57.2313 20.6072C57.2773 20.5825 57.3001 20.5671 57.3903 20.5359C57.5199 20.4911 57.7161 20.5407 57.8468 20.6552C57.9264 20.7249 57.9631 20.8253 57.9619 20.9117C57.9607 20.9981 57.9269 21.0734 57.8895 21.1445C57.8048 21.3052 57.6848 21.4361 57.5859 21.5861C57.5513 21.6287 57.5187 21.6745 57.4881 21.7228C57.4517 21.7803 57.4161 21.8395 57.381 21.8997C57.1877 21.7865 56.8981 21.5882 56.6055 21.2857C56.6299 21.2437 56.6551 21.2013 56.681 21.1605Z" fill="#0090C9"/>
<path d="M59.9149 18.8127C60.0062 19.3136 59.9915 19.8339 59.8781 20.2894C59.8751 20.3013 59.8718 20.3138 59.8624 20.321C59.8561 20.3259 59.8478 20.3279 59.8396 20.3297C59.4836 20.412 59.1414 20.4636 58.7524 20.4234C58.624 20.4101 58.4952 20.3951 58.366 20.3684C58.2437 20.3433 58.1241 20.2891 58.0036 20.2633C57.8908 20.239 57.7841 20.215 57.671 20.1721C57.6392 20.1601 57.3382 20.0421 57.3399 20.0176C57.3733 19.5488 57.4336 19.088 57.454 18.6179C57.4658 18.3471 57.4907 18.103 57.6439 17.8933C57.721 17.7878 57.8215 17.6989 57.9453 17.645C58.1136 17.5718 58.3988 17.536 58.5678 17.715C58.5554 17.7018 58.861 17.67 58.883 17.6716C59.0222 17.6811 59.1655 17.7031 59.301 17.7704C59.6911 17.9644 59.8235 18.3767 59.9002 18.7374C59.9053 18.7625 59.9103 18.7875 59.9149 18.8127Z" fill="#FFDF87"/>
<path d="M59.1851 20.5223C59.1685 20.5136 59.151 20.5075 59.1341 20.4995C58.7207 20.3039 58.2302 20.3189 57.8902 20.4837C57.8582 20.4993 57.8285 20.518 57.7979 20.5355C57.41 20.7587 57.1407 21.14 56.976 21.554C56.8006 21.9945 56.8793 22.6263 56.8203 23.1191C57.25 23.1249 57.4649 23.1277 57.8946 23.1335C58.4003 23.1403 58.6532 23.1437 59.159 23.1503C59.7185 23.1578 59.9982 23.1614 60.5577 23.1689C60.3543 22.3567 60.0926 20.9978 59.1851 20.5223Z" fill="#0079A9"/>
<path d="M58.0643 19.5508C58.0524 19.7961 58.0466 19.9189 58.0352 20.1648C58.2076 20.2982 58.4089 20.3785 58.5974 20.3827C58.7207 20.3853 58.8365 20.3549 58.9364 20.2985C58.9458 20.1284 58.9505 20.0435 58.9601 19.8737C58.6018 19.7444 58.4226 19.6798 58.0643 19.5508Z" fill="#FFAB5E"/>
<path d="M58.037 20.165C58.0308 20.2981 57.9984 20.4345 58.0416 20.5714C58.1095 20.7864 58.2085 20.9985 58.3346 21.1985C58.3399 21.2069 58.6429 21.0465 58.6692 21.03C58.755 20.9767 58.8198 20.9007 58.8625 20.8091C58.9066 20.7144 58.9197 20.6355 58.9257 20.5262C58.9296 20.4529 58.9338 20.3794 58.9377 20.3061C58.9379 20.3036 58.938 20.3011 58.9381 20.2987C58.8382 20.355 58.7223 20.3855 58.5991 20.3828C58.4108 20.3788 58.2094 20.2984 58.037 20.165Z" fill="#FFBD81"/>
<path d="M57.8064 19.0659C57.8173 19.3336 57.8838 19.6114 58.0228 19.8548C58.1795 20.1291 58.6197 20.2417 58.8551 20.139C58.9714 20.0883 59.0585 19.9864 59.1213 19.8817C59.1551 19.8258 59.183 19.7651 59.1999 19.6999C59.2131 19.649 59.2467 19.5903 59.2265 19.532C59.299 19.6167 59.3827 19.5933 59.4366 19.5361C59.4876 19.4819 59.4961 19.3822 59.4969 19.3035C59.4973 19.2734 59.495 19.2424 59.485 19.2117C59.4522 19.1122 59.3767 19.0441 59.2802 19.0808C59.1422 19.1334 59.1865 19.2605 59.1236 19.3703C59.1108 19.3927 59.0862 19.4135 59.0579 19.4015C59.0294 19.3893 59.0198 19.354 59.0154 19.3256C59.0094 19.2871 59.0035 19.2485 58.9976 19.21C58.9943 19.189 58.9911 19.1676 58.9826 19.1469C58.9531 19.0748 58.8823 19.0174 58.8345 18.9551C58.7762 18.8795 58.7252 18.7973 58.6771 18.7166C58.6476 18.6672 58.4062 18.2551 58.4433 18.2275C58.3136 18.3238 58.1775 18.4241 58.0068 18.4554C57.9856 18.4593 57.8767 18.4663 57.8706 18.488C57.8221 18.6612 57.7979 18.8606 57.8064 19.0659Z" fill="#FFBD81"/>
<path d="M60.675 23.0618C60.6623 22.945 60.6442 22.8264 60.6288 22.7085C60.6059 22.5895 60.5851 22.4706 60.5576 22.3511C60.5124 22.1552 60.4573 21.9536 60.3815 21.752C60.1274 21.8745 59.8839 21.9157 59.7227 21.9281C59.7772 22.0723 59.8274 22.2206 59.8684 22.3708C59.9268 22.5849 59.9764 22.8036 60.0202 23.0236C60.0301 23.0793 60.0349 23.1071 60.0448 23.1628C60.3005 23.1662 60.4284 23.1679 60.6841 23.1714C60.6807 23.1346 60.679 23.0984 60.675 23.0618Z" fill="#FFBD81"/>
<path d="M60.4243 21.6399C60.3635 21.4905 60.2863 21.3324 60.1939 21.181C60.1468 21.1038 60.0981 21.0263 60.0361 20.9479C60.0083 20.9096 59.9724 20.8683 59.9391 20.8285C59.8965 20.7818 59.8762 20.7559 59.7907 20.6807C59.6684 20.5732 59.4722 20.5256 59.3335 20.5731C59.2491 20.6019 59.2036 20.6819 59.1965 20.7669C59.1894 20.8518 59.2152 20.942 59.2451 21.0296C59.3125 21.2281 59.4176 21.415 59.5004 21.6102C59.5303 21.6688 59.5578 21.7295 59.5834 21.7919C59.6137 21.8659 59.6431 21.9415 59.6719 22.0175C59.8713 22.0021 60.1723 21.9511 60.4865 21.7996C60.4664 21.7463 60.4459 21.6928 60.4243 21.6399Z" fill="#0090C9"/>
<path d="M47.6541 27.3416C47.9829 27.7778 47.8699 28.3818 47.4012 28.6913C46.9325 29.0008 46.286 28.8967 45.9574 28.4583C45.6288 28.0199 45.7424 27.415 46.2109 27.1078C46.6793 26.8006 47.3253 26.9055 47.6541 27.3416Z" fill="#89C33F"/>
<path d="M47.1385 27.7704C47.1478 27.6948 47.1524 27.657 47.1617 27.5814C46.9461 27.5792 46.5345 27.5747 46.3188 27.5723C46.2789 27.8292 46.2589 27.9577 46.2188 28.2154C46.4428 28.2177 46.8587 28.2219 47.0828 28.2242C47.0921 28.1484 47.0968 28.1106 47.1061 28.0348C47.1926 28.1116 47.2364 28.1499 47.3249 28.2266C47.353 27.9692 47.3669 27.8407 47.3948 27.584C47.2934 27.6585 47.2422 27.6959 47.1385 27.7704Z" fill="white"/>
<path d="M54.461 27.4135C54.7904 27.8465 54.6793 28.4464 54.2123 28.7538C53.7454 29.0612 53.0998 28.9585 52.7709 28.5235C52.442 28.0884 52.5537 27.4877 53.0202 27.1823C53.4868 26.8768 54.1316 26.9806 54.461 27.4135Z" fill="#7FB8FA"/>
<path d="M53.6048 28.1279C53.7371 28.1293 53.8446 28.044 53.8439 27.9386C53.843 27.8086 53.8425 27.7435 53.8415 27.6136C53.8408 27.5084 53.7355 27.4213 53.6077 27.4199C53.4798 27.4186 53.374 27.5036 53.3723 27.6088C53.3702 27.7387 53.3693 27.8037 53.3672 27.9339C53.3656 28.0394 53.4725 28.1267 53.6048 28.1279Z" fill="white"/>
<path d="M53.6402 28.2689C53.8378 28.2562 53.9914 28.1272 53.9891 27.9672C53.9884 27.9175 53.988 27.8927 53.9873 27.8429C53.987 27.8273 53.9712 27.8145 53.952 27.8144C53.9328 27.8141 53.9172 27.8267 53.9174 27.8423C53.9179 27.892 53.9183 27.9169 53.9188 27.9666C53.9202 28.1051 53.7794 28.2165 53.6047 28.215C53.4301 28.2133 53.2903 28.0991 53.2929 27.9606C53.2939 27.9108 53.2944 27.8859 53.2953 27.8363C53.2957 27.8207 53.2802 27.8079 53.261 27.8076C53.2418 27.8075 53.2259 27.8199 53.2255 27.8355C53.2244 27.8853 53.2238 27.9101 53.2227 27.9599C53.2191 28.1199 53.3716 28.252 53.5689 28.2683C53.5686 28.3334 53.5683 28.366 53.568 28.4313C53.568 28.4313 53.5681 28.4315 53.5682 28.4318C53.4849 28.431 53.4433 28.4306 53.36 28.4298C53.3402 28.4297 53.3239 28.4422 53.3235 28.4577C53.3233 28.4733 53.3392 28.4861 53.359 28.4864C53.5548 28.4882 53.6527 28.489 53.8483 28.4909C53.8681 28.491 53.8842 28.4785 53.8841 28.4629C53.884 28.4474 53.8676 28.4345 53.8479 28.4343C53.7646 28.4335 53.7229 28.4331 53.6396 28.4324C53.6397 28.4321 53.6397 28.4321 53.6399 28.4319C53.64 28.3665 53.64 28.334 53.6402 28.2689Z" fill="white"/>
<path d="M51.0612 27.3779C51.3903 27.8125 51.2781 28.4144 50.8103 28.7229C50.3426 29.0314 49.6967 28.928 49.368 28.4914C49.0393 28.0548 49.152 27.4519 49.6196 27.1456C50.0869 26.8392 50.7322 26.9435 51.0612 27.3779Z" fill="#F45B5B"/>
<path d="M50.6141 28.0305C50.5572 28.0027 50.5287 27.9888 50.4718 27.9611C50.4251 27.9384 50.3769 27.9568 50.3666 28.0011C50.3567 28.0437 50.3518 28.0649 50.342 28.1074C50.2648 28.0834 50.1683 28.037 50.0598 27.9434C49.9693 27.8653 49.917 27.7894 49.8859 27.725C49.9271 27.7052 49.9477 27.6954 49.9889 27.6756C50.0286 27.6565 50.0366 27.6036 50.0064 27.5601C49.9694 27.507 49.9511 27.4804 49.9141 27.4274C49.8851 27.3857 49.832 27.3689 49.7958 27.3899C49.7732 27.4031 49.7506 27.4161 49.728 27.4293C49.6918 27.4503 49.6631 27.4722 49.6476 27.5133C49.6367 27.5419 49.6401 27.5712 49.6471 27.6048C49.6851 27.7871 49.7897 27.9632 49.9413 28.0938C50.173 28.2937 50.376 28.3393 50.4963 28.3451C50.5643 28.3483 50.6194 28.3121 50.6385 28.2509C50.6518 28.2084 50.6585 28.1871 50.6717 28.1446C50.6846 28.1035 50.6588 28.0523 50.6141 28.0305Z" fill="white"/>
<path d="M65.0396 39.5518H45.1484V40.1493H65.0396V39.5518Z" fill="#E3E3E3"/>
<path d="M47.1862 39.2012H45.6289V39.5517H47.1862V39.2012Z" fill="#292B33"/>
<path d="M49.1198 39.2012H47.5625V39.5517H49.1198V39.2012Z" fill="#292B33"/>
<path d="M56.9361 39.2012H49.4922V39.5517H56.9361V39.2012Z" fill="#292B33"/>
<path d="M58.776 39.2012H57.2188V39.5517H58.776V39.2012Z" fill="#292B33"/>
<path d="M60.7057 39.2012H59.1484V39.5517H60.7057V39.2012Z" fill="#292B33"/>
<path d="M62.6393 39.2012H61.082V39.5517H62.6393V39.2012Z" fill="#292B33"/>
<path d="M64.5729 39.2012H63.0156V39.5517H64.5729V39.2012Z" fill="#292B33"/>
<path d="M66.283 39.2012H64.9453V39.5517H66.283V39.2012Z" fill="#292B33"/>
<path d="M67.9432 39.2012H66.6055V39.5517H67.9432V39.2012Z" fill="#292B33"/>
<path d="M68.1957 39.5518H65.0391V40.1493H68.1957V39.5518Z" fill="#B0B0B0"/>
<path d="M73.4084 38.7646H72.1422C71.4079 38.7646 70.8125 39.36 70.8125 40.0944V40.1498H74.7382V40.0944C74.7382 39.36 74.1428 38.7646 73.4084 38.7646Z" fill="#808080"/>
<path d="M83.9554 40.1592H77.3037H30.5756C30.0614 40.1592 29.6445 40.5704 29.6445 41.0776H77.3037H84.8865C84.8865 40.5704 84.4696 40.1592 83.9554 40.1592Z" fill="#7FB8FA"/>
<path d="M77.3037 41.0771H29.6445C29.6445 41.5844 30.0614 41.9957 30.5756 41.9957H77.3037H83.9554C84.4696 41.9957 84.8865 41.5844 84.8865 41.0771H77.3037Z" fill="#618DBF"/>
<g opacity="0.25">
<path d="M34.7259 8.21224C31.5983 8.71688 29.3831 11.4426 29.4286 14.5191L27.0078 16.1224L29.932 16.9038C31.0397 19.5088 33.8135 21.1259 36.7336 20.6548C40.1695 20.1004 42.5055 16.8656 41.951 13.4297C41.3966 9.99381 38.1618 7.65795 34.7259 8.21224Z" fill="#2490BF"/>
</g>
<path d="M34.7259 7.56579C31.5983 8.07042 29.3831 10.7961 29.4286 13.8726L27.0078 15.4761L29.932 16.2574C31.0397 18.8625 33.8135 20.4796 36.7336 20.0084C40.1695 19.454 42.5055 16.2192 41.951 12.7834C41.3966 9.34735 38.1618 7.01137 34.7259 7.56579Z" fill="white"/>
<path d="M38.9703 12.8472C38.9703 11.8293 38.145 11.0039 37.1269 11.0039C36.5353 11.0039 36.0101 11.2838 35.6729 11.7171C35.3356 11.2838 34.8104 11.0039 34.2188 11.0039C33.2008 11.0039 32.3755 11.8291 32.3755 12.8472C32.3755 12.8472 32.0876 14.4896 34.9055 17.0182C35.3479 17.4153 36.0159 17.4241 36.4652 17.0348C37.4728 16.162 39.0716 14.5047 38.9703 12.8472Z" fill="#F45B5B"/>
<path d="M33.4062 14.2767H34.6709L34.8908 13.3111L35.2757 14.9397L35.6708 12.7275L36.073 14.9397L36.4303 13.2957L36.6778 14.2767H37.8599" stroke="white" stroke-width="0.9454" stroke-miterlimit="10" stroke-linecap="round" stroke-linejoin="round"/>
<path d="M12.0117 50.2003C12.01 49.9998 12.0084 49.7992 12.0048 49.5988C12.0036 49.5314 12.0013 49.4641 11.9998 49.3968C11.9955 49.1959 11.9911 48.995 11.9848 48.7942C11.9827 48.7266 11.9795 48.6591 11.9771 48.5915C11.9701 48.3909 11.9631 48.1905 11.954 47.99C11.9509 47.9206 11.9467 47.8513 11.9433 47.7819C11.9336 47.5834 11.9241 47.3848 11.9125 47.1864C11.9084 47.1166 11.9032 47.0467 11.8988 46.9769C11.8866 46.7788 11.8744 46.5807 11.8601 46.3829C11.8557 46.32 11.8501 46.2572 11.8454 46.1943C11.83 45.9896 11.8146 45.7849 11.7972 45.5803C11.7921 45.5207 11.7861 45.4613 11.7809 45.4017C11.7626 45.1942 11.7441 44.9866 11.7237 44.7794C11.7173 44.7143 11.7098 44.6495 11.7033 44.5844C11.6827 44.3825 11.6621 44.1807 11.6395 43.979C11.6325 43.9162 11.6244 43.8535 11.6171 43.7906C11.5937 43.587 11.5701 43.3834 11.5446 43.18C11.5368 43.1178 11.5279 43.0556 11.52 42.9933C11.4937 42.7896 11.4674 42.5858 11.4391 42.3824C11.4303 42.3192 11.4205 42.2561 11.4116 42.1929C11.3828 41.9907 11.3541 41.7884 11.3232 41.5865C11.3132 41.5206 11.3021 41.4549 11.2918 41.389C11.2608 41.1898 11.2297 40.9906 11.1967 40.7917C11.1868 40.732 11.1759 40.6724 11.1658 40.6129C11.1312 40.4083 11.0964 40.2037 11.0597 39.9995C11.0469 39.9283 11.033 39.8574 11.0199 39.7862C10.9846 39.5938 10.9495 39.4013 10.9123 39.2093C10.8964 39.1276 10.8794 39.0463 10.8633 38.9647C10.8274 38.7833 10.7919 38.602 10.7543 38.4208C10.7372 38.3383 10.7188 38.256 10.7014 38.1735C10.6633 37.9938 10.6256 37.8139 10.586 37.6347C10.5681 37.554 10.549 37.4737 10.5309 37.3931C10.4902 37.2122 10.4496 37.0311 10.4071 36.8507C10.3893 36.7746 10.3702 36.6986 10.3519 36.6225C10.3078 36.4382 10.2639 36.2538 10.2181 36.07C10.1958 35.9803 10.1721 35.8911 10.1494 35.8016C10.1062 35.6314 10.0633 35.4612 10.0188 35.2915C9.99568 35.2037 9.97115 35.1162 9.94758 35.0283C9.90179 34.8574 9.85635 34.6863 9.80898 34.5158C9.7836 34.4245 9.7569 34.3335 9.73104 34.2422C9.68403 34.0758 9.63738 33.9093 9.58893 33.7434C9.56138 33.649 9.53237 33.555 9.50434 33.4608C9.456 33.2984 9.40827 33.1357 9.35848 32.9738C9.33262 32.8894 9.30543 32.8054 9.27921 32.7211C9.22592 32.5499 9.17287 32.3784 9.11801 32.2076C9.08683 32.1107 9.05433 32.0143 9.02267 31.9176C8.97119 31.7602 8.92019 31.6026 8.86738 31.4455C8.82207 31.3108 8.77506 31.1766 8.72878 31.0422C8.68794 30.9238 8.64806 30.8049 8.60661 30.6867C8.55706 30.5458 8.50583 30.4055 8.45532 30.265C8.41532 30.1538 8.37616 30.0422 8.33556 29.9312C8.28892 29.8041 8.2407 29.6776 8.19321 29.5508C8.14693 29.4271 8.10149 29.3031 8.05437 29.1797C8.00204 29.0428 7.94802 28.9066 7.89473 28.7701C7.85075 28.6576 7.80773 28.5447 7.76314 28.4326C7.70803 28.2941 7.65124 28.1563 7.59517 28.0183C7.55058 27.9086 7.50695 27.7986 7.46176 27.6893C7.25754 27.1953 7.04655 26.7043 6.82891 26.2163C5.4964 23.2285 3.89163 20.2572 3.6259 16.9824C3.58541 16.4843 3.57708 15.9797 3.66203 15.4877C3.68946 15.3291 3.72921 15.1735 3.77658 15.0205C3.21818 15.2682 2.69578 15.5949 2.33314 16.0624C1.18551 17.5417 0.984547 19.1767 1.32653 20.9597C1.89436 23.9196 3.40439 26.6301 4.62562 29.4098C6.6688 34.0606 7.92349 38.9911 8.6193 43.973C8.79367 45.2218 8.93288 46.4749 9.04128 47.7303C9.10182 48.4314 8.94049 49.5716 9.29927 50.2547H12.0123C12.0122 50.2365 12.0118 50.2184 12.0117 50.2003Z" fill="#292B33"/>
<path d="M3.62717 16.9828C3.8929 20.2576 5.49779 23.2288 6.83018 26.2168C7.04782 26.7047 7.25881 27.1958 7.46303 27.6897C7.50822 27.7991 7.55197 27.9091 7.59644 28.0187C7.65251 28.1567 7.70942 28.2945 7.76441 28.433C7.809 28.5451 7.85202 28.658 7.896 28.7705C7.9493 28.907 8.00331 29.0432 8.05563 29.1801C8.10276 29.3035 8.1482 29.4276 8.19448 29.5513C8.24197 29.678 8.29031 29.8045 8.33683 29.9317C8.37756 30.0426 8.41659 30.1541 8.45659 30.2654C8.5071 30.406 8.55846 30.5463 8.60788 30.6872C8.64945 30.8053 8.68933 30.9241 8.73005 31.0427C8.77633 31.177 8.82334 31.3112 8.86865 31.4459C8.92146 31.6029 8.97234 31.7606 9.02394 31.918C9.0556 32.0148 9.0881 32.1112 9.11928 32.2081C9.17414 32.3788 9.22719 32.5503 9.28048 32.7215C9.3067 32.8057 9.33389 32.8897 9.35975 32.9742C9.40942 33.1362 9.45727 33.2988 9.50561 33.4612C9.53364 33.5554 9.56265 33.6495 9.5902 33.7438C9.63866 33.9098 9.68518 34.0763 9.73231 34.2427C9.75805 34.3339 9.78487 34.4249 9.81025 34.5163C9.85762 34.6868 9.90306 34.8578 9.94885 35.0287C9.97242 35.1165 9.99683 35.204 10.02 35.2919C10.0647 35.4617 10.1075 35.6319 10.1507 35.802C10.1734 35.8915 10.1971 35.9807 10.2194 36.0704C10.2652 36.2542 10.3091 36.4386 10.3532 36.6229C10.3714 36.699 10.3905 36.7749 10.4084 36.8512C10.4508 37.0317 10.4913 37.2126 10.5322 37.3935C10.5503 37.4741 10.5694 37.5544 10.5873 37.6352C10.6269 37.8145 10.6646 37.9942 10.7027 38.1739C10.7201 38.2564 10.7386 38.3386 10.7556 38.4212C10.7932 38.6023 10.8287 38.7838 10.8646 38.9651C10.8807 39.0467 10.8978 39.1282 10.9135 39.2097C10.9506 39.4017 10.9859 39.5942 11.0212 39.7866C11.0343 39.8578 11.0481 39.9287 11.061 39.9999C11.0977 40.2041 11.1324 40.4087 11.1671 40.6133C11.1771 40.673 11.1881 40.7325 11.198 40.7921C11.231 40.9911 11.262 41.1902 11.2931 41.3895C11.3034 41.4553 11.3145 41.5211 11.3245 41.5869C11.3553 41.7888 11.3841 41.991 11.4128 42.1933C11.4218 42.2565 11.4316 42.3196 11.4404 42.3828C11.4687 42.5863 11.495 42.79 11.5212 42.9938C11.5292 43.056 11.538 43.1181 11.5459 43.1804C11.5714 43.3838 11.595 43.5874 11.6184 43.7911C11.6256 43.8539 11.6337 43.9166 11.6408 43.9795C11.6633 44.1811 11.684 44.3831 11.7046 44.5849C11.7112 44.6499 11.7186 44.7148 11.725 44.7798C11.7454 44.9871 11.7639 45.1946 11.7821 45.4021C11.7873 45.4617 11.7935 45.5211 11.7984 45.5807C11.8159 45.7853 11.8313 45.99 11.8467 46.1947C11.8514 46.2575 11.8569 46.3204 11.8614 46.3833C11.8757 46.5813 11.8879 46.7793 11.9001 46.9773C11.9044 47.0471 11.9096 47.1169 11.9137 47.1868C11.9253 47.3852 11.9349 47.5838 11.9445 47.7823C11.9479 47.8517 11.9522 47.9211 11.9553 47.9904C11.9644 48.1909 11.9714 48.3914 11.9784 48.592C11.9808 48.6595 11.9839 48.7271 11.9861 48.7946C11.9924 48.9955 11.9969 49.1964 12.0011 49.3972C12.0026 49.4646 12.0048 49.5319 12.0061 49.5992C12.0097 49.7996 12.0114 50.0002 12.0129 50.2007C12.0131 50.2188 12.0134 50.237 12.0135 50.2551H20.9622C22.1489 49.8989 23.3219 49.4936 24.49 49.0887C25.0842 48.8828 25.6946 48.6679 26.1628 48.2668C27.0891 47.4735 27.2369 46.1709 27.2675 44.9929C27.3669 41.1572 26.869 37.3325 26.3721 33.524C26.0501 31.0561 25.7281 28.5881 25.406 26.1201C25.0215 23.1739 24.6324 20.2067 23.6653 17.3812C23.0196 15.4944 21.3097 14.3062 19.3192 13.7485C17.5737 13.2594 15.7219 13.2464 13.9007 13.2724C11.7241 13.3033 9.51612 13.3877 7.40442 13.9285C6.46996 14.1679 5.50081 14.414 4.59293 14.7122C4.32188 14.8013 4.04576 14.9022 3.77786 15.0209C3.73036 15.1739 3.69061 15.3294 3.6633 15.4881C3.57835 15.9802 3.58681 16.4847 3.62717 16.9828Z" fill="#373B4A"/>
<path d="M12.0128 50.4043C12.0138 50.6031 12.0127 50.8019 12.0117 51.0008C12.0127 50.802 12.0138 50.6031 12.0128 50.4043Z" fill="#474A59"/>
<path d="M12.0108 50.2012C12.0091 50.0007 12.0075 49.8001 12.0039 49.5996C12.0075 49.8001 12.0092 50.0006 12.0108 50.2012Z" fill="#474A59"/>
<path d="M11.898 46.9767C11.8858 46.7787 11.8735 46.5806 11.8594 46.3828C11.8735 46.5808 11.8857 46.7788 11.898 46.9767Z" fill="#474A59"/>
<path d="M11.9762 48.5918C11.9692 48.3912 11.9622 48.1907 11.9531 47.9902C11.9621 48.1907 11.9692 48.3912 11.9762 48.5918Z" fill="#474A59"/>
<path d="M11.9994 49.3976C11.995 49.1966 11.9907 48.9958 11.9844 48.7949C11.9907 48.9958 11.995 49.1967 11.9994 49.3976Z" fill="#474A59"/>
<path d="M11.8451 46.195C11.8297 45.9903 11.8143 45.7856 11.7969 45.5811C11.8144 45.7855 11.8297 45.9902 11.8451 46.195Z" fill="#474A59"/>
<path d="M11.7798 45.4016C11.7616 45.1941 11.7431 44.9865 11.7227 44.7793C11.7431 44.9865 11.7614 45.194 11.7798 45.4016Z" fill="#474A59"/>
<path d="M11.6155 43.7913C11.592 43.5877 11.5685 43.384 11.543 43.1807C11.5686 43.384 11.592 43.5877 11.6155 43.7913Z" fill="#474A59"/>
<path d="M10.3525 36.6228C10.3084 36.4385 10.2645 36.2541 10.2188 36.0703C10.2647 36.2542 10.3085 36.4385 10.3525 36.6228Z" fill="#474A59"/>
<path d="M10.1502 35.8021C10.107 35.6319 10.0641 35.4617 10.0195 35.292C10.0641 35.4617 10.1069 35.6319 10.1502 35.8021Z" fill="#474A59"/>
<path d="M8.19353 29.5518C8.14725 29.428 8.10182 29.304 8.05469 29.1807C8.10169 29.304 8.14713 29.428 8.19353 29.5518Z" fill="#474A59"/>
<path d="M11.0178 39.7869C10.9825 39.5945 10.9474 39.402 10.9102 39.21C10.9474 39.4021 10.9825 39.5945 11.0178 39.7869Z" fill="#474A59"/>
<path d="M42.6289 36.9365C44.09 36.7016 45.7 36.9245 47.153 37.1697C47.5189 37.2314 47.8914 37.2953 48.2202 37.4566C48.4712 37.5796 48.6873 37.7551 48.8946 37.9347C49.2063 38.2047 51.2668 39.9169 50.3991 40.2056C50.0724 40.3143 49.7971 39.9643 49.5456 39.8196C48.8154 39.3996 47.9366 38.7741 47.0792 38.629C46.4129 38.5162 45.6214 38.5619 44.9707 38.7114C44.8399 38.7415 44.6857 38.8 44.6697 38.9237C44.6627 38.9781 44.6861 39.032 44.7133 39.0808C45.03 39.6488 45.6458 39.4889 46.2272 39.623C46.2947 39.6386 46.3645 39.6567 46.4173 39.6987C46.5636 39.815 46.4979 40.0474 46.3558 40.1672C46.0467 40.4277 45.4879 40.4821 45.0839 40.4539C44.2628 40.3968 43.4866 40.0584 42.7552 39.7312" fill="#FFBD82"/>
<path d="M42.0934 36.2898C42.0934 36.2898 42.3562 36.2509 43.2667 36.3992C43.2667 36.3992 43.2641 39.2295 42.6139 39.7213L41.7852 39.5497L42.0934 36.2898Z" fill="#00E3CC"/>
<path d="M41.8 35.8806C39.7747 35.4789 37.723 35.2312 35.6694 35.0283C34.081 34.8703 32.532 34.5577 30.9472 34.4723C30.7882 34.4637 30.6127 34.4479 30.5028 34.3326C30.4242 34.2502 30.3962 34.1333 30.371 34.0223C29.9221 32.0308 29.531 30.0227 28.9444 28.0653C28.4628 26.4585 27.8363 24.1909 26.5546 23.0049C25.5921 22.1143 24.3612 22.0283 23.7197 23.3568C23.4219 23.9735 23.4563 24.693 23.5196 25.3748C23.7597 27.9617 24.3284 30.5174 25.2011 32.9643C25.6278 34.1606 26.1271 35.331 26.6963 36.4664C27.1667 37.405 27.5403 38.5313 28.3478 39.2343C29.0998 39.8889 29.8745 39.7356 30.7742 39.7845C31.7311 39.8364 32.6838 39.7633 33.6405 39.7932C35.135 39.8397 36.6297 39.8979 38.1251 39.8831C38.8027 39.8763 39.4804 39.8695 40.158 39.8629C40.5079 39.8594 40.8579 39.856 41.2078 39.8525C41.5296 39.8494 41.7629 39.928 41.9429 39.6672C42.5417 38.8 42.5978 37.2932 42.4861 36.2908C42.4776 36.2146 42.466 36.1343 42.4182 36.0744C42.358 35.9991 42.2563 35.9743 42.162 35.9543C42.0416 35.9291 41.9209 35.9046 41.8 35.8806Z" fill="#C5D7D9"/>
<path d="M22.7243 43.8525C22.7243 43.8525 38.1307 46.1047 42.6338 50.251H11.8452L11.3125 47.7765L22.7243 43.8525Z" fill="#525666"/>
<path d="M23.2479 21.8311C23.1163 22.0871 22.9611 22.3296 22.7666 22.5411C22.1511 23.2105 21.2287 23.2588 20.3707 23.2247C19.9574 23.2083 19.5405 23.1544 19.1561 23.0018C18.6819 22.8135 18.2791 22.4809 17.9579 22.0812L17.8477 23.8867L18.8028 31.8181L18.8633 47.7365C19.9516 47.6655 20.8897 47.5231 21.7567 47.295C22.0776 47.2105 22.6705 46.0936 22.6705 46.0936C22.6705 46.0936 23.2804 46.7833 23.5691 46.6539C24.0323 46.4463 24.4909 46.2068 24.9599 45.9326C24.9599 45.9328 24.6955 27.495 23.2479 21.8311Z" fill="#00E3CC"/>
<path d="M22.3997 23.9996L21.7462 23.5194L20.9279 23.5146L20.3672 24.0535L20.9061 25.1308L21.9606 25.0688L22.3997 23.9996Z" fill="#0079A9"/>
<path d="M21.959 25.0684L20.9046 25.1304L19.5859 36.6991L21.8992 38.6736L24.0196 36.6534L21.959 25.0684Z" fill="#0090C9"/>
<path d="M17.5742 20.1182C17.5742 20.1182 17.6087 19.7387 20.6464 19.6062C20.6464 19.6062 22.8978 19.535 23.3591 20.1325L22.8517 22.6081L21.264 23.2084L17.7212 21.0276L17.5742 20.1182Z" fill="#05C9B1"/>
<path d="M22.8326 19.7013C22.7445 18.9997 22.6762 18.2195 22.7317 17.7725L17.5586 17.8388C17.5586 17.8388 17.7715 18.5058 17.9142 19.3573C18.5345 19.8821 19.3504 20.1843 20.1679 20.2385C21.0818 20.2989 21.9933 20.0774 22.8326 19.7013Z" fill="#E89C58"/>
<path d="M23.056 21.1839C23.056 21.1839 22.9316 20.4927 22.8323 19.7015C21.9931 20.0775 21.0816 20.299 20.1678 20.2386C19.3503 20.1846 18.5343 19.8822 17.9141 19.3574C18.0191 19.9834 18.0861 20.7089 18.0025 21.3433L17.9574 22.0814C18.2786 22.4812 18.6815 22.8137 19.1557 23.002C19.5401 23.1546 19.957 23.2086 20.3703 23.2249C21.2283 23.259 22.1506 23.2107 22.7662 22.5413C22.9606 22.3299 23.1159 22.0872 23.2475 21.8313C23.1865 21.5925 23.1227 21.3757 23.056 21.1839Z" fill="#FFBD82"/>
<path d="M24.9069 10.4493L24.8819 10.4037C22.6893 7.99635 19.4961 7.81932 18.1716 7.86137C17.867 7.87104 17.6547 8.16335 17.7342 8.4576C18.328 10.6545 17.6233 12.2536 17.1629 12.9982C17.035 13.205 16.7286 13.1838 16.6237 12.9646C15.8684 11.387 15.0244 12.606 15.0244 12.606C14.6809 13.426 14.6739 14.3811 15.0055 15.2061C15.1265 15.5071 15.3551 15.8763 15.6699 15.9547C15.6699 15.9547 16.3295 16.0317 16.7547 15.7538C16.7547 15.7538 16.7773 16.7689 17.1877 17.4958C17.5219 18.0077 17.945 18.4614 18.4323 18.8306C18.5834 18.945 18.7405 19.0513 18.8973 19.1575C20.1507 20.0057 21.8686 19.8777 22.9945 18.8524C24.0222 17.9163 24.3548 16.5421 24.539 15.2204C24.65 14.4246 24.7392 13.6257 24.7983 12.8244C24.8277 12.4241 24.85 12.0231 24.864 11.622C24.87 11.456 24.9822 10.6651 24.9069 10.4493Z" fill="#FFBD82"/>
<path d="M25.2123 7.85905C25.4062 7.84889 25.6008 7.85095 25.7945 7.86485C25.9214 7.87391 26.1289 7.89373 26.256 7.89252C26.3747 7.89143 26.5018 7.92768 26.6212 7.91028C27.2845 7.81325 26.5001 6.90259 26.3443 6.68181C26.1063 6.34454 25.8478 6.02153 25.5683 5.71786C25.0104 5.1116 24.3659 4.57978 23.6418 4.1833C23.5984 4.15961 23.5548 4.13629 23.511 4.11357C22.1336 3.39964 20.5772 3.27952 19.0917 3.75733C18.26 4.02487 17.6106 4.42897 16.9142 4.94411C16.8515 4.66823 16.7889 4.39235 16.7262 4.11635C16.695 3.97944 16.6535 3.82742 16.5323 3.75636C16.5051 3.74041 16.4733 3.7293 16.4422 3.73425C16.383 3.74355 16.3477 3.80458 16.3263 3.86065C16.1735 4.26233 16.2993 4.71028 16.4258 5.12102C16.3233 4.87862 16.1783 4.60177 15.9175 4.56576C15.8815 4.5608 15.8412 4.56238 15.8142 4.58678C15.772 4.62509 15.7863 4.69349 15.8054 4.74714C15.8966 5.0032 16.0183 5.16743 16.175 5.38953C15.3425 5.49019 14.6488 6.13814 14.3033 6.90234C13.9579 7.66654 13.9112 8.53201 13.9553 9.36956C14.0182 10.5627 14.2683 11.6803 15.0232 12.6064C15.0232 12.6064 15.8674 11.3876 16.6225 12.9651C16.7274 13.1843 17.034 13.2054 17.1617 12.9987C17.6221 12.254 18.3269 10.6549 17.7331 8.45806C17.6535 8.16393 17.8659 7.87149 18.1704 7.86182C19.4949 7.81977 22.6882 7.99692 24.8807 10.4042L25.3044 10.7835C25.4258 10.8926 25.6252 10.8894 25.7172 10.7426C25.7616 10.6716 25.775 10.5861 25.7853 10.5031C25.891 9.65463 25.8548 8.49805 25.2123 7.85905Z" fill="#9B5B30"/>
<path d="M15.668 15.9549C15.7028 16.1362 15.7377 16.3176 15.7725 16.4989C15.8455 16.8785 15.9912 17.448 16.3848 17.6109C16.6848 17.735 16.919 17.6628 17.171 17.4734C17.1758 17.481 17.1808 17.4885 17.1857 17.496C16.7754 16.7691 16.7528 15.7539 16.7528 15.7539C16.3275 16.0317 15.668 15.9549 15.668 15.9549Z" fill="#9B5B30"/>
<path d="M21.9066 12.623C22.0181 12.9552 22.1237 13.2895 22.2226 13.6257C22.3246 13.961 22.4219 14.2979 22.5159 14.6357L22.6546 15.1428C22.6662 15.1834 22.678 15.2302 22.6845 15.2876C22.6907 15.3432 22.6884 15.4183 22.6498 15.4888C22.6101 15.5591 22.5535 15.5968 22.5102 15.6233C22.4664 15.6476 22.4265 15.6686 22.383 15.6881C22.0419 15.8472 21.647 15.8779 21.2969 15.7742L21.3184 15.6617C21.656 15.6876 21.9899 15.6211 22.2771 15.4718C22.347 15.4355 22.4313 15.3838 22.4304 15.3693C22.4412 15.3585 22.435 15.2906 22.4087 15.2036L22.2754 14.6972C22.1881 14.3592 22.104 14.0202 22.0247 13.6798C21.9424 13.3402 21.8665 12.9987 21.7967 12.6551L21.9066 12.623Z" fill="#C47149"/>
<path d="M24.0861 12.4795C24.0717 12.7004 23.881 12.8679 23.6601 12.8537C23.4392 12.8393 23.2717 12.6486 23.286 12.4277C23.3004 12.2068 23.4911 12.0393 23.712 12.0536C23.9329 12.068 24.1004 12.2586 24.0861 12.4795Z" fill="#623421"/>
<path d="M21.0002 12.2794C20.9858 12.5002 20.7951 12.6677 20.5742 12.6535C20.3533 12.6392 20.1858 12.4484 20.2001 12.2275C20.2144 12.0066 20.4051 11.8391 20.626 11.8534C20.8469 11.8676 21.0144 12.0585 21.0002 12.2794Z" fill="#623421"/>
<path d="M23.4859 10.3649C23.6265 10.3516 23.7642 10.3914 23.8874 10.452C24.0107 10.5133 24.1258 10.5876 24.2278 10.6755C24.4326 10.8497 24.5891 11.0742 24.6688 11.3179C24.6789 11.3485 24.6622 11.3815 24.6316 11.3915C24.6087 11.399 24.5843 11.3915 24.5694 11.3743L24.5688 11.3735C24.4138 11.194 24.2307 11.0558 24.0356 10.9582C23.9376 10.9102 23.8373 10.8711 23.7351 10.845C23.6328 10.8181 23.5346 10.7968 23.4354 10.7522L23.4229 10.7465C23.3221 10.7012 23.277 10.5827 23.3223 10.482C23.3526 10.4142 23.4168 10.3715 23.4859 10.3649Z" fill="#7F3A17"/>
<path d="M20.8762 10.4925C20.772 10.5239 20.672 10.5325 20.567 10.5458C20.4623 10.5585 20.3578 10.5843 20.2544 10.6193C20.0483 10.6909 19.8489 10.8043 19.672 10.9622L19.6713 10.9628C19.6473 10.9843 19.6104 10.9821 19.589 10.9581C19.5729 10.9401 19.57 10.9147 19.5799 10.8941C19.6906 10.6626 19.8748 10.4602 20.1004 10.314C20.2129 10.2399 20.3365 10.1811 20.4668 10.1363C20.5967 10.092 20.7385 10.0704 20.8761 10.1017C20.9839 10.1262 21.0513 10.2334 21.0269 10.3412C21.0103 10.4138 20.9563 10.4682 20.8899 10.4884L20.8762 10.4925Z" fill="#7F3A17"/>
<path d="M22.3071 16.9944C22.3959 16.8532 22.3043 16.6675 22.1363 16.6535C20.7129 16.5341 19.9347 16.2345 19.5556 16.0313C19.4219 15.9596 19.2631 16.042 19.2344 16.1811C19.8417 16.6236 20.9286 17.195 22.3071 16.9944Z" fill="white"/>
<path d="M19.2359 16.1807C19.2324 16.1976 19.23 16.215 19.2306 16.2335C19.2394 16.4796 19.2955 16.774 19.4685 17.0373C19.7546 17.0004 20.0501 17.0279 20.3256 17.115C20.6798 17.227 20.9997 17.4341 21.262 17.6978C21.8005 17.6019 22.1283 17.2624 22.3052 17.0006C22.3067 16.9984 22.3072 16.996 22.3086 16.9938C20.9301 17.1946 19.8432 16.6233 19.2359 16.1807Z" fill="#663731"/>
<path d="M19.4688 17.0375C19.6599 17.3284 19.994 17.5814 20.572 17.6885C20.8338 17.7369 21.0622 17.7338 21.2623 17.6981C20.9999 17.4343 20.6801 17.2273 20.3259 17.1153C20.0504 17.0281 19.755 17.0005 19.4688 17.0375Z" fill="#FF737D"/>
<path d="M16.2082 15.1832C16.089 15.1663 15.9777 15.1108 15.8864 15.0311C15.7934 14.9515 15.7258 14.8509 15.6672 14.7394C15.5516 14.5168 15.4989 14.2635 15.4879 14.0142C15.4868 13.973 15.4878 13.9314 15.4896 13.8897C15.6608 14.1338 15.907 14.3155 16.1803 14.4008C16.2054 14.4085 16.2334 14.3969 16.245 14.3724C16.2576 14.3456 16.2462 14.3134 16.2193 14.3007C16.0357 14.214 15.8765 14.0712 15.7641 13.9006C15.707 13.814 15.6613 13.72 15.6266 13.6221C15.6087 13.5716 15.5924 13.5194 15.5817 13.4668C15.5695 13.4072 15.607 13.3486 15.6346 13.2957C15.7441 13.0837 15.9258 12.953 16.1839 12.9376C16.2062 12.9363 16.2262 12.9213 16.2329 12.8987C16.2413 12.87 16.2249 12.8396 16.1951 12.8309C16.0586 12.7907 15.8958 12.7982 15.7558 12.8704C15.6154 12.9411 15.5076 13.0633 15.4419 13.1943C15.3748 13.3259 15.3351 13.4644 15.3105 13.6029C15.2864 13.7412 15.2763 13.8818 15.2835 14.0225C15.2962 14.3031 15.3779 14.5781 15.517 14.822C15.6502 15.0655 15.9026 15.2828 16.2009 15.2902C16.2278 15.2909 16.2515 15.2713 16.2554 15.244C16.2596 15.2148 16.2392 15.1876 16.2082 15.1832Z" fill="#C47149"/>
<path d="M19.639 47.844C19.5961 49.6323 13.3219 49.1794 11.3222 48.9896C10.9858 48.9577 10.7377 48.6621 10.7636 48.3252L12.5764 24.6985C14.0173 22.683 18.0026 21.3438 18.0026 21.3438C18.0026 21.3438 20.0739 29.738 19.639 47.844Z" fill="#D0E1E3"/>
<path d="M23.0586 21.1836C23.221 22.2806 24.7199 41.3352 24.228 46.6447C24.2009 46.9369 24.4588 47.1759 24.748 47.1262C25.5798 46.9828 27.1108 46.6155 28.1556 45.7509C28.4036 45.5455 28.5373 45.2337 28.5338 44.9117C28.4984 41.6839 27.9081 23.9639 23.0586 21.1836Z" fill="#D0E1E3"/>
<path d="M26.3179 41.852C26.3397 41.7972 26.7984 41.6762 26.8804 41.6374C27.0953 41.5359 27.3378 41.4717 27.5644 41.4008C28.0323 41.2544 28.5115 41.1359 29.0011 41.0936C29.1835 41.0779 29.3822 41.077 29.5313 41.1832C30.1562 41.6285 28.7564 42.1442 28.5101 42.289C28.4039 42.3515 28.2949 42.4187 28.2274 42.5217C28.16 42.6249 28.1473 42.7745 28.2314 42.8646C28.2856 42.9226 28.3669 42.9448 28.444 42.9634C29.0561 43.182 29.6346 43.1652 30.2671 43.204C30.9458 43.2457 31.5805 43.0314 32.2541 42.9669C32.3973 42.9533 32.5577 42.953 32.6646 43.0492C32.8445 43.2109 32.7455 43.5189 32.5757 43.6373C32.3356 43.8048 32.0199 43.8434 31.745 43.9237C30.9456 44.1576 30.1207 44.2828 29.2999 44.4147C29.5359 44.3768 29.8361 44.4459 30.0766 44.4554C30.7841 44.4835 31.4926 44.4053 32.2042 44.3781C32.3026 44.3744 32.4057 44.3716 32.4939 44.4151C32.9229 44.6264 32.5308 44.9812 32.2765 45.1089C32.0388 45.2283 31.7776 45.2952 31.5177 45.3454C30.7755 45.4889 30.0108 45.5157 29.2605 45.4245C29.6952 45.6079 30.1642 45.6855 30.6313 45.7296C30.8638 45.7515 31.0972 45.7651 31.3303 45.78C31.5176 45.7919 31.8062 45.7727 31.8893 45.9905C31.9005 46.0199 31.9066 46.0514 31.9049 46.0828C31.8945 46.277 31.6066 46.408 31.448 46.4752C31.1918 46.5836 30.8868 46.6177 30.6114 46.6271C29.8114 46.6545 29.0058 46.5018 28.2713 46.1835C28.6336 46.535 29.0732 46.745 29.5432 46.9111C29.8913 47.0342 30.2529 47.1195 30.6194 47.1651C30.751 47.1814 30.985 47.2579 30.8949 47.4366C30.8265 47.5722 30.5562 47.6204 30.4241 47.6419C29.4421 47.8024 28.4927 47.4124 27.6874 46.8903C26.7232 46.2652 25.7716 45.5298 25.2656 44.4981L26.3179 41.852Z" fill="#FFBD82"/>
<path d="M25.2709 41.1475C25.2709 41.1475 25.5363 41.162 26.3985 41.4896C26.3985 41.4896 25.8296 44.262 25.094 44.6137L24.3164 44.2797L25.2709 41.1475Z" fill="#00E3CC"/>
<path d="M25.0628 40.686C21.3519 39.0934 17.4508 37.731 13.4781 37.0565C14.2415 34.5986 14.7862 32.073 15.1065 29.5194C15.2634 28.2676 15.3664 27.0091 15.4147 25.7483C15.4464 24.922 15.748 23.533 14.7044 23.1808C13.3319 22.7176 12.1066 24.6519 11.5972 25.6484C10.3819 28.0256 9.90002 30.6609 9.41291 33.2551C9.22838 34.2378 9.08289 35.2285 8.88616 36.2079C8.69354 37.1665 8.5692 38.1428 8.62792 39.122C8.63916 39.3097 8.6562 39.501 8.73112 39.6736C8.9774 40.2401 9.60577 40.7161 10.1251 41.0128C10.7603 41.3755 11.4426 41.5639 12.1169 41.824C12.8916 42.1227 13.7089 42.3001 14.522 42.4809C16.5694 42.9358 18.6105 43.4767 20.6603 43.8742C21.3257 44.0032 21.9909 44.1322 22.6563 44.2612C22.9998 44.3278 23.3434 44.3945 23.6869 44.4611C24.0029 44.5224 24.2156 44.6461 24.4442 44.4268C25.2046 43.6968 25.5609 42.2318 25.6522 41.2273C25.659 41.1509 25.6638 41.0699 25.6288 41.0016C25.585 40.9158 25.4902 40.8713 25.4019 40.8327C25.2892 40.7835 25.176 40.7346 25.0628 40.686Z" fill="#E3F3F1"/>
<path d="M18.0013 21.3438C18.0013 21.3438 19.0104 21.6027 19.5851 36.5829L16.4845 28.2844L17.8327 27.1438L15.6641 25.8465C15.6641 25.8465 15.8978 23.1663 18.0013 21.3438Z" fill="#E3F3F1"/>
<path d="M23.082 21.1855C23.082 21.1855 23.5967 26.6072 24.0764 36.4745L25.7414 27.7734L24.221 26.8751L25.7937 25.1303C25.7937 25.1303 25.0834 21.6279 23.082 21.1855Z" fill="#E3F3F1"/>
<path d="M19.297 34.3359L18.8735 34.4028C18.8994 34.5827 18.9846 35.256 18.9989 35.3747C19.0185 35.5376 18.9278 35.6845 18.8341 35.7145L18.6958 35.7587C18.5832 35.7949 18.5211 35.9155 18.5571 36.0281C18.5932 36.1408 18.714 36.2029 18.8265 36.1668L18.9646 36.1226C19.2697 36.0251 19.4673 35.6815 19.4241 35.3235C19.4078 35.1869 19.3219 34.5093 19.297 34.3359Z" fill="#B8A9A9"/>
<path d="M18.7396 36.2704L18.381 36.3514C18.2056 36.3909 18.0408 36.3061 18.0146 36.1629L17.984 35.9962C17.9578 35.853 18.0797 35.7034 18.2551 35.6639L18.6137 35.583C18.7891 35.5434 18.9539 35.6281 18.9801 35.7715L19.0106 35.9381C19.0369 36.0813 18.915 36.2309 18.7396 36.2704Z" fill="#1D2842"/>
<path d="M14.1484 35.0483L14.5752 35.0078C14.5947 35.1886 14.6793 35.862 14.6949 35.9805C14.7163 36.1431 14.8406 36.263 14.939 36.2687L15.0839 36.2772C15.2021 36.2843 15.2921 36.3856 15.2851 36.5037C15.2781 36.6219 15.1766 36.712 15.0586 36.7049L14.9138 36.6963C14.594 36.6776 14.3174 36.3939 14.2702 36.0363C14.2522 35.9001 14.1674 35.2224 14.1484 35.0483Z" fill="#B8A9A9"/>
<path d="M15.166 36.784L15.5336 36.7734C15.7131 36.7682 15.8519 36.6451 15.8417 36.4999L15.8299 36.331C15.8197 36.1857 15.6644 36.0711 15.4847 36.0763L15.1173 36.087C14.9376 36.0922 14.799 36.2152 14.8091 36.3606L14.821 36.5295C14.831 36.6746 14.9863 36.7892 15.166 36.784Z" fill="#1D2842"/>
<path d="M17.2418 29.3972C16.8611 29.1317 16.4465 29.0494 16.0093 29.1523C13.9306 29.6428 13.8687 32.6941 14.0912 35.0525C14.1056 35.2045 14.2452 35.3122 14.396 35.2885C14.5343 35.2668 14.6308 35.1409 14.6177 35.0015C14.3562 32.2093 14.6675 30.0125 16.1309 29.6672C16.4192 29.5992 16.6837 29.6526 16.9391 29.8311C18.0368 30.5975 18.5585 32.7539 18.8017 34.3257C18.8242 34.4704 18.9594 34.569 19.1042 34.5462H19.1045C19.2485 34.5235 19.3472 34.3896 19.3251 34.2456C19.0542 32.4837 18.488 30.2673 17.2418 29.3972Z" fill="#292B33"/>
<path d="M17.5056 21.5069C17.235 21.7211 17 21.9844 16.808 22.2706C16.7532 22.3367 16.7146 22.416 16.6682 22.4883C16.625 22.5633 16.5705 22.6302 16.5354 22.7102C16.462 22.8675 16.367 23.0126 16.3099 23.1781C16.2469 23.3403 16.1725 23.4972 16.1303 23.6679L16.0562 23.9191L16.0191 24.0445L15.9934 24.1736L15.8897 24.6892L15.8306 25.2143C15.8228 25.302 15.8062 25.3887 15.8055 25.4772L15.7964 25.7422L15.7767 26.2724L15.7962 26.8043L15.8057 27.0704L15.8106 27.2034L15.8244 27.3363C15.8426 27.5133 15.8632 27.6901 15.8791 27.8675L15.9042 28.1334L15.9168 28.2665L15.9376 28.3987C15.9937 28.7512 16.0498 29.1039 16.1009 29.4581L16.1023 29.4674C16.1151 29.5557 16.0537 29.6378 15.9653 29.6506C15.8802 29.6629 15.8009 29.606 15.7837 29.5228C15.7115 29.167 15.644 28.8098 15.5768 28.4525C15.5152 28.0942 15.4805 27.7304 15.4373 27.3686L15.4219 27.2328L15.4158 27.0959L15.4034 26.8221L15.3789 26.2742L15.3944 25.7241C15.3986 25.5407 15.4048 25.3574 15.4323 25.1746L15.4987 24.6261L15.6135 24.0833L15.6434 23.948L15.6852 23.8151L15.7691 23.5494C15.8177 23.3702 15.9002 23.2014 15.9714 23.0294C16.1195 22.6877 16.3154 22.3621 16.559 22.0758C16.8033 21.7911 17.099 21.5417 17.4614 21.4095C17.489 21.3994 17.5196 21.4136 17.5296 21.4413C17.5377 21.4634 17.5302 21.4874 17.5127 21.5012L17.5056 21.5069Z" fill="#292B33"/>
<path d="M23.7169 21.4738C24.0957 21.5527 24.4267 21.7551 24.7133 22C24.7892 22.0578 24.8533 22.1268 24.9203 22.1934C24.9849 22.262 25.0548 22.3272 25.113 22.401L25.2856 22.6246L25.371 22.7373L25.445 22.8568C25.8467 23.4903 26.1327 24.192 26.295 24.9138C26.3174 25.0036 26.3451 25.0926 26.3631 25.1831L26.4101 25.4561L26.5013 26.0024L26.5501 26.5521L26.5743 26.8269C26.5835 26.9185 26.5906 27.0101 26.5898 27.1018C26.5938 27.4684 26.6066 27.8357 26.5921 28.2013C26.5708 28.5664 26.5493 28.9315 26.5228 29.2957C26.5163 29.3848 26.4388 29.4517 26.3498 29.4452C26.264 29.4389 26.1986 29.3668 26.1998 29.2818L26.1999 29.2715C26.2057 28.9118 26.2165 28.5529 26.2275 28.1942C26.2323 28.1046 26.2306 28.0149 26.226 27.9255L26.2164 27.6571C26.209 27.4783 26.2067 27.2993 26.2016 27.1204C26.2019 27.0308 26.1941 26.9418 26.1843 26.8533L26.1585 26.5869L26.1068 26.0544L26.0141 25.5293L25.9691 25.2666C25.9526 25.1795 25.9266 25.0949 25.9058 25.0089C25.8609 24.8378 25.8203 24.6652 25.7722 24.4952L25.596 23.9968C25.4655 23.6709 25.318 23.3509 25.1325 23.0551L25.066 22.9422L24.989 22.837L24.8371 22.6246C24.7871 22.5531 24.7247 22.4928 24.6701 22.4252C24.6144 22.3586 24.5612 22.2889 24.497 22.2309C24.2616 21.9762 23.9878 21.7503 23.6863 21.5764L23.6791 21.5721C23.6536 21.5574 23.6447 21.5248 23.6595 21.4993C23.6717 21.4789 23.695 21.4692 23.7169 21.4738Z" fill="#292B33"/>
<path d="M27.5623 29.092C27.5144 29.7805 26.9176 30.2996 26.2292 30.2518C25.5409 30.2039 25.0216 29.6071 25.0695 28.9186C25.1173 28.2302 25.7142 27.7111 26.4026 27.7589C27.091 27.8069 27.6102 28.4037 27.5623 29.092Z" fill="#B0B0B0"/>
<path d="M27.2816 29.0724C27.2445 29.6058 26.782 30.0082 26.2486 29.9711C25.7152 29.934 25.3129 29.4716 25.35 28.9382C25.3871 28.4048 25.8496 28.0024 26.383 28.0395C26.9164 28.0765 27.3187 28.539 27.2816 29.0724Z" fill="#E3E3E3"/>
<path d="M26.825 29.0405C26.8054 29.323 26.5604 29.5361 26.2779 29.5164C25.9955 29.4968 25.7823 29.2519 25.802 28.9693C25.8217 28.6869 26.0666 28.4738 26.3491 28.4934C26.6316 28.5131 26.8447 28.7581 26.825 29.0405Z" fill="black"/>
<path d="M17.5741 20.1182L17.3125 21.6518L19.5221 24.7295L21.264 23.2086L17.5741 20.1182Z" fill="#00F5DC"/>
<path d="M21.2656 23.2087L22.8593 24.2644L23.9268 21.5643L23.3608 20.1328L21.2656 23.2087Z" fill="#00F5DC"/>
</svg>
