<svg width="26" height="26" viewBox="0 0 26 26" fill="none" xmlns="http://www.w3.org/2000/svg">
<path fill-rule="evenodd" clip-rule="evenodd" d="M15.9388 7.97917C15.9388 9.62452 14.605 10.9583 12.9596 10.9583C11.3143 10.9583 9.98047 9.62452 9.98047 7.97917C9.98047 6.33382 11.3143 5 12.9596 5C14.605 5 15.9388 6.33382 15.9388 7.97917Z" stroke="#333333" stroke-width="1.5" stroke-linecap="round" stroke-linejoin="round"/>
<path d="M7.74967 16.6297C7.73738 16.2156 7.39179 15.89 6.97775 15.9022C6.56372 15.9145 6.23804 16.2601 6.25033 16.6742L7.74967 16.6297ZM10.6671 20.1121V19.3621C10.66 19.3621 10.6529 19.3622 10.6458 19.3624L10.6671 20.1121ZM15.2496 20.1121L15.2709 19.3624C15.2638 19.3622 15.2567 19.3621 15.2496 19.3621V20.1121ZM19.6663 16.6742C19.6786 16.2601 19.3529 15.9145 18.9389 15.9022C18.5249 15.89 18.1793 16.2156 18.167 16.6297L19.6663 16.6742ZM18.167 16.5171C18.1793 16.9311 18.5249 17.2568 18.9389 17.2445C19.3529 17.2322 19.6786 16.8866 19.6663 16.4726L18.167 16.5171ZM15.2496 13.0347V13.7847C15.2567 13.7847 15.2638 13.7846 15.2709 13.7844L15.2496 13.0347ZM10.6671 13.0347L10.6458 13.7844C10.6529 13.7846 10.66 13.7847 10.6671 13.7847V13.0347ZM6.25033 16.4726C6.23804 16.8866 6.56372 17.2322 6.97775 17.2445C7.39179 17.2568 7.73738 16.9311 7.74967 16.5171L6.25033 16.4726ZM6.25033 16.6742C6.32099 19.0554 8.30705 20.9294 10.6884 20.8618L10.6458 19.3624C9.09182 19.4065 7.79578 18.1836 7.74967 16.6297L6.25033 16.6742ZM10.6671 20.8621H15.2496V19.3621H10.6671V20.8621ZM15.2283 20.8618C17.6096 20.9294 19.5957 19.0554 19.6663 16.6742L18.167 16.6297C18.1209 18.1836 16.8248 19.4065 15.2709 19.3624L15.2283 20.8618ZM19.6663 16.4726C19.5957 14.0914 17.6096 12.2174 15.2283 12.285L15.2709 13.7844C16.8248 13.7402 18.1209 14.9632 18.167 16.5171L19.6663 16.4726ZM15.2496 12.2847H10.6671V13.7847H15.2496V12.2847ZM10.6884 12.285C8.30705 12.2174 6.32099 14.0914 6.25033 16.4726L7.74967 16.5171C7.79578 14.9632 9.09182 13.7402 10.6458 13.7844L10.6884 12.285Z" fill="#333333"/>
</svg>
