<svg width="26" height="26" viewBox="0 0 26 26" fill="none" xmlns="http://www.w3.org/2000/svg">
<path d="M8.31543 7.08222C8.31543 6.668 7.97964 6.33222 7.56543 6.33222C7.15121 6.33222 6.81543 6.668 6.81543 7.08222H8.31543ZM7.56543 16.2516H6.81541L6.81544 16.2562L7.56543 16.2516ZM7.9817 17.2376L7.45528 17.7718L7.45529 17.7718L7.9817 17.2376ZM8.97376 17.6393V16.8893L8.96735 16.8893L8.97376 17.6393ZM19.8418 17.6393L19.8482 16.8893H19.8418V17.6393ZM20.8338 17.2376L21.3602 17.7718V17.7718L20.8338 17.2376ZM21.2501 16.2516L22.0001 16.2562V16.2516H21.2501ZM21.2501 8.46672H22.0001L22.0001 8.46209L21.2501 8.46672ZM20.8338 7.48068L20.3074 8.0149L20.8338 7.48068ZM19.8418 7.07897V7.829L19.8482 7.82894L19.8418 7.07897ZM14.8671 6.32897C14.4529 6.32897 14.1171 6.66475 14.1171 7.07897C14.1171 7.49318 14.4529 7.82897 14.8671 7.82897V6.32897ZM6.81651 7.07897C6.81651 7.49318 7.1523 7.82897 7.56651 7.82897C7.98072 7.82897 8.31651 7.49318 8.31651 7.07897H6.81651ZM7.56651 6.3878L6.81651 6.38316V6.3878H7.56651ZM7.98163 5.40292L8.50866 5.93653V5.93653L7.98163 5.40292ZM8.97159 5.00005L8.96692 5.75005H8.97159V5.00005ZM13.4609 5.00005V5.75008L13.4673 5.75002L13.4609 5.00005ZM14.453 5.40176L14.9794 4.86754V4.86754L14.453 5.40176ZM14.8693 6.3878H15.6193L15.6192 6.38317L14.8693 6.3878ZM14.1193 7.08222C14.1193 7.49643 14.455 7.83222 14.8693 7.83222C15.2835 7.83222 15.6193 7.49643 15.6193 7.08222H14.1193ZM7.56868 6.33222C7.15446 6.33222 6.81868 6.668 6.81868 7.08222C6.81868 7.49643 7.15446 7.83222 7.56868 7.83222V6.33222ZM14.8671 7.83222C15.2813 7.83222 15.6171 7.49643 15.6171 7.08222C15.6171 6.668 15.2813 6.33222 14.8671 6.33222V7.83222ZM19.4348 17.6393C19.4348 17.2251 19.099 16.8893 18.6848 16.8893C18.2705 16.8893 17.9348 17.2251 17.9348 17.6393H19.4348ZM18.6848 18.7226H17.9347L17.9348 18.7335L18.6848 18.7226ZM18.2813 19.7364L18.8186 20.2596L18.8186 20.2596L18.2813 19.7364ZM17.2786 20.1667V20.9168L17.2876 20.9167L17.2786 20.1667ZM6.40843 20.1667L6.40048 20.9167H6.40843V20.1667ZM5.40589 19.7387L4.86974 20.2631L4.86974 20.2631L5.40589 19.7387ZM5.00009 18.727L5.75009 18.7356V18.727H5.00009ZM5.00009 10.6529H5.75014L5.75004 10.6443L5.00009 10.6529ZM5.40589 9.64115L4.86974 9.1167H4.86974L5.40589 9.64115ZM6.40843 9.21313V8.46309L6.40049 8.46318L6.40843 9.21313ZM7.56543 9.96313C7.97964 9.96313 8.31543 9.62735 8.31543 9.21313C8.31543 8.79892 7.97964 8.46313 7.56543 8.46313V9.96313ZM6.81543 7.08222V16.2516H8.31543V7.08222H6.81543ZM6.81544 16.2562C6.81896 16.8263 7.04917 17.3716 7.45528 17.7718L8.50811 16.7034C8.3858 16.5829 8.31647 16.4186 8.31541 16.2469L6.81544 16.2562ZM7.45529 17.7718C7.8614 18.172 8.41004 18.3941 8.98017 18.3893L8.96735 16.8893C8.79564 16.8908 8.63041 16.8239 8.50811 16.7034L7.45529 17.7718ZM8.97376 18.3893H19.8418V16.8893H8.97376V18.3893ZM19.8353 18.3893C20.4055 18.3941 20.9541 18.172 21.3602 17.7718L20.3074 16.7034C20.1851 16.8239 20.0199 16.8908 19.8482 16.8893L19.8353 18.3893ZM21.3602 17.7718C21.7664 17.3716 21.9966 16.8263 22.0001 16.2562L20.5001 16.2469C20.499 16.4186 20.4297 16.5829 20.3074 16.7034L21.3602 17.7718ZM22.0001 16.2516V8.46672H20.5001V16.2516H22.0001ZM22.0001 8.46209C21.9966 7.89195 21.7664 7.34664 21.3602 6.94646L20.3074 8.0149C20.4297 8.13541 20.499 8.29964 20.5001 8.47135L22.0001 8.46209ZM21.3602 6.94646C20.9541 6.54628 20.4055 6.32412 19.8353 6.329L19.8482 7.82894C20.0199 7.82747 20.1851 7.89438 20.3074 8.0149L21.3602 6.94646ZM19.8418 6.32897H14.8671V7.82897H19.8418V6.32897ZM8.31651 7.07897V6.3878H6.81651V7.07897H8.31651ZM8.3165 6.39244C8.31756 6.221 8.38668 6.057 8.50866 5.93653L7.4546 4.8693C7.04957 5.26934 6.82005 5.81389 6.81652 6.38316L8.3165 6.39244ZM8.50866 5.93653C8.63064 5.81605 8.79548 5.74897 8.96692 5.75004L8.97626 4.25007C8.40699 4.24652 7.85964 4.46927 7.4546 4.8693L8.50866 5.93653ZM8.97159 5.75005H13.4609V4.25005H8.97159V5.75005ZM13.4673 5.75002C13.639 5.74856 13.8043 5.81546 13.9266 5.93598L14.9794 4.86754C14.5733 4.46736 14.0246 4.2452 13.4545 4.25008L13.4673 5.75002ZM13.9266 5.93598C14.0489 6.0565 14.1182 6.22072 14.1193 6.39243L15.6192 6.38317C15.6157 5.81303 15.3855 5.26772 14.9794 4.86754L13.9266 5.93598ZM14.1193 6.3878V7.08222H15.6193V6.3878H14.1193ZM7.56868 7.83222H14.8671V6.33222H7.56868V7.83222ZM17.9348 17.6393V18.7226H19.4348V17.6393H17.9348ZM17.9348 18.7335C17.9374 18.9124 17.8688 19.085 17.7439 19.2132L18.8186 20.2596C19.2214 19.846 19.4431 19.289 19.4347 18.7117L17.9348 18.7335ZM17.7439 19.2132C17.6191 19.3414 17.4484 19.4146 17.2695 19.4168L17.2876 20.9167C17.865 20.9097 18.4158 20.6733 18.8186 20.2596L17.7439 19.2132ZM17.2786 19.4167H6.40843V20.9167H17.2786V19.4167ZM6.41637 19.4168C6.23765 19.4149 6.06702 19.342 5.94204 19.2143L4.86974 20.2631C5.27307 20.6755 5.82374 20.9106 6.40049 20.9167L6.41637 19.4168ZM5.94204 19.2143C5.81706 19.0865 5.74799 18.9143 5.75004 18.7356L4.25014 18.7184C4.24353 19.2951 4.46642 19.8508 4.86974 20.2631L5.94204 19.2143ZM5.75009 18.727V10.6529H4.25009V18.727H5.75009ZM5.75004 10.6443C5.74799 10.4656 5.81706 10.2934 5.94204 10.1656L4.86974 9.1167C4.46642 9.52902 4.24353 10.0847 4.25014 10.6615L5.75004 10.6443ZM5.94204 10.1656C6.06702 10.0378 6.23765 9.96498 6.41637 9.96309L6.40049 8.46318C5.82374 8.46928 5.27307 8.70438 4.86974 9.1167L5.94204 10.1656ZM6.40843 9.96313H7.56543V8.46313H6.40843V9.96313Z" fill="#333333"/>
</svg>
