<svg width="28" height="28" viewBox="0 0 28 28" fill="none" xmlns="http://www.w3.org/2000/svg">
<path d="M12.6667 10.0003H19.3333M8.66667 10.0003H10M12.6667 14.0003H19.3333M8.66667 14.0003H10M12.6667 18.0003H19.3333M8.66667 18.0003H10M22 20.667V7.33366C22 6.62641 21.719 5.94814 21.219 5.44804C20.7189 4.94794 20.0406 4.66699 19.3333 4.66699H8.66667C7.95942 4.66699 7.28115 4.94794 6.78105 5.44804C6.28095 5.94814 6 6.62641 6 7.33366V20.667C6 21.3742 6.28095 22.0525 6.78105 22.5526C7.28115 23.0527 7.95942 23.3337 8.66667 23.3337H19.3333C20.0406 23.3337 20.7189 23.0527 21.219 22.5526C21.719 22.0525 22 21.3742 22 20.667Z" stroke="#1F2587" stroke-linecap="round" stroke-linejoin="round"/>
</svg>
