<svg width="24" height="24" viewBox="0 0 24 24" fill="none" xmlns="http://www.w3.org/2000/svg">
<path fill-rule="evenodd" clip-rule="evenodd" d="M10.5 5.5C9.17392 5.5 7.90215 6.02678 6.96447 6.96447C6.02678 7.90215 5.5 9.17392 5.5 10.5C5.5 11.8261 6.02678 13.0979 6.96447 14.0355C7.90215 14.9732 9.17392 15.5 10.5 15.5C11.8261 15.5 13.0979 14.9732 14.0355 14.0355C14.9732 13.0979 15.5 11.8261 15.5 10.5C15.5 9.17392 14.9732 7.90215 14.0355 6.96447C13.0979 6.02678 11.8261 5.5 10.5 5.5ZM4 10.5C4 8.77609 4.68482 7.12279 5.90381 5.90381C7.12279 4.68482 8.77609 4 10.5 4C12.2239 4 13.8772 4.68482 15.0962 5.90381C16.3152 7.12279 17 8.77609 17 10.5C17 12.2239 16.3152 13.8772 15.0962 15.0962C13.8772 16.3152 12.2239 17 10.5 17C8.77609 17 7.12279 16.3152 5.90381 15.0962C4.68482 13.8772 4 12.2239 4 10.5Z" fill="#666666"/>
<path fill-rule="evenodd" clip-rule="evenodd" d="M14.4693 14.4703C14.61 14.3299 14.8006 14.251 14.9993 14.251C15.1981 14.251 15.3887 14.3299 15.5293 14.4703L19.5293 18.4703C19.603 18.539 19.6621 18.6218 19.7031 18.7138C19.7441 18.8058 19.7662 18.9051 19.7679 19.0058C19.7697 19.1065 19.7512 19.2065 19.7135 19.2999C19.6757 19.3933 19.6196 19.4781 19.5484 19.5494C19.4772 19.6206 19.3923 19.6767 19.2989 19.7144C19.2055 19.7522 19.1055 19.7707 19.0048 19.7689C18.9041 19.7671 18.8048 19.7451 18.7128 19.7041C18.6208 19.6631 18.538 19.604 18.4693 19.5303L14.4693 15.5303C14.3289 15.3897 14.25 15.1991 14.25 15.0003C14.25 14.8016 14.3289 14.6109 14.4693 14.4703Z" fill="#666666"/>
</svg>
