<svg width="12" height="15" viewBox="0 0 12 15" fill="none" xmlns="http://www.w3.org/2000/svg">
<path d="M6.0013 11.3337C5.64768 11.3337 5.30854 11.1932 5.05849 10.9431C4.80844 10.6931 4.66797 10.3539 4.66797 10.0003C4.66797 9.26033 5.2613 8.66699 6.0013 8.66699C6.35492 8.66699 6.69406 8.80747 6.94411 9.05752C7.19416 9.30757 7.33464 9.6467 7.33464 10.0003C7.33464 10.3539 7.19416 10.6931 6.94411 10.9431C6.69406 11.1932 6.35492 11.3337 6.0013 11.3337ZM10.0013 13.3337V6.66699H2.0013V13.3337H10.0013ZM10.0013 5.33366C10.3549 5.33366 10.6941 5.47413 10.9441 5.72418C11.1942 5.97423 11.3346 6.31337 11.3346 6.66699V13.3337C11.3346 13.6873 11.1942 14.0264 10.9441 14.2765C10.6941 14.5265 10.3549 14.667 10.0013 14.667H2.0013C1.64768 14.667 1.30854 14.5265 1.05849 14.2765C0.808444 14.0264 0.667969 13.6873 0.667969 13.3337V6.66699C0.667969 5.92699 1.2613 5.33366 2.0013 5.33366H2.66797V4.00033C2.66797 3.11627 3.01916 2.26842 3.64428 1.6433C4.2694 1.01818 5.11725 0.666992 6.0013 0.666992C6.43904 0.666992 6.87249 0.753211 7.27691 0.920727C7.68133 1.08824 8.0488 1.33377 8.35833 1.6433C8.66785 1.95283 8.91339 2.3203 9.0809 2.72471C9.24842 3.12913 9.33464 3.56259 9.33464 4.00033V5.33366H10.0013ZM6.0013 2.00033C5.47087 2.00033 4.96216 2.21104 4.58709 2.58611C4.21202 2.96118 4.0013 3.46989 4.0013 4.00033V5.33366H8.0013V4.00033C8.0013 3.46989 7.79059 2.96118 7.41552 2.58611C7.04044 2.21104 6.53174 2.00033 6.0013 2.00033Z" fill="#666666"/>
</svg>
